<?xml version="1.0" standalone="no"?><svg xmlns:xlink="http://www.w3.org/1999/xlink" xmlns="http://www.w3.org/2000/svg" viewBox="0 0 1100 676.9230769230769" preserveAspectRatio="xMaxYMax slice"><g transform="scale(1.351143866113926)"><rect x="0" y="0" width="814.125" height="501" fill="#1d1d2d"/><circle cx="31.310000000000002" cy="31.310000000000002" r="6.26" fill="#2b282a"/><circle cx="93.94000000000001" cy="31.310000000000002" r="6.26" fill="#b08a11"/><circle cx="156.56" cy="31.310000000000002" r="6.26" fill="#a48114"/><circle cx="219.19" cy="31.310000000000002" r="6.26" fill="#c1970e"/><circle cx="281.81" cy="31.310000000000002" r="6.26" fill="#fbc103"/><circle cx="344.44" cy="31.310000000000002" r="6.26" fill="#65531f"/><circle cx="407.06" cy="31.310000000000002" r="6.26" fill="#a07e14"/><circle cx="469.69" cy="31.310000000000002" r="6.26" fill="#3a3228"/><circle cx="532.31" cy="31.310000000000002" r="6.26" fill="#9c7b15"/><circle cx="594.93" cy="31.310000000000002" r="6.26" fill="#977716"/><circle cx="657.56" cy="31.310000000000002" r="6.26" fill="#b78f10"/><circle cx="720.1899999999999" cy="31.310000000000002" r="6.26" fill="#fcc203"/><circle cx="782.81" cy="31.310000000000002" r="6.26" fill="#876c19"/><circle cx="31.310000000000002" cy="93.94000000000001" r="6.26" fill="#393228"/><circle cx="93.94000000000001" cy="93.94000000000001" r="6.26" fill="#d2a30b"/><circle cx="156.56" cy="93.94000000000001" r="6.26" fill="#a48114"/><circle cx="219.19" cy="93.94000000000001" r="6.26" fill="#896d19"/><circle cx="281.81" cy="93.94000000000001" r="6.26" fill="#c3980e"/><circle cx="344.44" cy="93.94000000000001" r="6.26" fill="#604e21"/><circle cx="407.06" cy="93.94000000000001" r="6.26" fill="#755e1d"/><circle cx="469.69" cy="93.94000000000001" r="6.26" fill="#5b4b21"/><circle cx="532.31" cy="93.94000000000001" r="6.26" fill="#8f7218"/><circle cx="594.93" cy="93.94000000000001" r="6.26" fill="#2b272a"/><circle cx="657.56" cy="93.94000000000001" r="6.26" fill="#574822"/><circle cx="720.1899999999999" cy="93.94000000000001" r="6.26" fill="#715b1d"/><circle cx="782.81" cy="93.94000000000001" r="6.26" fill="#574822"/><circle cx="31.310000000000002" cy="156.56" r="6.26" fill="#d3a40b"/><circle cx="93.94000000000001" cy="156.56" r="6.26" fill="#5e4e21"/><circle cx="156.56" cy="156.56" r="6.26" fill="#463b25"/><circle cx="219.19" cy="156.56" r="6.26" fill="#a98413"/><circle cx="281.81" cy="156.56" r="6.26" fill="#25232c"/><circle cx="344.44" cy="156.56" r="6.26" fill="#423826"/><circle cx="407.06" cy="156.56" r="6.26" fill="#332d29"/><circle cx="469.69" cy="156.56" r="6.26" fill="#26242b"/><circle cx="532.31" cy="156.56" r="6.26" fill="#cfa10c"/><circle cx="594.93" cy="156.56" r="6.26" fill="#b58e11"/><circle cx="657.56" cy="156.56" r="6.26" fill="#4f4224"/><circle cx="720.1899999999999" cy="156.56" r="6.26" fill="#8a6e19"/><circle cx="782.81" cy="156.56" r="6.26" fill="#544623"/><circle cx="31.310000000000002" cy="219.19" r="6.26" fill="#5e4e21"/><circle cx="93.94000000000001" cy="219.19" r="6.26" fill="#645120"/><circle cx="156.56" cy="219.19" r="6.26" fill="#5b4b21"/><circle cx="219.19" cy="219.19" r="6.26" fill="#423826"/><circle cx="281.81" cy="219.19" r="6.26" fill="#ab8712"/><circle cx="344.44" cy="219.19" r="6.26" fill="#534523"/><circle cx="407.06" cy="219.19" r="6.26" fill="#443a26"/><circle cx="469.69" cy="219.19" r="6.26" fill="#e9b407"/><circle cx="532.31" cy="219.19" r="6.26" fill="#ecb706"/><circle cx="594.93" cy="219.19" r="6.26" fill="#c69a0d"/><circle cx="657.56" cy="219.19" r="6.26" fill="#cc9e0c"/><circle cx="720.1899999999999" cy="219.19" r="6.26" fill="#f0ba05"/><circle cx="782.81" cy="219.19" r="6.26" fill="#65531f"/><circle cx="31.310000000000002" cy="281.81" r="6.26" fill="#82681a"/><circle cx="93.94000000000001" cy="281.81" r="6.26" fill="#5e4e21"/><circle cx="156.56" cy="281.81" r="6.26" fill="#594922"/><circle cx="219.19" cy="281.81" r="6.26" fill="#947617"/><circle cx="281.81" cy="281.81" r="6.26" fill="#bd940f"/><circle cx="344.44" cy="281.81" r="6.26" fill="#443a26"/><circle cx="407.06" cy="281.81" r="6.26" fill="#cb9e0c"/><circle cx="469.69" cy="281.81" r="6.26" fill="#d7a70a"/><circle cx="532.31" cy="281.81" r="6.26" fill="#b68e10"/><circle cx="594.93" cy="281.81" r="6.26" fill="#b38c11"/><circle cx="657.56" cy="281.81" r="6.26" fill="#8c6f18"/><circle cx="720.1899999999999" cy="281.81" r="6.26" fill="#e0ae08"/><circle cx="782.81" cy="281.81" r="6.26" fill="#3f3627"/><circle cx="31.310000000000002" cy="344.44" r="6.26" fill="#78611c"/><circle cx="93.94000000000001" cy="344.44" r="6.26" fill="#3a3228"/><circle cx="156.56" cy="344.44" r="6.26" fill="#28252b"/><circle cx="219.19" cy="344.44" r="6.26" fill="#ae8812"/><circle cx="281.81" cy="344.44" r="6.26" fill="#c4990e"/><circle cx="344.44" cy="344.44" r="6.26" fill="#c5990e"/><circle cx="407.06" cy="344.44" r="6.26" fill="#c4990e"/><circle cx="469.69" cy="344.44" r="6.26" fill="#7f661b"/><circle cx="532.31" cy="344.44" r="6.26" fill="#cb9e0c"/><circle cx="594.93" cy="344.44" r="6.26" fill="#514423"/><circle cx="657.56" cy="344.44" r="6.26" fill="#b99010"/><circle cx="720.1899999999999" cy="344.44" r="6.26" fill="#715b1d"/><circle cx="782.81" cy="344.44" r="6.26" fill="#4c4024"/><circle cx="31.310000000000002" cy="407.06" r="6.26" fill="#7a621c"/><circle cx="93.94000000000001" cy="407.06" r="6.26" fill="#83691a"/><circle cx="156.56" cy="407.06" r="6.26" fill="#957617"/><circle cx="219.19" cy="407.06" r="6.26" fill="#f6be04"/><circle cx="281.81" cy="407.06" r="6.26" fill="#957617"/><circle cx="344.44" cy="407.06" r="6.26" fill="#866b19"/><circle cx="407.06" cy="407.06" r="6.26" fill="#a78313"/><circle cx="469.69" cy="407.06" r="6.26" fill="#947517"/><circle cx="532.31" cy="407.06" r="6.26" fill="#3d3427"/><circle cx="594.93" cy="407.06" r="6.26" fill="#383128"/><circle cx="657.56" cy="407.06" r="6.26" fill="#f2bb05"/><circle cx="720.1899999999999" cy="407.06" r="6.26" fill="#22212c"/><circle cx="782.81" cy="407.06" r="6.26" fill="#20202c"/><circle cx="31.310000000000002" cy="469.69" r="6.26" fill="#b38c11"/><circle cx="93.94000000000001" cy="469.69" r="6.26" fill="#80661a"/><circle cx="156.56" cy="469.69" r="6.26" fill="#9f7e15"/><circle cx="219.19" cy="469.69" r="6.26" fill="#886d19"/><circle cx="281.81" cy="469.69" r="6.26" fill="#81671a"/><circle cx="344.44" cy="469.69" r="6.26" fill="#24222c"/><circle cx="407.06" cy="469.69" r="6.26" fill="#d4a50b"/><circle cx="469.69" cy="469.69" r="6.26" fill="#8d7018"/><circle cx="532.31" cy="469.69" r="6.26" fill="#6f5a1e"/><circle cx="594.93" cy="469.69" r="6.26" fill="#393228"/><circle cx="657.56" cy="469.69" r="6.26" fill="#f9c004"/><circle cx="720.1899999999999" cy="469.69" r="6.26" fill="#27252b"/><circle cx="782.81" cy="469.69" r="6.26" fill="#594922"/></g></svg>