<svg xmlns="http://www.w3.org/2000/svg" width="1920" height="1080"><path d="M909,483L943,382L771,461Z" fill="rgb(211,239,255)" stroke="rgb(211,239,255)" stroke-width="1.51"/><path d="M943,382L891,285L771,461Z" fill="rgb(214,240,255)" stroke="rgb(214,240,255)" stroke-width="1.51"/><path d="M891,285L700,345L771,461Z" fill="rgb(217,241,255)" stroke="rgb(217,241,255)" stroke-width="1.51"/><path d="M771,461L783,568L909,483Z" fill="rgb(209,239,255)" stroke="rgb(209,239,255)" stroke-width="1.51"/><path d="M667,515L783,568L771,461Z" fill="rgb(211,239,255)" stroke="rgb(211,239,255)" stroke-width="1.51"/><path d="M891,285L711,246L700,345Z" fill="rgb(221,242,255)" stroke="rgb(221,242,255)" stroke-width="1.51"/><path d="M700,345L667,515L771,461Z" fill="rgb(215,241,255)" stroke="rgb(215,241,255)" stroke-width="1.51"/><path d="M700,345L478,373L667,515Z" fill="rgb(219,242,255)" stroke="rgb(219,242,255)" stroke-width="1.51"/><path d="M831,200L711,246L891,285Z" fill="rgb(222,243,255)" stroke="rgb(222,243,255)" stroke-width="1.51"/><path d="M975,86L865,187L891,285Z" fill="rgb(222,243,255)" stroke="rgb(222,243,255)" stroke-width="1.51"/><path d="M891,285L865,187L831,200Z" fill="rgb(222,242,255)" stroke="rgb(222,242,255)" stroke-width="1.51"/><path d="M1023,618L1037,581L909,483Z" fill="rgb(201,236,255)" stroke="rgb(201,236,255)" stroke-width="1.51"/><path d="M674,635L774,641L783,568Z" fill="rgb(206,237,255)" stroke="rgb(206,237,255)" stroke-width="1.51"/><path d="M909,483L1037,581L943,382Z" fill="rgb(206,237,255)" stroke="rgb(206,237,255)" stroke-width="1.51"/><path d="M943,382L1133,271L891,285Z" fill="rgb(214,240,255)" stroke="rgb(214,240,255)" stroke-width="1.51"/><path d="M1023,618L909,483L783,568Z" fill="rgb(204,237,255)" stroke="rgb(204,237,255)" stroke-width="1.51"/><path d="M774,641L1023,618L783,568Z" fill="rgb(203,236,255)" stroke="rgb(203,236,255)" stroke-width="1.51"/><path d="M667,515L674,635L783,568Z" fill="rgb(209,238,255)" stroke="rgb(209,238,255)" stroke-width="1.51"/><path d="M711,246L600,264L700,345Z" fill="rgb(224,243,255)" stroke="rgb(224,243,255)" stroke-width="1.51"/><path d="M667,515L561,570L674,635Z" fill="rgb(211,239,255)" stroke="rgb(211,239,255)" stroke-width="1.51"/><path d="M696,114L600,264L711,246Z" fill="rgb(228,245,255)" stroke="rgb(228,245,255)" stroke-width="1.51"/><path d="M696,114L711,246L831,200Z" fill="rgb(227,245,255)" stroke="rgb(227,245,255)" stroke-width="1.51"/><path d="M1280,600L1157,427L1037,581Z" fill="rgb(198,235,255)" stroke="rgb(198,235,255)" stroke-width="1.51"/><path d="M1037,581L1157,427L943,382Z" fill="rgb(205,237,255)" stroke="rgb(205,237,255)" stroke-width="1.51"/><path d="M1157,427L1133,271L943,382Z" fill="rgb(209,238,255)" stroke="rgb(209,238,255)" stroke-width="1.51"/><path d="M865,187L696,114L831,200Z" fill="rgb(226,244,255)" stroke="rgb(226,244,255)" stroke-width="1.51"/><path d="M860,-23L696,114L865,187Z" fill="rgb(229,245,255)" stroke="rgb(229,245,255)" stroke-width="1.51"/><path d="M478,373L561,570L667,515Z" fill="rgb(217,241,255)" stroke="rgb(217,241,255)" stroke-width="1.51"/><path d="M1108,155L975,86L891,285Z" fill="rgb(220,242,255)" stroke="rgb(220,242,255)" stroke-width="1.51"/><path d="M1133,271L1108,155L891,285Z" fill="rgb(216,241,255)" stroke="rgb(216,241,255)" stroke-width="1.51"/><path d="M1133,271L1178,243L1108,155Z" fill="rgb(214,240,255)" stroke="rgb(214,240,255)" stroke-width="1.51"/><path d="M1218,364L1178,243L1133,271Z" fill="rgb(210,238,255)" stroke="rgb(210,238,255)" stroke-width="1.51"/><path d="M1157,427L1218,364L1133,271Z" fill="rgb(207,237,255)" stroke="rgb(207,237,255)" stroke-width="1.51"/><path d="M1280,600L1218,364L1157,427Z" fill="rgb(200,235,255)" stroke="rgb(200,235,255)" stroke-width="1.51"/><path d="M975,86L950,48L865,187Z" fill="rgb(225,244,255)" stroke="rgb(225,244,255)" stroke-width="1.51"/><path d="M1067,28L950,48L975,86Z" fill="rgb(226,244,255)" stroke="rgb(226,244,255)" stroke-width="1.51"/><path d="M600,264L478,373L700,345Z" fill="rgb(224,244,255)" stroke="rgb(224,244,255)" stroke-width="1.51"/><path d="M402,320L478,373L600,264Z" fill="rgb(227,245,255)" stroke="rgb(227,245,255)" stroke-width="1.51"/><path d="M774,641L955,791L1023,618Z" fill="rgb(197,235,255)" stroke="rgb(197,235,255)" stroke-width="1.51"/><path d="M674,635L710,768L774,641Z" fill="rgb(203,236,255)" stroke="rgb(203,236,255)" stroke-width="1.51"/><path d="M519,673L710,768L674,635Z" fill="rgb(204,237,255)" stroke="rgb(204,237,255)" stroke-width="1.51"/><path d="M787,846L955,791L774,641Z" fill="rgb(195,234,255)" stroke="rgb(195,234,255)" stroke-width="1.51"/><path d="M1023,618L1083,739L1037,581Z" fill="rgb(195,234,255)" stroke="rgb(195,234,255)" stroke-width="1.51"/><path d="M955,791L1083,739L1023,618Z" fill="rgb(193,232,255)" stroke="rgb(193,232,255)" stroke-width="1.51"/><path d="M561,570L519,673L674,635Z" fill="rgb(209,239,255)" stroke="rgb(209,239,255)" stroke-width="1.51"/><path d="M363,530L519,673L561,570Z" fill="rgb(214,240,255)" stroke="rgb(214,240,255)" stroke-width="1.51"/><path d="M950,48L860,-23L865,187Z" fill="rgb(228,245,255)" stroke="rgb(228,245,255)" stroke-width="1.51"/><path d="M1017,-96L860,-23L950,48Z" fill="rgb(230,246,255)" stroke="rgb(230,246,255)" stroke-width="1.51"/><path d="M478,373L423,457L561,570Z" fill="rgb(220,242,255)" stroke="rgb(220,242,255)" stroke-width="1.51"/><path d="M1108,155L1067,28L975,86Z" fill="rgb(223,243,255)" stroke="rgb(223,243,255)" stroke-width="1.51"/><path d="M1255,77L1067,28L1108,155Z" fill="rgb(221,242,255)" stroke="rgb(221,242,255)" stroke-width="1.51"/><path d="M696,114L570,72L600,264Z" fill="rgb(232,246,255)" stroke="rgb(232,246,255)" stroke-width="1.51"/><path d="M478,373L402,320L423,457Z" fill="rgb(226,244,255)" stroke="rgb(226,244,255)" stroke-width="1.51"/><path d="M644,5L570,72L696,114Z" fill="rgb(235,248,255)" stroke="rgb(235,248,255)" stroke-width="1.51"/><path d="M955,791L1091,777L1083,739Z" fill="rgb(189,232,255)" stroke="rgb(189,232,255)" stroke-width="1.51"/><path d="M1083,739L1280,600L1037,581Z" fill="rgb(193,233,255)" stroke="rgb(193,233,255)" stroke-width="1.51"/><path d="M710,768L787,846L774,641Z" fill="rgb(198,234,255)" stroke="rgb(198,234,255)" stroke-width="1.51"/><path d="M1116,961L1173,893L1091,777Z" fill="rgb(181,229,255)" stroke="rgb(181,229,255)" stroke-width="1.51"/><path d="M815,930L787,846L660,948Z" fill="rgb(190,232,255)" stroke="rgb(190,232,255)" stroke-width="1.51"/><path d="M860,-23L644,5L696,114Z" fill="rgb(234,247,255)" stroke="rgb(234,247,255)" stroke-width="1.51"/><path d="M570,72L402,320L600,264Z" fill="rgb(231,246,255)" stroke="rgb(231,246,255)" stroke-width="1.51"/><path d="M1319,652L1280,600L1305,744Z" fill="rgb(187,231,255)" stroke="rgb(187,231,255)" stroke-width="1.51"/><path d="M644,5L553,10L570,72Z" fill="rgb(238,249,255)" stroke="rgb(238,249,255)" stroke-width="1.51"/><path d="M570,72L383,52L402,320Z" fill="rgb(236,248,255)" stroke="rgb(236,248,255)" stroke-width="1.51"/><path d="M548,-149L553,10L644,5Z" fill="rgb(240,249,255)" stroke="rgb(240,249,255)" stroke-width="1.51"/><path d="M423,457L363,530L561,570Z" fill="rgb(218,241,255)" stroke="rgb(218,241,255)" stroke-width="1.51"/><path d="M230,357L363,530L423,457Z" fill="rgb(225,244,255)" stroke="rgb(225,244,255)" stroke-width="1.51"/><path d="M860,-23L839,-105L644,5Z" fill="rgb(234,247,255)" stroke="rgb(234,247,255)" stroke-width="1.51"/><path d="M1017,-96L839,-105L860,-23Z" fill="rgb(231,246,255)" stroke="rgb(231,246,255)" stroke-width="1.51"/><path d="M1178,243L1255,77L1108,155Z" fill="rgb(216,241,255)" stroke="rgb(216,241,255)" stroke-width="1.51"/><path d="M1067,28L1017,-96L950,48Z" fill="rgb(228,245,255)" stroke="rgb(228,245,255)" stroke-width="1.51"/><path d="M1313,155L1255,77L1178,243Z" fill="rgb(214,240,255)" stroke="rgb(214,240,255)" stroke-width="1.51"/><path d="M1313,155L1178,243L1396,226Z" fill="rgb(211,239,255)" stroke="rgb(211,239,255)" stroke-width="1.51"/><path d="M787,846L815,930L955,791Z" fill="rgb(190,232,255)" stroke="rgb(190,232,255)" stroke-width="1.51"/><path d="M660,948L787,846L710,768Z" fill="rgb(194,233,255)" stroke="rgb(194,233,255)" stroke-width="1.51"/><path d="M519,673L578,856L710,768Z" fill="rgb(202,236,255)" stroke="rgb(202,236,255)" stroke-width="1.51"/><path d="M442,879L578,856L519,673Z" fill="rgb(203,236,255)" stroke="rgb(203,236,255)" stroke-width="1.51"/><path d="M1396,226L1178,243L1218,364Z" fill="rgb(208,238,255)" stroke="rgb(208,238,255)" stroke-width="1.51"/><path d="M1280,600L1366,579L1218,364Z" fill="rgb(195,233,255)" stroke="rgb(195,233,255)" stroke-width="1.51"/><path d="M1305,744L1280,600L1083,739Z" fill="rgb(188,231,255)" stroke="rgb(188,231,255)" stroke-width="1.51"/><path d="M1305,744L1083,739L1091,777Z" fill="rgb(187,231,255)" stroke="rgb(187,231,255)" stroke-width="1.51"/><path d="M1129,-101L1017,-96L1067,28Z" fill="rgb(227,244,255)" stroke="rgb(227,244,255)" stroke-width="1.51"/><path d="M1319,652L1366,579L1280,600Z" fill="rgb(189,231,255)" stroke="rgb(189,231,255)" stroke-width="1.51"/><path d="M363,530L384,696L519,673Z" fill="rgb(214,240,255)" stroke="rgb(214,240,255)" stroke-width="1.51"/><path d="M1319,652L1453,645L1366,579Z" fill="rgb(186,231,255)" stroke="rgb(186,231,255)" stroke-width="1.51"/><path d="M1173,893L1305,744L1091,777Z" fill="rgb(183,229,255)" stroke="rgb(183,229,255)" stroke-width="1.51"/><path d="M1366,579L1419,399L1218,364Z" fill="rgb(197,234,255)" stroke="rgb(197,234,255)" stroke-width="1.51"/><path d="M578,856L660,948L710,768Z" fill="rgb(195,234,255)" stroke="rgb(195,234,255)" stroke-width="1.51"/><path d="M526,1002L660,948L578,856Z" fill="rgb(194,233,255)" stroke="rgb(194,233,255)" stroke-width="1.51"/><path d="M1419,399L1396,226L1218,364Z" fill="rgb(203,236,255)" stroke="rgb(203,236,255)" stroke-width="1.51"/><path d="M1392,32L1203,-86L1255,77Z" fill="rgb(220,242,255)" stroke="rgb(220,242,255)" stroke-width="1.51"/><path d="M1017,-96L741,-203L839,-105Z" fill="rgb(232,246,255)" stroke="rgb(232,246,255)" stroke-width="1.51"/><path d="M1203,-86L1129,-101L1067,28Z" fill="rgb(225,244,255)" stroke="rgb(225,244,255)" stroke-width="1.51"/><path d="M1203,-86L1067,28L1255,77Z" fill="rgb(223,243,255)" stroke="rgb(223,243,255)" stroke-width="1.51"/><path d="M988,974L1091,777L955,791Z" fill="rgb(186,230,255)" stroke="rgb(186,230,255)" stroke-width="1.51"/><path d="M988,974L955,791L815,930Z" fill="rgb(186,230,255)" stroke="rgb(186,230,255)" stroke-width="1.51"/><path d="M851,1083L988,974L815,930Z" fill="rgb(181,229,255)" stroke="rgb(181,229,255)" stroke-width="1.51"/><path d="M553,10L383,52L570,72Z" fill="rgb(240,249,255)" stroke="rgb(240,249,255)" stroke-width="1.51"/><path d="M187,459L268,582L363,530Z" fill="rgb(223,243,255)" stroke="rgb(223,243,255)" stroke-width="1.51"/><path d="M382,-24L383,52L553,10Z" fill="rgb(243,250,255)" stroke="rgb(243,250,255)" stroke-width="1.51"/><path d="M1392,32L1255,77L1313,155Z" fill="rgb(216,241,255)" stroke="rgb(216,241,255)" stroke-width="1.51"/><path d="M363,530L268,582L384,696Z" fill="rgb(217,241,255)" stroke="rgb(217,241,255)" stroke-width="1.51"/><path d="M230,357L423,457L402,320Z" fill="rgb(228,245,255)" stroke="rgb(228,245,255)" stroke-width="1.51"/><path d="M988,974L1116,961L1091,777Z" fill="rgb(181,229,255)" stroke="rgb(181,229,255)" stroke-width="1.51"/><path d="M1173,893L1278,871L1305,744Z" fill="rgb(179,228,255)" stroke="rgb(179,228,255)" stroke-width="1.51"/><path d="M839,-105L741,-203L644,5Z" fill="rgb(235,248,255)" stroke="rgb(235,248,255)" stroke-width="1.51"/><path d="M1247,-186L741,-203L1017,-96Z" fill="rgb(229,245,255)" stroke="rgb(229,245,255)" stroke-width="1.51"/><path d="M1247,-186L1017,-96L1129,-101Z" fill="rgb(225,244,255)" stroke="rgb(225,244,255)" stroke-width="1.51"/><path d="M253,228L230,357L402,320Z" fill="rgb(234,247,255)" stroke="rgb(234,247,255)" stroke-width="1.51"/><path d="M383,52L253,228L402,320Z" fill="rgb(237,248,255)" stroke="rgb(237,248,255)" stroke-width="1.51"/><path d="M384,696L442,879L519,673Z" fill="rgb(207,237,255)" stroke="rgb(207,237,255)" stroke-width="1.51"/><path d="M277,748L442,879L384,696Z" fill="rgb(208,238,255)" stroke="rgb(208,238,255)" stroke-width="1.51"/><path d="M1305,744L1453,645L1319,652Z" fill="rgb(185,230,255)" stroke="rgb(185,230,255)" stroke-width="1.51"/><path d="M1325,1055L1278,871L1173,893Z" fill="rgb(173,227,255)" stroke="rgb(173,227,255)" stroke-width="1.51"/><path d="M741,-203L548,-149L644,5Z" fill="rgb(238,249,255)" stroke="rgb(238,249,255)" stroke-width="1.51"/><path d="M383,52L218,85L253,228Z" fill="rgb(242,250,255)" stroke="rgb(242,250,255)" stroke-width="1.51"/><path d="M548,-149L382,-24L553,10Z" fill="rgb(242,250,255)" stroke="rgb(242,250,255)" stroke-width="1.51"/><path d="M1366,579L1499,598L1419,399Z" fill="rgb(190,232,255)" stroke="rgb(190,232,255)" stroke-width="1.51"/><path d="M1537,200L1456,172L1396,226Z" fill="rgb(206,237,255)" stroke="rgb(206,237,255)" stroke-width="1.51"/><path d="M1457,776L1453,645L1305,744Z" fill="rgb(181,229,255)" stroke="rgb(181,229,255)" stroke-width="1.51"/><path d="M1396,226L1456,172L1313,155Z" fill="rgb(209,238,255)" stroke="rgb(209,238,255)" stroke-width="1.51"/><path d="M1520,377L1396,226L1419,399Z" fill="rgb(200,235,255)" stroke="rgb(200,235,255)" stroke-width="1.51"/><path d="M1456,172L1392,32L1313,155Z" fill="rgb(212,239,255)" stroke="rgb(212,239,255)" stroke-width="1.51"/><path d="M268,582L277,748L384,696Z" fill="rgb(215,240,255)" stroke="rgb(215,240,255)" stroke-width="1.51"/><path d="M230,357L187,459L363,530Z" fill="rgb(227,245,255)" stroke="rgb(227,245,255)" stroke-width="1.51"/><path d="M113,230L187,459L230,357Z" fill="rgb(234,247,255)" stroke="rgb(234,247,255)" stroke-width="1.51"/><path d="M172,614L277,748L268,582Z" fill="rgb(218,241,255)" stroke="rgb(218,241,255)" stroke-width="1.51"/><path d="M1499,598L1520,377L1419,399Z" fill="rgb(192,232,255)" stroke="rgb(192,232,255)" stroke-width="1.51"/><path d="M665,1089L851,1083L815,930Z" fill="rgb(183,230,255)" stroke="rgb(183,230,255)" stroke-width="1.51"/><path d="M988,974L1148,1048L1116,961Z" fill="rgb(176,227,255)" stroke="rgb(176,227,255)" stroke-width="1.51"/><path d="M665,1089L815,930L660,948Z" fill="rgb(187,231,255)" stroke="rgb(187,231,255)" stroke-width="1.51"/><path d="M1453,645L1499,598L1366,579Z" fill="rgb(186,230,255)" stroke="rgb(186,230,255)" stroke-width="1.51"/><path d="M1457,776L1499,598L1453,645Z" fill="rgb(181,229,255)" stroke="rgb(181,229,255)" stroke-width="1.51"/><path d="M442,879L526,1002L578,856Z" fill="rgb(197,234,255)" stroke="rgb(197,234,255)" stroke-width="1.51"/><path d="M494,1066L526,1002L402,1014Z" fill="rgb(192,233,255)" stroke="rgb(192,233,255)" stroke-width="1.51"/><path d="M1116,961L1148,1048L1173,893Z" fill="rgb(175,227,255)" stroke="rgb(175,227,255)" stroke-width="1.51"/><path d="M851,1083L970,1083L988,974Z" fill="rgb(177,228,255)" stroke="rgb(177,228,255)" stroke-width="1.51"/><path d="M187,459L163,538L268,582Z" fill="rgb(225,244,255)" stroke="rgb(225,244,255)" stroke-width="1.51"/><path d="M33,630L163,538L-89,505Z" fill="rgb(228,245,255)" stroke="rgb(228,245,255)" stroke-width="1.51"/><path d="M382,-24L218,85L383,52Z" fill="rgb(245,251,255)" stroke="rgb(245,251,255)" stroke-width="1.51"/><path d="M548,-149L371,-105L382,-24Z" fill="rgb(244,251,255)" stroke="rgb(244,251,255)" stroke-width="1.51"/><path d="M312,-158L371,-105L548,-149Z" fill="rgb(244,251,255)" stroke="rgb(244,251,255)" stroke-width="1.51"/><path d="M1278,871L1420,817L1305,744Z" fill="rgb(178,228,255)" stroke="rgb(178,228,255)" stroke-width="1.51"/><path d="M1395,1004L1420,817L1278,871Z" fill="rgb(172,226,255)" stroke="rgb(172,226,255)" stroke-width="1.51"/><path d="M970,1083L1148,1048L988,974Z" fill="rgb(175,227,255)" stroke="rgb(175,227,255)" stroke-width="1.51"/><path d="M526,1002L665,1089L660,948Z" fill="rgb(188,231,255)" stroke="rgb(188,231,255)" stroke-width="1.51"/><path d="M851,1083L900,1182L970,1083Z" fill="rgb(176,227,255)" stroke="rgb(176,227,255)" stroke-width="1.51"/><path d="M163,538L172,614L268,582Z" fill="rgb(223,243,255)" stroke="rgb(223,243,255)" stroke-width="1.51"/><path d="M197,-88L218,85L382,-24Z" fill="rgb(248,252,255)" stroke="rgb(248,252,255)" stroke-width="1.51"/><path d="M253,228L113,230L230,357Z" fill="rgb(238,249,255)" stroke="rgb(238,249,255)" stroke-width="1.51"/><path d="M1420,817L1457,776L1305,744Z" fill="rgb(178,228,255)" stroke="rgb(178,228,255)" stroke-width="1.51"/><path d="M1203,-86L1247,-186L1129,-101Z" fill="rgb(224,243,255)" stroke="rgb(224,243,255)" stroke-width="1.51"/><path d="M1406,-100L1247,-186L1203,-86Z" fill="rgb(221,242,255)" stroke="rgb(221,242,255)" stroke-width="1.51"/><path d="M1520,377L1537,200L1396,226Z" fill="rgb(202,236,255)" stroke="rgb(202,236,255)" stroke-width="1.51"/><path d="M1456,172L1457,-33L1392,32Z" fill="rgb(214,240,255)" stroke="rgb(214,240,255)" stroke-width="1.51"/><path d="M1392,32L1406,-100L1203,-86Z" fill="rgb(219,242,255)" stroke="rgb(219,242,255)" stroke-width="1.51"/><path d="M1634,274L1537,200L1520,377Z" fill="rgb(199,235,255)" stroke="rgb(199,235,255)" stroke-width="1.51"/><path d="M16,38L164,152L218,85Z" fill="rgb(248,252,255)" stroke="rgb(248,252,255)" stroke-width="1.51"/><path d="M218,85L164,152L253,228Z" fill="rgb(243,251,255)" stroke="rgb(243,251,255)" stroke-width="1.51"/><path d="M526,1002L494,1066L665,1089Z" fill="rgb(188,231,255)" stroke="rgb(188,231,255)" stroke-width="1.51"/><path d="M402,1014L526,1002L442,879Z" fill="rgb(196,234,255)" stroke="rgb(196,234,255)" stroke-width="1.51"/><path d="M402,1014L442,879L244,935Z" fill="rgb(200,235,255)" stroke="rgb(200,235,255)" stroke-width="1.51"/><path d="M1537,200L1457,-33L1456,172Z" fill="rgb(210,238,255)" stroke="rgb(210,238,255)" stroke-width="1.51"/><path d="M1457,-33L1406,-100L1392,32Z" fill="rgb(217,241,255)" stroke="rgb(217,241,255)" stroke-width="1.51"/><path d="M244,935L442,879L277,748Z" fill="rgb(205,237,255)" stroke="rgb(205,237,255)" stroke-width="1.51"/><path d="M164,152L113,230L253,228Z" fill="rgb(241,250,255)" stroke="rgb(241,250,255)" stroke-width="1.51"/><path d="M33,630L121,783L172,614Z" fill="rgb(220,242,255)" stroke="rgb(220,242,255)" stroke-width="1.51"/><path d="M825,1226L851,1083L665,1089Z" fill="rgb(180,229,255)" stroke="rgb(180,229,255)" stroke-width="1.51"/><path d="M825,1226L900,1182L851,1083Z" fill="rgb(178,228,255)" stroke="rgb(178,228,255)" stroke-width="1.51"/><path d="M970,1083L1163,1235L1148,1048Z" fill="rgb(170,226,255)" stroke="rgb(170,226,255)" stroke-width="1.51"/><path d="M371,-105L197,-88L382,-24Z" fill="rgb(247,252,255)" stroke="rgb(247,252,255)" stroke-width="1.51"/><path d="M164,152L1,194L113,230Z" fill="rgb(244,250,255)" stroke="rgb(244,250,255)" stroke-width="1.51"/><path d="M741,-203L312,-158L548,-149Z" fill="rgb(241,250,255)" stroke="rgb(241,250,255)" stroke-width="1.51"/><path d="M121,783L206,869L277,748Z" fill="rgb(211,239,255)" stroke="rgb(211,239,255)" stroke-width="1.51"/><path d="M121,783L277,748L172,614Z" fill="rgb(216,240,255)" stroke="rgb(216,240,255)" stroke-width="1.51"/><path d="M1719,-33L1499,-138L1457,-33Z" fill="rgb(213,240,255)" stroke="rgb(213,240,255)" stroke-width="1.51"/><path d="M1656,447L1634,274L1520,377Z" fill="rgb(193,233,255)" stroke="rgb(193,233,255)" stroke-width="1.51"/><path d="M1656,447L1520,377L1499,598Z" fill="rgb(189,232,255)" stroke="rgb(189,232,255)" stroke-width="1.51"/><path d="M1275,1115L1325,1055L1148,1048Z" fill="rgb(166,224,255)" stroke="rgb(166,224,255)" stroke-width="1.51"/><path d="M1148,1048L1325,1055L1173,893Z" fill="rgb(171,226,255)" stroke="rgb(171,226,255)" stroke-width="1.51"/><path d="M1420,817L1574,892L1457,776Z" fill="rgb(173,226,255)" stroke="rgb(173,226,255)" stroke-width="1.51"/><path d="M206,869L244,935L277,748Z" fill="rgb(208,238,255)" stroke="rgb(208,238,255)" stroke-width="1.51"/><path d="M402,1014L411,1139L494,1066Z" fill="rgb(191,232,255)" stroke="rgb(191,232,255)" stroke-width="1.51"/><path d="M1699,517L1656,447L1499,598Z" fill="rgb(185,230,255)" stroke="rgb(185,230,255)" stroke-width="1.51"/><path d="M1699,517L1499,598L1705,685Z" fill="rgb(180,228,255)" stroke="rgb(180,228,255)" stroke-width="1.51"/><path d="M1325,1055L1395,1004L1278,871Z" fill="rgb(169,225,255)" stroke="rgb(169,225,255)" stroke-width="1.51"/><path d="M1163,1235L1275,1115L1148,1048Z" fill="rgb(168,225,255)" stroke="rgb(168,225,255)" stroke-width="1.51"/><path d="M654,1278L825,1226L665,1089Z" fill="rgb(182,229,255)" stroke="rgb(182,229,255)" stroke-width="1.51"/><path d="M312,-158L197,-88L371,-105Z" fill="rgb(248,252,255)" stroke="rgb(248,252,255)" stroke-width="1.51"/><path d="M206,869L126,1020L244,935Z" fill="rgb(205,237,255)" stroke="rgb(205,237,255)" stroke-width="1.51"/><path d="M33,630L172,614L163,538Z" fill="rgb(224,244,255)" stroke="rgb(224,244,255)" stroke-width="1.51"/><path d="M1325,1055L1437,1187L1395,1004Z" fill="rgb(161,223,255)" stroke="rgb(161,223,255)" stroke-width="1.51"/><path d="M1163,1235L970,1083L900,1182Z" fill="rgb(173,226,255)" stroke="rgb(173,226,255)" stroke-width="1.51"/><path d="M312,-158L178,-94L197,-88Z" fill="rgb(249,253,255)" stroke="rgb(249,253,255)" stroke-width="1.51"/><path d="M197,-88L74,-50L218,85Z" fill="rgb(251,253,255)" stroke="rgb(251,253,255)" stroke-width="1.51"/><path d="M126,1020L315,1063L244,935Z" fill="rgb(200,236,255)" stroke="rgb(200,236,255)" stroke-width="1.51"/><path d="M244,935L315,1063L402,1014Z" fill="rgb(198,235,255)" stroke="rgb(198,235,255)" stroke-width="1.51"/><path d="M494,1066L484,1190L665,1089Z" fill="rgb(187,231,255)" stroke="rgb(187,231,255)" stroke-width="1.51"/><path d="M-89,505L163,538L187,459Z" fill="rgb(229,245,255)" stroke="rgb(229,245,255)" stroke-width="1.51"/><path d="M1457,-33L1499,-138L1406,-100Z" fill="rgb(216,241,255)" stroke="rgb(216,241,255)" stroke-width="1.51"/><path d="M1406,-100L1499,-138L1247,-186Z" fill="rgb(218,241,255)" stroke="rgb(218,241,255)" stroke-width="1.51"/><path d="M1695,151L1457,-33L1537,200Z" fill="rgb(208,238,255)" stroke="rgb(208,238,255)" stroke-width="1.51"/><path d="M315,1063L411,1139L402,1014Z" fill="rgb(193,233,255)" stroke="rgb(193,233,255)" stroke-width="1.51"/><path d="M1808,238L1695,151L1634,274Z" fill="rgb(198,234,255)" stroke="rgb(198,234,255)" stroke-width="1.51"/><path d="M1705,685L1499,598L1457,776Z" fill="rgb(178,228,255)" stroke="rgb(178,228,255)" stroke-width="1.51"/><path d="M411,1139L484,1190L494,1066Z" fill="rgb(190,232,255)" stroke="rgb(190,232,255)" stroke-width="1.51"/><path d="M1395,1004L1574,892L1420,817Z" fill="rgb(169,225,255)" stroke="rgb(169,225,255)" stroke-width="1.51"/><path d="M1655,866L1574,892L1690,976Z" fill="rgb(163,223,255)" stroke="rgb(163,223,255)" stroke-width="1.51"/><path d="M113,230L-70,358L187,459Z" fill="rgb(237,248,255)" stroke="rgb(237,248,255)" stroke-width="1.51"/><path d="M16,38L1,194L164,152Z" fill="rgb(248,253,255)" stroke="rgb(248,253,255)" stroke-width="1.51"/><path d="M1634,274L1695,151L1537,200Z" fill="rgb(201,236,255)" stroke="rgb(201,236,255)" stroke-width="1.51"/><path d="M1808,238L1634,274L1862,382Z" fill="rgb(192,233,255)" stroke="rgb(192,233,255)" stroke-width="1.51"/><path d="M1497,1149L1574,892L1395,1004Z" fill="rgb(162,223,255)" stroke="rgb(162,223,255)" stroke-width="1.51"/><path d="M825,1226L1163,1235L900,1182Z" fill="rgb(175,227,255)" stroke="rgb(175,227,255)" stroke-width="1.51"/><path d="M484,1190L654,1278L665,1089Z" fill="rgb(186,230,255)" stroke="rgb(186,230,255)" stroke-width="1.51"/><path d="M825,1226L1239,1297L1163,1235Z" fill="rgb(171,226,255)" stroke="rgb(171,226,255)" stroke-width="1.51"/><path d="M1862,382L1634,274L1656,447Z" fill="rgb(190,232,255)" stroke="rgb(190,232,255)" stroke-width="1.51"/><path d="M1655,866L1705,685L1457,776Z" fill="rgb(171,226,255)" stroke="rgb(171,226,255)" stroke-width="1.51"/><path d="M178,-94L74,-50L197,-88Z" fill="rgb(251,253,255)" stroke="rgb(251,253,255)" stroke-width="1.51"/><path d="M-21,-147L74,-50L178,-94Z" fill="rgb(253,255,255)" stroke="rgb(253,255,255)" stroke-width="1.51"/><path d="M74,-50L16,38L218,85Z" fill="rgb(252,254,255)" stroke="rgb(252,254,255)" stroke-width="1.51"/><path d="M1,194L-70,358L113,230Z" fill="rgb(243,250,255)" stroke="rgb(243,250,255)" stroke-width="1.51"/><path d="M-82,168L-70,358L1,194Z" fill="rgb(244,251,255)" stroke="rgb(244,251,255)" stroke-width="1.51"/><path d="M1574,892L1655,866L1457,776Z" fill="rgb(169,226,255)" stroke="rgb(169,226,255)" stroke-width="1.51"/><path d="M1437,1187L1325,1055L1275,1115Z" fill="rgb(163,223,255)" stroke="rgb(163,223,255)" stroke-width="1.51"/><path d="M315,1063L331,1251L411,1139Z" fill="rgb(193,233,255)" stroke="rgb(193,233,255)" stroke-width="1.51"/><path d="M121,783L29,866L206,869Z" fill="rgb(212,239,255)" stroke="rgb(212,239,255)" stroke-width="1.51"/><path d="M-112,747L29,866L121,783Z" fill="rgb(217,241,255)" stroke="rgb(217,241,255)" stroke-width="1.51"/><path d="M-112,747L121,783L33,630Z" fill="rgb(220,242,255)" stroke="rgb(220,242,255)" stroke-width="1.51"/><path d="M-70,358L-89,505L187,459Z" fill="rgb(234,247,255)" stroke="rgb(234,247,255)" stroke-width="1.51"/><path d="M29,866L126,1020L206,869Z" fill="rgb(208,238,255)" stroke="rgb(208,238,255)" stroke-width="1.51"/><path d="M411,1139L331,1251L484,1190Z" fill="rgb(192,232,255)" stroke="rgb(192,232,255)" stroke-width="1.51"/><path d="M484,1190L331,1251L654,1278Z" fill="rgb(189,232,255)" stroke="rgb(189,232,255)" stroke-width="1.51"/><path d="M-70,358L-139,335L-89,505Z" fill="rgb(236,248,255)" stroke="rgb(236,248,255)" stroke-width="1.51"/><path d="M16,38L-82,168L1,194Z" fill="rgb(249,252,255)" stroke="rgb(249,252,255)" stroke-width="1.51"/><path d="M-167,112L-82,168L16,38Z" fill="rgb(250,253,255)" stroke="rgb(250,253,255)" stroke-width="1.51"/><path d="M1163,1235L1239,1297L1275,1115Z" fill="rgb(167,224,255)" stroke="rgb(167,224,255)" stroke-width="1.51"/><path d="M654,1278L1239,1297L825,1226Z" fill="rgb(176,227,255)" stroke="rgb(176,227,255)" stroke-width="1.51"/><path d="M1695,151L1719,-33L1457,-33Z" fill="rgb(210,239,255)" stroke="rgb(210,239,255)" stroke-width="1.51"/><path d="M1862,382L1656,447L1699,517Z" fill="rgb(185,230,255)" stroke="rgb(185,230,255)" stroke-width="1.51"/><path d="M1827,58L1719,-33L1695,151Z" fill="rgb(205,237,255)" stroke="rgb(205,237,255)" stroke-width="1.51"/><path d="M1239,1297L1437,1187L1275,1115Z" fill="rgb(163,224,255)" stroke="rgb(163,224,255)" stroke-width="1.51"/><path d="M1437,1187L1497,1149L1395,1004Z" fill="rgb(160,222,255)" stroke="rgb(160,222,255)" stroke-width="1.51"/><path d="M224,1186L331,1251L315,1063Z" fill="rgb(195,233,255)" stroke="rgb(195,233,255)" stroke-width="1.51"/><path d="M-82,168L-139,335L-70,358Z" fill="rgb(242,250,255)" stroke="rgb(242,250,255)" stroke-width="1.51"/><path d="M162,1160L224,1186L315,1063Z" fill="rgb(197,234,255)" stroke="rgb(197,234,255)" stroke-width="1.51"/><path d="M162,1160L315,1063L126,1020Z" fill="rgb(198,234,255)" stroke="rgb(198,234,255)" stroke-width="1.51"/><path d="M1719,-33L1650,-213L1499,-138Z" fill="rgb(211,239,255)" stroke="rgb(211,239,255)" stroke-width="1.51"/><path d="M1499,-138L1650,-213L1247,-186Z" fill="rgb(216,241,255)" stroke="rgb(216,241,255)" stroke-width="1.51"/><path d="M1247,-186L1650,-213L741,-203Z" fill="rgb(223,243,255)" stroke="rgb(223,243,255)" stroke-width="1.51"/><path d="M1808,238L1827,58L1695,151Z" fill="rgb(200,235,255)" stroke="rgb(200,235,255)" stroke-width="1.51"/><path d="M1856,596L1862,382L1699,517Z" fill="rgb(180,229,255)" stroke="rgb(180,229,255)" stroke-width="1.51"/><path d="M1856,596L1699,517L1705,685Z" fill="rgb(177,227,255)" stroke="rgb(177,227,255)" stroke-width="1.51"/><path d="M1655,866L1822,723L1705,685Z" fill="rgb(168,225,255)" stroke="rgb(168,225,255)" stroke-width="1.51"/><path d="M1632,1132L1690,976L1574,892Z" fill="rgb(158,222,255)" stroke="rgb(158,222,255)" stroke-width="1.51"/><path d="M29,866L31,1012L126,1020Z" fill="rgb(207,238,255)" stroke="rgb(207,238,255)" stroke-width="1.51"/><path d="M-99,955L31,1012L29,866Z" fill="rgb(210,239,255)" stroke="rgb(210,239,255)" stroke-width="1.51"/><path d="M-112,747L33,630L-89,505Z" fill="rgb(225,244,255)" stroke="rgb(225,244,255)" stroke-width="1.51"/><path d="M1690,976L1735,913L1655,866Z" fill="rgb(161,223,255)" stroke="rgb(161,223,255)" stroke-width="1.51"/><path d="M-4,1105L162,1160L126,1020Z" fill="rgb(200,235,255)" stroke="rgb(200,235,255)" stroke-width="1.51"/><path d="M224,1186L58,1262L331,1251Z" fill="rgb(197,234,255)" stroke="rgb(197,234,255)" stroke-width="1.51"/><path d="M-229,550L-112,747L-89,505Z" fill="rgb(227,244,255)" stroke="rgb(227,244,255)" stroke-width="1.51"/><path d="M1840,835L1822,723L1655,866Z" fill="rgb(164,224,255)" stroke="rgb(164,224,255)" stroke-width="1.51"/><path d="M1822,723L1856,596L1705,685Z" fill="rgb(172,226,255)" stroke="rgb(172,226,255)" stroke-width="1.51"/><path d="M1239,1297L1456,1243L1437,1187Z" fill="rgb(162,223,255)" stroke="rgb(162,223,255)" stroke-width="1.51"/><path d="M1437,1187L1456,1243L1497,1149Z" fill="rgb(158,222,255)" stroke="rgb(158,222,255)" stroke-width="1.51"/><path d="M1497,1149L1632,1132L1574,892Z" fill="rgb(157,222,255)" stroke="rgb(157,222,255)" stroke-width="1.51"/><path d="M74,-50L-21,-147L16,38Z" fill="rgb(255,255,255)" stroke="rgb(255,255,255)" stroke-width="1.51"/><path d="M-82,168L-214,230L-139,335Z" fill="rgb(244,251,255)" stroke="rgb(244,251,255)" stroke-width="1.51"/><path d="M312,-158L-21,-147L178,-94Z" fill="rgb(251,253,255)" stroke="rgb(251,253,255)" stroke-width="1.51"/><path d="M741,-203L-21,-147L312,-158Z" fill="rgb(246,251,255)" stroke="rgb(246,251,255)" stroke-width="1.51"/><path d="M1887,166L1827,58L1808,238Z" fill="rgb(198,235,255)" stroke="rgb(198,235,255)" stroke-width="1.51"/><path d="M1719,-33L1755,-161L1650,-213Z" fill="rgb(209,238,255)" stroke="rgb(209,238,255)" stroke-width="1.51"/><path d="M-139,335L-229,550L-89,505Z" fill="rgb(233,247,255)" stroke="rgb(233,247,255)" stroke-width="1.51"/><path d="M-181,-15L-167,112L16,38Z" fill="rgb(253,254,255)" stroke="rgb(253,254,255)" stroke-width="1.51"/><path d="M1966,357L1887,166L1808,238Z" fill="rgb(191,232,255)" stroke="rgb(191,232,255)" stroke-width="1.51"/><path d="M1966,357L1808,238L1862,382Z" fill="rgb(187,231,255)" stroke="rgb(187,231,255)" stroke-width="1.51"/><path d="M1641,1235L1632,1132L1497,1149Z" fill="rgb(154,221,255)" stroke="rgb(154,221,255)" stroke-width="1.51"/><path d="M1779,1046L1840,835L1735,913Z" fill="rgb(157,222,255)" stroke="rgb(157,222,255)" stroke-width="1.51"/><path d="M1867,-89L1719,-33L1827,58Z" fill="rgb(206,237,255)" stroke="rgb(206,237,255)" stroke-width="1.51"/><path d="M1867,-89L1755,-161L1719,-33Z" fill="rgb(207,238,255)" stroke="rgb(207,238,255)" stroke-width="1.51"/><path d="M1779,1046L1735,913L1690,976Z" fill="rgb(156,221,255)" stroke="rgb(156,221,255)" stroke-width="1.51"/><path d="M1735,913L1840,835L1655,866Z" fill="rgb(162,223,255)" stroke="rgb(162,223,255)" stroke-width="1.51"/><path d="M1946,645L1941,578L1856,596Z" fill="rgb(171,226,255)" stroke="rgb(171,226,255)" stroke-width="1.51"/><path d="M1856,596L1941,578L1862,382Z" fill="rgb(177,228,255)" stroke="rgb(177,228,255)" stroke-width="1.51"/><path d="M-167,112L-214,230L-82,168Z" fill="rgb(247,252,255)" stroke="rgb(247,252,255)" stroke-width="1.51"/><path d="M-112,747L-99,955L29,866Z" fill="rgb(215,240,255)" stroke="rgb(215,240,255)" stroke-width="1.51"/><path d="M-214,230L-229,550L-139,335Z" fill="rgb(238,248,255)" stroke="rgb(238,248,255)" stroke-width="1.51"/><path d="M31,1012L-4,1105L126,1020Z" fill="rgb(203,236,255)" stroke="rgb(203,236,255)" stroke-width="1.51"/><path d="M-220,775L-99,955L-112,747Z" fill="rgb(216,241,255)" stroke="rgb(216,241,255)" stroke-width="1.51"/><path d="M-99,955L-4,1105L31,1012Z" fill="rgb(206,237,255)" stroke="rgb(206,237,255)" stroke-width="1.51"/><path d="M162,1160L58,1262L224,1186Z" fill="rgb(199,235,255)" stroke="rgb(199,235,255)" stroke-width="1.51"/><path d="M1946,645L1856,596L1822,723Z" fill="rgb(169,226,255)" stroke="rgb(169,226,255)" stroke-width="1.51"/><path d="M-21,-147L-181,-15L16,38Z" fill="rgb(255,255,255)" stroke="rgb(255,255,255)" stroke-width="1.51"/><path d="M-167,112L-181,-15L-214,230Z" fill="rgb(250,253,255)" stroke="rgb(250,253,255)" stroke-width="1.51"/><path d="M1974,-20L1867,-89L1827,58Z" fill="rgb(204,237,255)" stroke="rgb(204,237,255)" stroke-width="1.51"/><path d="M1941,578L1966,357L1862,382Z" fill="rgb(180,229,255)" stroke="rgb(180,229,255)" stroke-width="1.51"/><path d="M1941,578L2119,445L1966,357Z" fill="rgb(179,228,255)" stroke="rgb(179,228,255)" stroke-width="1.51"/><path d="M2027,777L1946,645L1822,723Z" fill="rgb(165,224,255)" stroke="rgb(165,224,255)" stroke-width="1.51"/><path d="M2027,777L2024,605L1946,645Z" fill="rgb(167,225,255)" stroke="rgb(167,225,255)" stroke-width="1.51"/><path d="M1632,1132L1779,1046L1690,976Z" fill="rgb(153,220,255)" stroke="rgb(153,220,255)" stroke-width="1.51"/><path d="M1783,1280L1779,1046L1632,1132Z" fill="rgb(150,220,255)" stroke="rgb(150,220,255)" stroke-width="1.51"/><path d="M-208,1274L26,1177L-4,1105Z" fill="rgb(203,236,255)" stroke="rgb(203,236,255)" stroke-width="1.51"/><path d="M-4,1105L26,1177L162,1160Z" fill="rgb(202,236,255)" stroke="rgb(202,236,255)" stroke-width="1.51"/><path d="M-21,-147L-136,-146L-181,-15Z" fill="rgb(255,255,255)" stroke="rgb(255,255,255)" stroke-width="1.51"/><path d="M741,-203L-136,-146L-21,-147Z" fill="rgb(250,253,255)" stroke="rgb(250,253,255)" stroke-width="1.51"/><path d="M1974,-20L1827,58L1887,166Z" fill="rgb(201,235,255)" stroke="rgb(201,235,255)" stroke-width="1.51"/><path d="M-229,550L-220,775L-112,747Z" fill="rgb(223,243,255)" stroke="rgb(223,243,255)" stroke-width="1.51"/><path d="M-208,1274L58,1262L26,1177Z" fill="rgb(203,236,255)" stroke="rgb(203,236,255)" stroke-width="1.51"/><path d="M1783,1280L1641,1235L1456,1243Z" fill="rgb(153,221,255)" stroke="rgb(153,221,255)" stroke-width="1.51"/><path d="M1456,1243L1641,1235L1497,1149Z" fill="rgb(156,221,255)" stroke="rgb(156,221,255)" stroke-width="1.51"/><path d="M1966,357L1996,199L1887,166Z" fill="rgb(191,232,255)" stroke="rgb(191,232,255)" stroke-width="1.51"/><path d="M2143,250L1996,199L1966,357Z" fill="rgb(189,232,255)" stroke="rgb(189,232,255)" stroke-width="1.51"/><path d="M-228,1087L-4,1105L-99,955Z" fill="rgb(205,237,255)" stroke="rgb(205,237,255)" stroke-width="1.51"/><path d="M26,1177L58,1262L162,1160Z" fill="rgb(201,235,255)" stroke="rgb(201,235,255)" stroke-width="1.51"/><path d="M331,1251L58,1262L654,1278Z" fill="rgb(193,233,255)" stroke="rgb(193,233,255)" stroke-width="1.51"/><path d="M654,1278L-208,1274L1239,1297Z" fill="rgb(187,231,255)" stroke="rgb(187,231,255)" stroke-width="1.51"/><path d="M1946,645L2024,605L1941,578Z" fill="rgb(171,226,255)" stroke="rgb(171,226,255)" stroke-width="1.51"/><path d="M2027,777L1822,723L1840,835Z" fill="rgb(162,223,255)" stroke="rgb(162,223,255)" stroke-width="1.51"/><path d="M1911,1057L1954,880L1840,835Z" fill="rgb(153,220,255)" stroke="rgb(153,220,255)" stroke-width="1.51"/><path d="M1911,1057L1840,835L1779,1046Z" fill="rgb(152,220,255)" stroke="rgb(152,220,255)" stroke-width="1.51"/><path d="M1996,199L1974,-20L1887,166Z" fill="rgb(197,234,255)" stroke="rgb(197,234,255)" stroke-width="1.51"/><path d="M1954,880L2027,777L1840,835Z" fill="rgb(158,222,255)" stroke="rgb(158,222,255)" stroke-width="1.51"/><path d="M1954,880L2000,913L2027,777Z" fill="rgb(157,222,255)" stroke="rgb(157,222,255)" stroke-width="1.51"/><path d="M1783,1280L1911,1057L1779,1046Z" fill="rgb(147,219,255)" stroke="rgb(147,219,255)" stroke-width="1.51"/><path d="M1911,1057L2000,913L1954,880Z" fill="rgb(151,220,255)" stroke="rgb(151,220,255)" stroke-width="1.51"/><path d="M1996,199L2052,4L1974,-20Z" fill="rgb(200,235,255)" stroke="rgb(200,235,255)" stroke-width="1.51"/><path d="M1974,-20L1975,-219L1867,-89Z" fill="rgb(203,236,255)" stroke="rgb(203,236,255)" stroke-width="1.51"/><path d="M1867,-89L1975,-219L1755,-161Z" fill="rgb(205,237,255)" stroke="rgb(205,237,255)" stroke-width="1.51"/><path d="M2116,51L2052,4L1996,199Z" fill="rgb(199,235,255)" stroke="rgb(199,235,255)" stroke-width="1.51"/><path d="M2119,445L1941,578L2024,605Z" fill="rgb(175,227,255)" stroke="rgb(175,227,255)" stroke-width="1.51"/><path d="M2135,683L2119,445L2024,605Z" fill="rgb(172,226,255)" stroke="rgb(172,226,255)" stroke-width="1.51"/><path d="M2135,683L2024,605L2027,777Z" fill="rgb(167,224,255)" stroke="rgb(167,224,255)" stroke-width="1.51"/><path d="M-229,550L-228,1087L-220,775Z" fill="rgb(217,241,255)" stroke="rgb(217,241,255)" stroke-width="1.51"/><path d="M-220,775L-228,1087L-99,955Z" fill="rgb(210,239,255)" stroke="rgb(210,239,255)" stroke-width="1.51"/><path d="M1239,1297L1783,1280L1456,1243Z" fill="rgb(157,222,255)" stroke="rgb(157,222,255)" stroke-width="1.51"/><path d="M1641,1235L1783,1280L1632,1132Z" fill="rgb(151,220,255)" stroke="rgb(151,220,255)" stroke-width="1.51"/><path d="M1911,1057L2134,1019L2000,913Z" fill="rgb(148,219,255)" stroke="rgb(148,219,255)" stroke-width="1.51"/><path d="M2078,-190L1975,-219L1974,-20Z" fill="rgb(203,236,255)" stroke="rgb(203,236,255)" stroke-width="1.51"/><path d="M1755,-161L1975,-219L1650,-213Z" fill="rgb(207,237,255)" stroke="rgb(207,237,255)" stroke-width="1.51"/><path d="M1650,-213L1975,-219L741,-203Z" fill="rgb(216,241,255)" stroke="rgb(216,241,255)" stroke-width="1.51"/><path d="M2052,4L2078,-190L1974,-20Z" fill="rgb(203,236,255)" stroke="rgb(203,236,255)" stroke-width="1.51"/><path d="M2119,445L2143,250L1966,357Z" fill="rgb(185,230,255)" stroke="rgb(185,230,255)" stroke-width="1.51"/><path d="M2119,445L2135,683L2143,250Z" fill="rgb(179,228,255)" stroke="rgb(179,228,255)" stroke-width="1.51"/><path d="M2134,1019L2135,683L2027,777Z" fill="rgb(158,222,255)" stroke="rgb(158,222,255)" stroke-width="1.51"/><path d="M2143,250L2116,51L1996,199Z" fill="rgb(194,233,255)" stroke="rgb(194,233,255)" stroke-width="1.51"/><path d="M2116,51L2078,-190L2052,4Z" fill="rgb(203,236,255)" stroke="rgb(203,236,255)" stroke-width="1.51"/><path d="M-228,1087L-208,1274L-4,1105Z" fill="rgb(203,236,255)" stroke="rgb(203,236,255)" stroke-width="1.51"/><path d="M58,1262L-208,1274L654,1278Z" fill="rgb(198,235,255)" stroke="rgb(198,235,255)" stroke-width="1.51"/><path d="M2000,913L2134,1019L2027,777Z" fill="rgb(154,221,255)" stroke="rgb(154,221,255)" stroke-width="1.51"/><path d="M2135,683L2149,1290L2143,250Z" fill="rgb(163,224,255)" stroke="rgb(163,224,255)" stroke-width="1.51"/><path d="M2104,1153L2134,1019L1911,1057Z" fill="rgb(143,218,255)" stroke="rgb(143,218,255)" stroke-width="1.51"/><path d="M2009,1299L2104,1153L1911,1057Z" fill="rgb(143,218,255)" stroke="rgb(143,218,255)" stroke-width="1.51"/><path d="M1783,1280L2009,1299L1911,1057Z" fill="rgb(144,218,255)" stroke="rgb(144,218,255)" stroke-width="1.51"/><path d="M1239,1297L2009,1299L1783,1280Z" fill="rgb(152,220,255)" stroke="rgb(152,220,255)" stroke-width="1.51"/><path d="M2009,1299L2149,1290L2104,1153Z" fill="rgb(143,218,255)" stroke="rgb(143,218,255)" stroke-width="1.51"/><path d="M2104,1153L2149,1290L2134,1019Z" fill="rgb(143,218,255)" stroke="rgb(143,218,255)" stroke-width="1.51"/><path d="M2134,1019L2149,1290L2135,683Z" fill="rgb(148,219,255)" stroke="rgb(148,219,255)" stroke-width="1.51"/></svg>