<?xml version="1.0" encoding="iso-8859-1"?>
<!-- Generator: Adobe Illustrator 19.0.0, SVG Export Plug-In . SVG Version: 6.00 Build 0)  -->
<svg version="1.1" id="Layer_1" xmlns="http://www.w3.org/2000/svg" xmlns:xlink="http://www.w3.org/1999/xlink" x="0px" y="0px"
	 viewBox="0 0 512 512" style="enable-background:new 0 0 512 512;" xml:space="preserve">
<g>
	<g>
		<path style="fill:#231F20;" d="M498.05,72.452c-0.169-0.287-0.32-0.582-0.505-0.865c-0.129-0.198-0.277-0.373-0.411-0.565
			c-15.838-23.653-42.796-39.26-73.335-39.26H88.203c-30.54,0-57.499,15.608-73.335,39.26c-0.135,0.192-0.283,0.367-0.411,0.565
			c-0.185,0.283-0.336,0.576-0.505,0.865C5.137,86.176,0,102.478,0,119.966v192.679c0,14.982,3.766,29.097,10.384,41.467
			c0.057,0.122,0.127,0.24,0.186,0.363c0.048,0.09,0.094,0.179,0.142,0.268c0.324,0.637,0.683,1.26,1.077,1.869
			c15.255,26.411,43.783,44.237,76.414,44.237h68.395l75.883,73.899c12.196,11.883,32.752,3.204,32.752-13.821v-22.251h84.429
			c10.656,0,19.292-8.638,19.292-19.292v-79.743c0-10.656-8.638-19.292-19.292-19.292h-84.429v-22.253
			c0-17.109-20.595-25.661-32.752-13.821l-75.88,73.899H88.203c-11.198,0-21.458-4.072-29.396-10.802l140.826-129.077l22.708,14.862
			c20.442,13.378,46.864,13.384,67.313,0l22.709-14.864l140.826,129.077c-14.201,12.041-28.232,10.802-38.203,10.802
			c-11.785,0-21.339,9.554-21.339,21.34c0,11.785,9.554,21.339,21.339,21.339C486.992,400.848,512,349.743,512,312.643V119.966
			C512,102.478,506.863,86.177,498.05,72.452z M42.679,304.257V119.966c0-1.44,0.075-2.862,0.206-4.269l119.899,78.475
			L42.679,304.257z M266.284,197.443c-6.247,4.089-14.32,4.089-20.568,0L66.346,80.044c6.493-3.569,13.942-5.604,21.857-5.604
			h335.594c7.917,0,15.366,2.034,21.857,5.604L266.284,197.443z M469.321,304.258L349.215,194.174l119.9-78.477
			c0.131,1.407,0.206,2.828,0.206,4.269V304.258z"/>
	</g>
</g>
<g>
</g>
<g>
</g>
<g>
</g>
<g>
</g>
<g>
</g>
<g>
</g>
<g>
</g>
<g>
</g>
<g>
</g>
<g>
</g>
<g>
</g>
<g>
</g>
<g>
</g>
<g>
</g>
<g>
</g>
</svg>
