<svg xmlns="http://www.w3.org/2000/svg" width="1920" height="1080"><path d="M891,534L915,337L833,496Z" fill="rgb(134,164,136)" stroke="rgb(134,164,136)" stroke-width="1.51"/><path d="M1099,500L956,313L915,337Z" fill="rgb(135,164,137)" stroke="rgb(135,164,137)" stroke-width="1.51"/><path d="M915,337L763,347L833,496Z" fill="rgb(144,171,141)" stroke="rgb(144,171,141)" stroke-width="1.51"/><path d="M817,272L763,347L915,337Z" fill="rgb(153,178,144)" stroke="rgb(153,178,144)" stroke-width="1.51"/><path d="M956,313L817,272L915,337Z" fill="rgb(150,176,143)" stroke="rgb(150,176,143)" stroke-width="1.51"/><path d="M891,534L1099,500L915,337Z" fill="rgb(128,159,133)" stroke="rgb(128,159,133)" stroke-width="1.51"/><path d="M891,534L1010,624L1099,500Z" fill="rgb(114,149,128)" stroke="rgb(114,149,128)" stroke-width="1.51"/><path d="M824,705L1010,624L891,534Z" fill="rgb(112,147,127)" stroke="rgb(112,147,127)" stroke-width="1.51"/><path d="M763,347L720,334L833,496Z" fill="rgb(149,174,143)" stroke="rgb(149,174,143)" stroke-width="1.51"/><path d="M704,304L720,334L763,347Z" fill="rgb(159,182,147)" stroke="rgb(159,182,147)" stroke-width="1.51"/><path d="M1099,500L1130,323L956,313Z" fill="rgb(131,160,134)" stroke="rgb(131,160,134)" stroke-width="1.51"/><path d="M956,313L935,78L817,272Z" fill="rgb(159,182,147)" stroke="rgb(159,182,147)" stroke-width="1.51"/><path d="M817,272L704,304L763,347Z" fill="rgb(159,182,147)" stroke="rgb(159,182,147)" stroke-width="1.51"/><path d="M1099,500L1161,335L1130,323Z" fill="rgb(125,156,132)" stroke="rgb(125,156,132)" stroke-width="1.51"/><path d="M833,496L824,705L891,534Z" fill="rgb(121,154,131)" stroke="rgb(121,154,131)" stroke-width="1.51"/><path d="M612,571L824,705L833,496Z" fill="rgb(126,157,132)" stroke="rgb(126,157,132)" stroke-width="1.51"/><path d="M612,571L833,496L720,334Z" fill="rgb(143,170,140)" stroke="rgb(143,170,140)" stroke-width="1.51"/><path d="M1099,500L1198,476L1161,335Z" fill="rgb(117,150,128)" stroke="rgb(117,150,128)" stroke-width="1.51"/><path d="M1256,690L1198,476L1099,500Z" fill="rgb(100,139,121)" stroke="rgb(100,139,121)" stroke-width="1.51"/><path d="M1161,335L1084,179L1130,323Z" fill="rgb(138,165,137)" stroke="rgb(138,165,137)" stroke-width="1.51"/><path d="M1130,323L1084,179L956,313Z" fill="rgb(143,170,140)" stroke="rgb(143,170,140)" stroke-width="1.51"/><path d="M817,272L757,146L704,304Z" fill="rgb(167,188,150)" stroke="rgb(167,188,150)" stroke-width="1.51"/><path d="M563,434L612,571L720,334Z" fill="rgb(151,176,143)" stroke="rgb(151,176,143)" stroke-width="1.51"/><path d="M935,78L757,146L817,272Z" fill="rgb(170,190,151)" stroke="rgb(170,190,151)" stroke-width="1.51"/><path d="M704,304L563,434L720,334Z" fill="rgb(160,182,148)" stroke="rgb(160,182,148)" stroke-width="1.51"/><path d="M1198,476L1251,434L1161,335Z" fill="rgb(116,150,128)" stroke="rgb(116,150,128)" stroke-width="1.51"/><path d="M1161,335L1304,317L1084,179Z" fill="rgb(134,162,135)" stroke="rgb(134,162,135)" stroke-width="1.51"/><path d="M567,207L563,434L704,304Z" fill="rgb(169,188,151)" stroke="rgb(169,188,151)" stroke-width="1.51"/><path d="M1084,179L935,78L956,313Z" fill="rgb(157,180,146)" stroke="rgb(157,180,146)" stroke-width="1.51"/><path d="M824,705L1030,831L1010,624Z" fill="rgb(96,135,119)" stroke="rgb(96,135,119)" stroke-width="1.51"/><path d="M1010,624L1133,735L1099,500Z" fill="rgb(100,138,121)" stroke="rgb(100,138,121)" stroke-width="1.51"/><path d="M1198,476L1407,489L1251,434Z" fill="rgb(104,141,123)" stroke="rgb(104,141,123)" stroke-width="1.51"/><path d="M632,732L822,785L824,705Z" fill="rgb(106,142,124)" stroke="rgb(106,142,124)" stroke-width="1.51"/><path d="M1030,831L1133,735L1010,624Z" fill="rgb(87,128,116)" stroke="rgb(87,128,116)" stroke-width="1.51"/><path d="M757,146L627,185L704,304Z" fill="rgb(174,193,153)" stroke="rgb(174,193,153)" stroke-width="1.51"/><path d="M562,8L627,185L757,146Z" fill="rgb(188,203,159)" stroke="rgb(188,203,159)" stroke-width="1.51"/><path d="M612,571L632,732L824,705Z" fill="rgb(120,153,130)" stroke="rgb(120,153,130)" stroke-width="1.51"/><path d="M563,434L564,594L612,571Z" fill="rgb(144,171,141)" stroke="rgb(144,171,141)" stroke-width="1.51"/><path d="M935,78L895,45L757,146Z" fill="rgb(176,195,154)" stroke="rgb(176,195,154)" stroke-width="1.51"/><path d="M980,-108L895,45L935,78Z" fill="rgb(179,197,156)" stroke="rgb(179,197,156)" stroke-width="1.51"/><path d="M556,696L632,732L612,571Z" fill="rgb(127,157,132)" stroke="rgb(127,157,132)" stroke-width="1.51"/><path d="M1251,434L1304,317L1161,335Z" fill="rgb(120,152,130)" stroke="rgb(120,152,130)" stroke-width="1.51"/><path d="M1084,179L1080,19L935,78Z" fill="rgb(164,185,149)" stroke="rgb(164,185,149)" stroke-width="1.51"/><path d="M1381,406L1304,317L1251,434Z" fill="rgb(112,146,126)" stroke="rgb(112,146,126)" stroke-width="1.51"/><path d="M822,785L1030,831L824,705Z" fill="rgb(93,133,118)" stroke="rgb(93,133,118)" stroke-width="1.51"/><path d="M627,185L567,207L704,304Z" fill="rgb(176,194,154)" stroke="rgb(176,194,154)" stroke-width="1.51"/><path d="M520,151L567,207L627,185Z" fill="rgb(186,201,158)" stroke="rgb(186,201,158)" stroke-width="1.51"/><path d="M1254,770L1256,690L1133,735Z" fill="rgb(76,119,110)" stroke="rgb(76,119,110)" stroke-width="1.51"/><path d="M1133,735L1256,690L1099,500Z" fill="rgb(91,131,118)" stroke="rgb(91,131,118)" stroke-width="1.51"/><path d="M822,785L918,878L1030,831Z" fill="rgb(85,127,115)" stroke="rgb(85,127,115)" stroke-width="1.51"/><path d="M912,908L918,878L822,785Z" fill="rgb(87,128,115)" stroke="rgb(87,128,115)" stroke-width="1.51"/><path d="M725,948L912,908L822,785Z" fill="rgb(91,130,117)" stroke="rgb(91,130,117)" stroke-width="1.51"/><path d="M564,594L556,696L612,571Z" fill="rgb(134,163,136)" stroke="rgb(134,163,136)" stroke-width="1.51"/><path d="M458,644L556,696L564,594Z" fill="rgb(135,163,136)" stroke="rgb(135,163,136)" stroke-width="1.51"/><path d="M454,497L564,594L563,434Z" fill="rgb(151,176,143)" stroke="rgb(151,176,143)" stroke-width="1.51"/><path d="M1294,64L1080,19L1084,179Z" fill="rgb(156,178,145)" stroke="rgb(156,178,145)" stroke-width="1.51"/><path d="M381,303L454,497L563,434Z" fill="rgb(167,187,150)" stroke="rgb(167,187,150)" stroke-width="1.51"/><path d="M895,45L829,-20L757,146Z" fill="rgb(182,199,156)" stroke="rgb(182,199,156)" stroke-width="1.51"/><path d="M980,-108L829,-20L895,45Z" fill="rgb(182,200,157)" stroke="rgb(182,200,157)" stroke-width="1.51"/><path d="M1304,317L1294,64L1084,179Z" fill="rgb(140,166,138)" stroke="rgb(140,166,138)" stroke-width="1.51"/><path d="M1407,489L1381,406L1251,434Z" fill="rgb(102,139,122)" stroke="rgb(102,139,122)" stroke-width="1.51"/><path d="M918,878L912,908L1030,831Z" fill="rgb(82,124,113)" stroke="rgb(82,124,113)" stroke-width="1.51"/><path d="M1206,891L1254,770L1133,735Z" fill="rgb(67,114,107)" stroke="rgb(67,114,107)" stroke-width="1.51"/><path d="M618,812L822,785L632,732Z" fill="rgb(106,142,124)" stroke="rgb(106,142,124)" stroke-width="1.51"/><path d="M1414,627L1407,489L1198,476Z" fill="rgb(92,133,118)" stroke="rgb(92,133,118)" stroke-width="1.51"/><path d="M1206,891L1133,735L1030,831Z" fill="rgb(71,117,109)" stroke="rgb(71,117,109)" stroke-width="1.51"/><path d="M544,815L618,812L632,732Z" fill="rgb(112,145,126)" stroke="rgb(112,145,126)" stroke-width="1.51"/><path d="M567,207L381,303L563,434Z" fill="rgb(176,194,154)" stroke="rgb(176,194,154)" stroke-width="1.51"/><path d="M562,8L520,151L627,185Z" fill="rgb(193,207,161)" stroke="rgb(193,207,161)" stroke-width="1.51"/><path d="M1414,627L1198,476L1256,690Z" fill="rgb(87,128,116)" stroke="rgb(87,128,116)" stroke-width="1.51"/><path d="M556,696L544,815L632,732Z" fill="rgb(118,150,128)" stroke="rgb(118,150,128)" stroke-width="1.51"/><path d="M454,497L458,644L564,594Z" fill="rgb(144,171,141)" stroke="rgb(144,171,141)" stroke-width="1.51"/><path d="M463,847L544,815L556,696Z" fill="rgb(117,149,128)" stroke="rgb(117,149,128)" stroke-width="1.51"/><path d="M618,812L725,948L822,785Z" fill="rgb(99,135,120)" stroke="rgb(99,135,120)" stroke-width="1.51"/><path d="M1407,202L1294,64L1304,317Z" fill="rgb(132,160,135)" stroke="rgb(132,160,135)" stroke-width="1.51"/><path d="M1407,202L1304,317L1381,406Z" fill="rgb(117,149,128)" stroke="rgb(117,149,128)" stroke-width="1.51"/><path d="M1443,815L1414,627L1256,690Z" fill="rgb(66,113,106)" stroke="rgb(66,113,106)" stroke-width="1.51"/><path d="M1104,951L1206,891L1030,831Z" fill="rgb(69,115,108)" stroke="rgb(69,115,108)" stroke-width="1.51"/><path d="M1254,770L1443,815L1256,690Z" fill="rgb(64,111,106)" stroke="rgb(64,111,106)" stroke-width="1.51"/><path d="M487,892L725,948L618,812Z" fill="rgb(105,139,123)" stroke="rgb(105,139,123)" stroke-width="1.51"/><path d="M912,908L1104,951L1030,831Z" fill="rgb(77,120,111)" stroke="rgb(77,120,111)" stroke-width="1.51"/><path d="M1467,438L1381,406L1407,489Z" fill="rgb(97,135,119)" stroke="rgb(97,135,119)" stroke-width="1.51"/><path d="M1519,258L1407,202L1381,406Z" fill="rgb(114,147,127)" stroke="rgb(114,147,127)" stroke-width="1.51"/><path d="M1086,1037L1104,951L1020,1058Z" fill="rgb(68,113,107)" stroke="rgb(68,113,107)" stroke-width="1.51"/><path d="M520,151L381,303L567,207Z" fill="rgb(187,202,158)" stroke="rgb(187,202,158)" stroke-width="1.51"/><path d="M454,497L327,636L458,644Z" fill="rgb(148,173,142)" stroke="rgb(148,173,142)" stroke-width="1.51"/><path d="M1080,19L980,-108L935,78Z" fill="rgb(176,195,154)" stroke="rgb(176,195,154)" stroke-width="1.51"/><path d="M829,-20L682,-66L757,146Z" fill="rgb(191,205,160)" stroke="rgb(191,205,160)" stroke-width="1.51"/><path d="M1096,-167L980,-108L1080,19Z" fill="rgb(172,191,152)" stroke="rgb(172,191,152)" stroke-width="1.51"/><path d="M842,-138L682,-66L829,-20Z" fill="rgb(191,205,160)" stroke="rgb(191,205,160)" stroke-width="1.51"/><path d="M520,151L368,151L381,303Z" fill="rgb(193,207,161)" stroke="rgb(193,207,161)" stroke-width="1.51"/><path d="M1475,520L1467,438L1407,489Z" fill="rgb(91,131,117)" stroke="rgb(91,131,117)" stroke-width="1.51"/><path d="M682,-66L562,8L757,146Z" fill="rgb(196,209,162)" stroke="rgb(196,209,162)" stroke-width="1.51"/><path d="M381,303L352,426L454,497Z" fill="rgb(171,190,152)" stroke="rgb(171,190,152)" stroke-width="1.51"/><path d="M1414,627L1475,520L1407,489Z" fill="rgb(84,126,114)" stroke="rgb(84,126,114)" stroke-width="1.51"/><path d="M1294,64L1302,19L1080,19Z" fill="rgb(156,178,145)" stroke="rgb(156,178,145)" stroke-width="1.51"/><path d="M1372,94L1302,19L1294,64Z" fill="rgb(147,171,141)" stroke="rgb(147,171,141)" stroke-width="1.51"/><path d="M1407,202L1372,94L1294,64Z" fill="rgb(137,164,137)" stroke="rgb(137,164,137)" stroke-width="1.51"/><path d="M725,948L779,999L912,908Z" fill="rgb(89,128,116)" stroke="rgb(89,128,116)" stroke-width="1.51"/><path d="M654,1065L779,999L725,948Z" fill="rgb(94,130,117)" stroke="rgb(94,130,117)" stroke-width="1.51"/><path d="M980,-108L842,-138L829,-20Z" fill="rgb(183,200,157)" stroke="rgb(183,200,157)" stroke-width="1.51"/><path d="M544,815L487,892L618,812Z" fill="rgb(111,144,125)" stroke="rgb(111,144,125)" stroke-width="1.51"/><path d="M458,644L463,847L556,696Z" fill="rgb(126,156,132)" stroke="rgb(126,156,132)" stroke-width="1.51"/><path d="M327,636L463,847L458,644Z" fill="rgb(133,161,135)" stroke="rgb(133,161,135)" stroke-width="1.51"/><path d="M562,8L368,151L520,151Z" fill="rgb(200,212,164)" stroke="rgb(200,212,164)" stroke-width="1.51"/><path d="M381,303L305,325L352,426Z" fill="rgb(181,198,156)" stroke="rgb(181,198,156)" stroke-width="1.51"/><path d="M277,499L327,636L454,497Z" fill="rgb(157,181,146)" stroke="rgb(157,181,146)" stroke-width="1.51"/><path d="M368,151L305,325L381,303Z" fill="rgb(191,205,160)" stroke="rgb(191,205,160)" stroke-width="1.51"/><path d="M277,499L454,497L352,426Z" fill="rgb(165,187,150)" stroke="rgb(165,187,150)" stroke-width="1.51"/><path d="M463,847L487,892L544,815Z" fill="rgb(114,145,126)" stroke="rgb(114,145,126)" stroke-width="1.51"/><path d="M331,893L487,892L463,847Z" fill="rgb(117,148,128)" stroke="rgb(117,148,128)" stroke-width="1.51"/><path d="M1104,951L1200,1104L1206,891Z" fill="rgb(62,108,104)" stroke="rgb(62,108,104)" stroke-width="1.51"/><path d="M1020,1058L1104,951L912,908Z" fill="rgb(74,117,110)" stroke="rgb(74,117,110)" stroke-width="1.51"/><path d="M779,999L1020,1058L912,908Z" fill="rgb(81,122,112)" stroke="rgb(81,122,112)" stroke-width="1.51"/><path d="M1248,-106L1096,-167L1080,19Z" fill="rgb(165,186,149)" stroke="rgb(165,186,149)" stroke-width="1.51"/><path d="M980,-108L1096,-167L842,-138Z" fill="rgb(177,196,155)" stroke="rgb(177,196,155)" stroke-width="1.51"/><path d="M1630,254L1519,258L1677,336Z" fill="rgb(112,144,125)" stroke="rgb(112,144,125)" stroke-width="1.51"/><path d="M1467,438L1519,258L1381,406Z" fill="rgb(105,139,123)" stroke="rgb(105,139,123)" stroke-width="1.51"/><path d="M1407,202L1543,173L1372,94Z" fill="rgb(128,157,133)" stroke="rgb(128,157,133)" stroke-width="1.51"/><path d="M1302,19L1248,-106L1080,19Z" fill="rgb(160,182,147)" stroke="rgb(160,182,147)" stroke-width="1.51"/><path d="M1372,94L1329,-40L1302,19Z" fill="rgb(149,172,142)" stroke="rgb(149,172,142)" stroke-width="1.51"/><path d="M1345,-111L1329,-40L1547,-123Z" fill="rgb(146,171,140)" stroke="rgb(146,171,140)" stroke-width="1.51"/><path d="M1329,-40L1248,-106L1302,19Z" fill="rgb(155,177,144)" stroke="rgb(155,177,144)" stroke-width="1.51"/><path d="M255,459L277,499L352,426Z" fill="rgb(171,190,152)" stroke="rgb(171,190,152)" stroke-width="1.51"/><path d="M1453,859L1254,770L1206,891Z" fill="rgb(57,106,103)" stroke="rgb(57,106,103)" stroke-width="1.51"/><path d="M1453,859L1443,815L1254,770Z" fill="rgb(52,103,101)" stroke="rgb(52,103,101)" stroke-width="1.51"/><path d="M1414,627L1541,712L1475,520Z" fill="rgb(73,118,109)" stroke="rgb(73,118,109)" stroke-width="1.51"/><path d="M1630,254L1543,173L1519,258Z" fill="rgb(118,149,128)" stroke="rgb(118,149,128)" stroke-width="1.51"/><path d="M73,691L195,754L327,636Z" fill="rgb(147,172,141)" stroke="rgb(147,172,141)" stroke-width="1.51"/><path d="M305,325L255,459L352,426Z" fill="rgb(177,195,155)" stroke="rgb(177,195,155)" stroke-width="1.51"/><path d="M185,381L255,459L305,325Z" fill="rgb(182,199,157)" stroke="rgb(182,199,157)" stroke-width="1.51"/><path d="M779,999L798,1128L1020,1058Z" fill="rgb(81,121,112)" stroke="rgb(81,121,112)" stroke-width="1.51"/><path d="M487,892L654,1065L725,948Z" fill="rgb(101,135,121)" stroke="rgb(101,135,121)" stroke-width="1.51"/><path d="M1519,258L1467,438L1677,336Z" fill="rgb(105,140,123)" stroke="rgb(105,140,123)" stroke-width="1.51"/><path d="M1519,258L1543,173L1407,202Z" fill="rgb(122,151,130)" stroke="rgb(122,151,130)" stroke-width="1.51"/><path d="M1443,815L1541,712L1414,627Z" fill="rgb(60,108,103)" stroke="rgb(60,108,103)" stroke-width="1.51"/><path d="M1392,1015L1453,859L1206,891Z" fill="rgb(50,101,100)" stroke="rgb(50,101,100)" stroke-width="1.51"/><path d="M1596,754L1541,712L1443,815Z" fill="rgb(52,103,101)" stroke="rgb(52,103,101)" stroke-width="1.51"/><path d="M682,-66L602,-213L562,8Z" fill="rgb(202,214,165)" stroke="rgb(202,214,165)" stroke-width="1.51"/><path d="M562,8L392,-64L368,151Z" fill="rgb(210,219,168)" stroke="rgb(210,219,168)" stroke-width="1.51"/><path d="M842,-138L714,-228L682,-66Z" fill="rgb(193,207,161)" stroke="rgb(193,207,161)" stroke-width="1.51"/><path d="M1096,-167L714,-228L842,-138Z" fill="rgb(183,200,157)" stroke="rgb(183,200,157)" stroke-width="1.51"/><path d="M1566,7L1329,-40L1372,94Z" fill="rgb(144,168,139)" stroke="rgb(144,168,139)" stroke-width="1.51"/><path d="M1329,-40L1345,-111L1248,-106Z" fill="rgb(154,176,143)" stroke="rgb(154,176,143)" stroke-width="1.51"/><path d="M1248,-106L1345,-111L1096,-167Z" fill="rgb(159,181,146)" stroke="rgb(159,181,146)" stroke-width="1.51"/><path d="M654,1065L798,1128L779,999Z" fill="rgb(90,127,116)" stroke="rgb(90,127,116)" stroke-width="1.51"/><path d="M714,-228L602,-213L682,-66Z" fill="rgb(199,211,163)" stroke="rgb(199,211,163)" stroke-width="1.51"/><path d="M116,252L185,381L305,325Z" fill="rgb(193,207,161)" stroke="rgb(193,207,161)" stroke-width="1.51"/><path d="M602,-213L392,-64L562,8Z" fill="rgb(209,218,168)" stroke="rgb(209,218,168)" stroke-width="1.51"/><path d="M1086,1037L1200,1104L1104,951Z" fill="rgb(63,109,105)" stroke="rgb(63,109,105)" stroke-width="1.51"/><path d="M1052,1241L1200,1104L1086,1037Z" fill="rgb(62,108,104)" stroke="rgb(62,108,104)" stroke-width="1.51"/><path d="M1052,1241L1086,1037L1020,1058Z" fill="rgb(67,111,106)" stroke="rgb(67,111,106)" stroke-width="1.51"/><path d="M212,154L305,325L368,151Z" fill="rgb(200,211,164)" stroke="rgb(200,211,164)" stroke-width="1.51"/><path d="M118,759L195,754L73,691Z" fill="rgb(146,170,141)" stroke="rgb(146,170,141)" stroke-width="1.51"/><path d="M1677,336L1467,438L1715,543Z" fill="rgb(92,130,117)" stroke="rgb(92,130,117)" stroke-width="1.51"/><path d="M1543,173L1566,7L1372,94Z" fill="rgb(134,160,135)" stroke="rgb(134,160,135)" stroke-width="1.51"/><path d="M487,892L590,1133L654,1065Z" fill="rgb(102,136,121)" stroke="rgb(102,136,121)" stroke-width="1.51"/><path d="M327,636L331,893L463,847Z" fill="rgb(125,154,131)" stroke="rgb(125,154,131)" stroke-width="1.51"/><path d="M195,754L331,893L327,636Z" fill="rgb(134,161,136)" stroke="rgb(134,161,136)" stroke-width="1.51"/><path d="M1200,1104L1325,1052L1206,891Z" fill="rgb(55,103,101)" stroke="rgb(55,103,101)" stroke-width="1.51"/><path d="M1325,1052L1392,1015L1206,891Z" fill="rgb(51,101,99)" stroke="rgb(51,101,99)" stroke-width="1.51"/><path d="M1453,859L1596,754L1443,815Z" fill="rgb(46,99,99)" stroke="rgb(46,99,99)" stroke-width="1.51"/><path d="M1656,749L1596,754L1672,1002Z" fill="rgb(41,95,97)" stroke="rgb(41,95,97)" stroke-width="1.51"/><path d="M1715,543L1467,438L1475,520Z" fill="rgb(87,127,115)" stroke="rgb(87,127,115)" stroke-width="1.51"/><path d="M276,-81L212,154L368,151Z" fill="rgb(215,223,170)" stroke="rgb(215,223,170)" stroke-width="1.51"/><path d="M369,1093L590,1133L487,892Z" fill="rgb(108,140,124)" stroke="rgb(108,140,124)" stroke-width="1.51"/><path d="M654,1065L711,1199L798,1128Z" fill="rgb(90,127,116)" stroke="rgb(90,127,116)" stroke-width="1.51"/><path d="M1715,543L1475,520L1541,712Z" fill="rgb(74,119,110)" stroke="rgb(74,119,110)" stroke-width="1.51"/><path d="M1685,120L1543,173L1630,254Z" fill="rgb(122,151,129)" stroke="rgb(122,151,129)" stroke-width="1.51"/><path d="M1653,47L1566,7L1543,173Z" fill="rgb(134,159,134)" stroke="rgb(134,159,134)" stroke-width="1.51"/><path d="M327,636L277,499L73,691Z" fill="rgb(157,180,146)" stroke="rgb(157,180,146)" stroke-width="1.51"/><path d="M590,1133L711,1199L654,1065Z" fill="rgb(95,130,118)" stroke="rgb(95,130,118)" stroke-width="1.51"/><path d="M798,1128L956,1242L1020,1058Z" fill="rgb(77,118,110)" stroke="rgb(77,118,110)" stroke-width="1.51"/><path d="M1596,754L1656,749L1541,712Z" fill="rgb(54,104,101)" stroke="rgb(54,104,101)" stroke-width="1.51"/><path d="M1537,1011L1596,754L1453,859Z" fill="rgb(43,96,97)" stroke="rgb(43,96,97)" stroke-width="1.51"/><path d="M846,1259L956,1242L798,1128Z" fill="rgb(81,121,112)" stroke="rgb(81,121,112)" stroke-width="1.51"/><path d="M1200,1104L1383,1212L1325,1052Z" fill="rgb(48,98,98)" stroke="rgb(48,98,98)" stroke-width="1.51"/><path d="M1656,749L1715,543L1541,712Z" fill="rgb(63,110,105)" stroke="rgb(63,110,105)" stroke-width="1.51"/><path d="M1572,1146L1537,1011L1392,1015Z" fill="rgb(35,90,94)" stroke="rgb(35,90,94)" stroke-width="1.51"/><path d="M956,1242L1052,1241L1020,1058Z" fill="rgb(70,114,108)" stroke="rgb(70,114,108)" stroke-width="1.51"/><path d="M59,532L277,499L255,459Z" fill="rgb(172,192,152)" stroke="rgb(172,192,152)" stroke-width="1.51"/><path d="M212,154L116,252L305,325Z" fill="rgb(201,213,164)" stroke="rgb(201,213,164)" stroke-width="1.51"/><path d="M112,177L116,252L212,154Z" fill="rgb(210,220,169)" stroke="rgb(210,220,169)" stroke-width="1.51"/><path d="M392,-64L276,-81L368,151Z" fill="rgb(219,226,172)" stroke="rgb(219,226,172)" stroke-width="1.51"/><path d="M357,-183L276,-81L392,-64Z" fill="rgb(219,226,172)" stroke="rgb(219,226,172)" stroke-width="1.51"/><path d="M956,1242L846,1259L1052,1241Z" fill="rgb(74,117,109)" stroke="rgb(74,117,109)" stroke-width="1.51"/><path d="M711,1199L846,1259L798,1128Z" fill="rgb(86,125,114)" stroke="rgb(86,125,114)" stroke-width="1.51"/><path d="M195,754L264,949L331,893Z" fill="rgb(127,155,132)" stroke="rgb(127,155,132)" stroke-width="1.51"/><path d="M331,893L369,1093L487,892Z" fill="rgb(116,146,127)" stroke="rgb(116,146,127)" stroke-width="1.51"/><path d="M274,-221L357,-183L602,-213Z" fill="rgb(215,223,170)" stroke="rgb(215,223,170)" stroke-width="1.51"/><path d="M602,-213L357,-183L392,-64Z" fill="rgb(213,222,169)" stroke="rgb(213,222,169)" stroke-width="1.51"/><path d="M1793,113L1630,254L1847,307Z" fill="rgb(114,145,126)" stroke="rgb(114,145,126)" stroke-width="1.51"/><path d="M1793,113L1685,120L1630,254Z" fill="rgb(122,151,130)" stroke="rgb(122,151,130)" stroke-width="1.51"/><path d="M1685,120L1653,47L1543,173Z" fill="rgb(129,156,132)" stroke="rgb(129,156,132)" stroke-width="1.51"/><path d="M1566,7L1547,-123L1329,-40Z" fill="rgb(143,167,139)" stroke="rgb(143,167,139)" stroke-width="1.51"/><path d="M711,1199L604,1219L846,1259Z" fill="rgb(90,127,116)" stroke="rgb(90,127,116)" stroke-width="1.51"/><path d="M590,1133L604,1219L711,1199Z" fill="rgb(96,131,118)" stroke="rgb(96,131,118)" stroke-width="1.51"/><path d="M464,1212L604,1219L590,1133Z" fill="rgb(102,135,121)" stroke="rgb(102,135,121)" stroke-width="1.51"/><path d="M44,140L112,177L212,154Z" fill="rgb(216,224,171)" stroke="rgb(216,224,171)" stroke-width="1.51"/><path d="M1653,47L1547,-123L1566,7Z" fill="rgb(141,165,138)" stroke="rgb(141,165,138)" stroke-width="1.51"/><path d="M1345,-111L1674,-210L1096,-167Z" fill="rgb(149,172,141)" stroke="rgb(149,172,141)" stroke-width="1.51"/><path d="M1096,-167L1674,-210L714,-228Z" fill="rgb(164,185,149)" stroke="rgb(164,185,149)" stroke-width="1.51"/><path d="M1383,1212L1392,1015L1325,1052Z" fill="rgb(42,95,96)" stroke="rgb(42,95,96)" stroke-width="1.51"/><path d="M1392,1015L1537,1011L1453,859Z" fill="rgb(40,94,96)" stroke="rgb(40,94,96)" stroke-width="1.51"/><path d="M264,949L369,1093L331,893Z" fill="rgb(120,149,128)" stroke="rgb(120,149,128)" stroke-width="1.51"/><path d="M264,949L271,1146L369,1093Z" fill="rgb(118,146,127)" stroke="rgb(118,146,127)" stroke-width="1.51"/><path d="M195,754L189,987L264,949Z" fill="rgb(129,156,132)" stroke="rgb(129,156,132)" stroke-width="1.51"/><path d="M59,532L255,459L185,381Z" fill="rgb(179,197,155)" stroke="rgb(179,197,155)" stroke-width="1.51"/><path d="M59,532L185,381L46,373Z" fill="rgb(186,202,158)" stroke="rgb(186,202,158)" stroke-width="1.51"/><path d="M46,373L185,381L116,252Z" fill="rgb(196,210,162)" stroke="rgb(196,210,162)" stroke-width="1.51"/><path d="M-70,318L46,373L116,252Z" fill="rgb(204,215,166)" stroke="rgb(204,215,166)" stroke-width="1.51"/><path d="M1715,543L1831,457L1677,336Z" fill="rgb(89,128,116)" stroke="rgb(89,128,116)" stroke-width="1.51"/><path d="M1656,749L1747,709L1715,543Z" fill="rgb(62,109,104)" stroke="rgb(62,109,104)" stroke-width="1.51"/><path d="M1785,903L1747,709L1656,749Z" fill="rgb(44,96,97)" stroke="rgb(44,96,97)" stroke-width="1.51"/><path d="M59,532L73,691L277,499Z" fill="rgb(166,187,150)" stroke="rgb(166,187,150)" stroke-width="1.51"/><path d="M1052,1241L1233,1256L1200,1104Z" fill="rgb(59,106,103)" stroke="rgb(59,106,103)" stroke-width="1.51"/><path d="M846,1259L1233,1256L1052,1241Z" fill="rgb(68,112,107)" stroke="rgb(68,112,107)" stroke-width="1.51"/><path d="M1747,709L1796,533L1715,543Z" fill="rgb(70,114,108)" stroke="rgb(70,114,108)" stroke-width="1.51"/><path d="M604,1219L196,1294L846,1259Z" fill="rgb(102,135,121)" stroke="rgb(102,135,121)" stroke-width="1.51"/><path d="M369,1093L464,1212L590,1133Z" fill="rgb(107,138,123)" stroke="rgb(107,138,123)" stroke-width="1.51"/><path d="M59,532L17,516L73,691Z" fill="rgb(170,190,151)" stroke="rgb(170,190,151)" stroke-width="1.51"/><path d="M46,373L17,516L59,532Z" fill="rgb(184,200,158)" stroke="rgb(184,200,158)" stroke-width="1.51"/><path d="M1233,1256L1383,1212L1200,1104Z" fill="rgb(50,100,99)" stroke="rgb(50,100,99)" stroke-width="1.51"/><path d="M369,1093L271,1146L464,1212Z" fill="rgb(113,143,125)" stroke="rgb(113,143,125)" stroke-width="1.51"/><path d="M118,759L189,987L195,754Z" fill="rgb(134,160,135)" stroke="rgb(134,160,135)" stroke-width="1.51"/><path d="M87,1042L189,987L10,997Z" fill="rgb(132,157,133)" stroke="rgb(132,157,133)" stroke-width="1.51"/><path d="M128,-78L44,140L212,154Z" fill="rgb(225,230,175)" stroke="rgb(225,230,175)" stroke-width="1.51"/><path d="M357,-183L274,-221L276,-81Z" fill="rgb(222,228,173)" stroke="rgb(222,228,173)" stroke-width="1.51"/><path d="M714,-228L274,-221L602,-213Z" fill="rgb(208,218,167)" stroke="rgb(208,218,167)" stroke-width="1.51"/><path d="M1903,581L1831,457L1796,533Z" fill="rgb(78,120,111)" stroke="rgb(78,120,111)" stroke-width="1.51"/><path d="M1796,533L1831,457L1715,543Z" fill="rgb(80,122,112)" stroke="rgb(80,122,112)" stroke-width="1.51"/><path d="M46,373L-70,318L17,516Z" fill="rgb(195,209,162)" stroke="rgb(195,209,162)" stroke-width="1.51"/><path d="M112,177L44,140L116,252Z" fill="rgb(214,223,170)" stroke="rgb(214,223,170)" stroke-width="1.51"/><path d="M128,-78L212,154L276,-81Z" fill="rgb(227,232,176)" stroke="rgb(227,232,176)" stroke-width="1.51"/><path d="M1847,307L1630,254L1677,336Z" fill="rgb(108,140,123)" stroke="rgb(108,140,123)" stroke-width="1.51"/><path d="M1685,120L1793,113L1653,47Z" fill="rgb(129,156,132)" stroke="rgb(129,156,132)" stroke-width="1.51"/><path d="M1756,-167L1674,-210L1547,-123Z" fill="rgb(140,164,137)" stroke="rgb(140,164,137)" stroke-width="1.51"/><path d="M274,-221L128,-78L276,-81Z" fill="rgb(226,232,175)" stroke="rgb(226,232,175)" stroke-width="1.51"/><path d="M1831,457L1847,307L1677,336Z" fill="rgb(98,133,119)" stroke="rgb(98,133,119)" stroke-width="1.51"/><path d="M1537,1011L1672,1002L1596,754Z" fill="rgb(38,93,96)" stroke="rgb(38,93,96)" stroke-width="1.51"/><path d="M1747,709L1903,581L1796,533Z" fill="rgb(67,112,106)" stroke="rgb(67,112,106)" stroke-width="1.51"/><path d="M1572,1146L1672,1002L1537,1011Z" fill="rgb(33,89,93)" stroke="rgb(33,89,93)" stroke-width="1.51"/><path d="M189,987L271,1146L264,949Z" fill="rgb(123,150,129)" stroke="rgb(123,150,129)" stroke-width="1.51"/><path d="M1383,1212L1572,1146L1392,1015Z" fill="rgb(35,91,94)" stroke="rgb(35,91,94)" stroke-width="1.51"/><path d="M274,-221L90,-107L128,-78Z" fill="rgb(230,234,177)" stroke="rgb(230,234,177)" stroke-width="1.51"/><path d="M128,-78L-20,-36L44,140Z" fill="rgb(236,239,179)" stroke="rgb(236,239,179)" stroke-width="1.51"/><path d="M1826,1108L1785,903L1672,1002Z" fill="rgb(31,87,92)" stroke="rgb(31,87,92)" stroke-width="1.51"/><path d="M1672,1002L1785,903L1656,749Z" fill="rgb(38,92,94)" stroke="rgb(38,92,94)" stroke-width="1.51"/><path d="M1831,457L1947,466L1847,307Z" fill="rgb(91,128,116)" stroke="rgb(91,128,116)" stroke-width="1.51"/><path d="M44,140L-70,318L116,252Z" fill="rgb(213,221,169)" stroke="rgb(213,221,169)" stroke-width="1.51"/><path d="M17,516L-68,720L73,691Z" fill="rgb(165,185,149)" stroke="rgb(165,185,149)" stroke-width="1.51"/><path d="M-170,227L-70,318L44,140Z" fill="rgb(216,224,171)" stroke="rgb(216,224,171)" stroke-width="1.51"/><path d="M1791,-66L1547,-123L1653,47Z" fill="rgb(140,164,137)" stroke="rgb(140,164,137)" stroke-width="1.51"/><path d="M1547,-123L1674,-210L1345,-111Z" fill="rgb(143,167,138)" stroke="rgb(143,167,138)" stroke-width="1.51"/><path d="M1951,620L1903,581L1747,709Z" fill="rgb(62,108,104)" stroke="rgb(62,108,104)" stroke-width="1.51"/><path d="M1900,154L1793,113L1847,307Z" fill="rgb(116,146,127)" stroke="rgb(116,146,127)" stroke-width="1.51"/><path d="M1958,2L1791,-66L1793,113Z" fill="rgb(135,159,135)" stroke="rgb(135,159,135)" stroke-width="1.51"/><path d="M1793,113L1791,-66L1653,47Z" fill="rgb(135,159,135)" stroke="rgb(135,159,135)" stroke-width="1.51"/><path d="M1785,903L1857,807L1747,709Z" fill="rgb(39,94,96)" stroke="rgb(39,94,96)" stroke-width="1.51"/><path d="M73,691L-68,720L118,759Z" fill="rgb(153,176,144)" stroke="rgb(153,176,144)" stroke-width="1.51"/><path d="M189,987L87,1042L271,1146Z" fill="rgb(125,151,130)" stroke="rgb(125,151,130)" stroke-width="1.51"/><path d="M-149,669L-68,720L17,516Z" fill="rgb(166,187,150)" stroke="rgb(166,187,150)" stroke-width="1.51"/><path d="M10,997L189,987L118,759Z" fill="rgb(134,160,135)" stroke="rgb(134,160,135)" stroke-width="1.51"/><path d="M1948,232L1900,154L1847,307Z" fill="rgb(111,142,124)" stroke="rgb(111,142,124)" stroke-width="1.51"/><path d="M1903,581L1947,466L1831,457Z" fill="rgb(79,120,112)" stroke="rgb(79,120,112)" stroke-width="1.51"/><path d="M2044,544L1947,466L1903,581Z" fill="rgb(75,117,110)" stroke="rgb(75,117,110)" stroke-width="1.51"/><path d="M1791,-66L1756,-167L1547,-123Z" fill="rgb(139,163,137)" stroke="rgb(139,163,137)" stroke-width="1.51"/><path d="M1927,-189L1756,-167L1791,-66Z" fill="rgb(137,161,135)" stroke="rgb(137,161,135)" stroke-width="1.51"/><path d="M1918,995L1924,784L1857,807Z" fill="rgb(34,89,93)" stroke="rgb(34,89,93)" stroke-width="1.51"/><path d="M1572,1146L1723,1118L1672,1002Z" fill="rgb(30,87,92)" stroke="rgb(30,87,92)" stroke-width="1.51"/><path d="M1526,1285L1611,1212L1572,1146Z" fill="rgb(32,88,92)" stroke="rgb(32,88,92)" stroke-width="1.51"/><path d="M1526,1285L1572,1146L1383,1212Z" fill="rgb(34,90,93)" stroke="rgb(34,90,93)" stroke-width="1.51"/><path d="M90,-107L-20,-36L128,-78Z" fill="rgb(236,239,179)" stroke="rgb(236,239,179)" stroke-width="1.51"/><path d="M1233,1256L1526,1285L1383,1212Z" fill="rgb(41,94,96)" stroke="rgb(41,94,96)" stroke-width="1.51"/><path d="M846,1259L1526,1285L1233,1256Z" fill="rgb(55,104,101)" stroke="rgb(55,104,101)" stroke-width="1.51"/><path d="M-70,318L-131,346L17,516Z" fill="rgb(196,210,163)" stroke="rgb(196,210,163)" stroke-width="1.51"/><path d="M-170,227L-131,346L-70,318Z" fill="rgb(208,218,167)" stroke="rgb(208,218,167)" stroke-width="1.51"/><path d="M1924,784L1951,620L1747,709Z" fill="rgb(53,102,100)" stroke="rgb(53,102,100)" stroke-width="1.51"/><path d="M1900,154L1958,2L1793,113Z" fill="rgb(126,152,131)" stroke="rgb(126,152,131)" stroke-width="1.51"/><path d="M2040,407L1948,232L1847,307Z" fill="rgb(101,135,120)" stroke="rgb(101,135,120)" stroke-width="1.51"/><path d="M2040,407L1847,307L1947,466Z" fill="rgb(92,128,117)" stroke="rgb(92,128,117)" stroke-width="1.51"/><path d="M1611,1212L1723,1118L1572,1146Z" fill="rgb(31,87,92)" stroke="rgb(31,87,92)" stroke-width="1.51"/><path d="M1857,807L1924,784L1747,709Z" fill="rgb(44,96,97)" stroke="rgb(44,96,97)" stroke-width="1.51"/><path d="M1826,1108L1723,1118L1853,1226Z" fill="rgb(26,84,90)" stroke="rgb(26,84,90)" stroke-width="1.51"/><path d="M-72,859L10,997L118,759Z" fill="rgb(141,165,138)" stroke="rgb(141,165,138)" stroke-width="1.51"/><path d="M1918,995L1857,807L1785,903Z" fill="rgb(33,89,93)" stroke="rgb(33,89,93)" stroke-width="1.51"/><path d="M-205,808L-72,859L-68,720Z" fill="rgb(146,170,140)" stroke="rgb(146,170,140)" stroke-width="1.51"/><path d="M-68,720L-72,859L118,759Z" fill="rgb(148,172,141)" stroke="rgb(148,172,141)" stroke-width="1.51"/><path d="M-172,593L-149,669L17,516Z" fill="rgb(172,191,152)" stroke="rgb(172,191,152)" stroke-width="1.51"/><path d="M-131,346L-172,593L17,516Z" fill="rgb(185,201,158)" stroke="rgb(185,201,158)" stroke-width="1.51"/><path d="M-20,-36L-122,100L44,140Z" fill="rgb(232,236,178)" stroke="rgb(232,236,178)" stroke-width="1.51"/><path d="M-170,227L-172,593L-131,346Z" fill="rgb(197,210,163)" stroke="rgb(197,210,163)" stroke-width="1.51"/><path d="M-122,100L-170,227L44,140Z" fill="rgb(223,229,174)" stroke="rgb(223,229,174)" stroke-width="1.51"/><path d="M58,1241L271,1146L87,1042Z" fill="rgb(126,152,131)" stroke="rgb(126,152,131)" stroke-width="1.51"/><path d="M58,1241L196,1294L271,1146Z" fill="rgb(124,151,130)" stroke="rgb(124,151,130)" stroke-width="1.51"/><path d="M271,1146L196,1294L464,1212Z" fill="rgb(117,145,126)" stroke="rgb(117,145,126)" stroke-width="1.51"/><path d="M464,1212L196,1294L604,1219Z" fill="rgb(110,141,124)" stroke="rgb(110,141,124)" stroke-width="1.51"/><path d="M846,1259L196,1294L1526,1285Z" fill="rgb(81,121,112)" stroke="rgb(81,121,112)" stroke-width="1.51"/><path d="M2098,159L1958,2L1900,154Z" fill="rgb(124,150,130)" stroke="rgb(124,150,130)" stroke-width="1.51"/><path d="M2044,544L2040,407L1947,466Z" fill="rgb(82,122,113)" stroke="rgb(82,122,113)" stroke-width="1.51"/><path d="M2044,544L1903,581L1951,620Z" fill="rgb(68,113,107)" stroke="rgb(68,113,107)" stroke-width="1.51"/><path d="M2098,159L1900,154L1948,232Z" fill="rgb(116,145,126)" stroke="rgb(116,145,126)" stroke-width="1.51"/><path d="M-20,-36L-207,-44L-122,100Z" fill="rgb(239,241,180)" stroke="rgb(239,241,180)" stroke-width="1.51"/><path d="M-122,100L-207,-44L-170,227Z" fill="rgb(230,234,177)" stroke="rgb(230,234,177)" stroke-width="1.51"/><path d="M90,-107L-43,-169L-20,-36Z" fill="rgb(240,241,181)" stroke="rgb(240,241,181)" stroke-width="1.51"/><path d="M274,-221L-43,-169L90,-107Z" fill="rgb(233,237,178)" stroke="rgb(233,237,178)" stroke-width="1.51"/><path d="M1723,1118L1826,1108L1672,1002Z" fill="rgb(27,85,91)" stroke="rgb(27,85,91)" stroke-width="1.51"/><path d="M2057,690L2044,544L1951,620Z" fill="rgb(63,109,105)" stroke="rgb(63,109,105)" stroke-width="1.51"/><path d="M1853,1226L1723,1118L1611,1212Z" fill="rgb(28,85,91)" stroke="rgb(28,85,91)" stroke-width="1.51"/><path d="M2027,760L1951,620L1924,784Z" fill="rgb(49,99,99)" stroke="rgb(49,99,99)" stroke-width="1.51"/><path d="M1826,1108L1918,995L1785,903Z" fill="rgb(29,86,92)" stroke="rgb(29,86,92)" stroke-width="1.51"/><path d="M2090,924L2027,760L1924,784Z" fill="rgb(35,90,94)" stroke="rgb(35,90,94)" stroke-width="1.51"/><path d="M2027,760L2057,690L1951,620Z" fill="rgb(54,102,101)" stroke="rgb(54,102,101)" stroke-width="1.51"/><path d="M2044,544L2083,215L2040,407Z" fill="rgb(92,129,117)" stroke="rgb(92,129,117)" stroke-width="1.51"/><path d="M10,997L-57,1094L87,1042Z" fill="rgb(135,159,134)" stroke="rgb(135,159,134)" stroke-width="1.51"/><path d="M-192,989L-57,1094L10,997Z" fill="rgb(137,161,135)" stroke="rgb(137,161,135)" stroke-width="1.51"/><path d="M-192,989L10,997L-72,859Z" fill="rgb(139,163,137)" stroke="rgb(139,163,137)" stroke-width="1.51"/><path d="M-205,808L-68,720L-149,669Z" fill="rgb(154,176,144)" stroke="rgb(154,176,144)" stroke-width="1.51"/><path d="M-57,1094L58,1241L87,1042Z" fill="rgb(133,157,134)" stroke="rgb(133,157,134)" stroke-width="1.51"/><path d="M-172,593L-205,808L-149,669Z" fill="rgb(159,181,147)" stroke="rgb(159,181,147)" stroke-width="1.51"/><path d="M-170,227L-205,808L-172,593Z" fill="rgb(178,196,155)" stroke="rgb(178,196,155)" stroke-width="1.51"/><path d="M2040,407L2083,215L1948,232Z" fill="rgb(105,137,122)" stroke="rgb(105,137,122)" stroke-width="1.51"/><path d="M2057,690L2083,215L2044,544Z" fill="rgb(81,121,112)" stroke="rgb(81,121,112)" stroke-width="1.51"/><path d="M1958,2L1927,-189L1791,-66Z" fill="rgb(135,159,135)" stroke="rgb(135,159,135)" stroke-width="1.51"/><path d="M1756,-167L1927,-189L1674,-210Z" fill="rgb(137,161,136)" stroke="rgb(137,161,136)" stroke-width="1.51"/><path d="M2016,-175L1927,-189L1958,2Z" fill="rgb(135,158,134)" stroke="rgb(135,158,134)" stroke-width="1.51"/><path d="M2083,215L2098,159L1948,232Z" fill="rgb(114,143,125)" stroke="rgb(114,143,125)" stroke-width="1.51"/><path d="M2057,690L2098,159L2083,215Z" fill="rgb(97,131,118)" stroke="rgb(97,131,118)" stroke-width="1.51"/><path d="M-43,-169L-207,-44L-20,-36Z" fill="rgb(240,242,181)" stroke="rgb(240,242,181)" stroke-width="1.51"/><path d="M-170,227L-207,-44L-205,808Z" fill="rgb(204,215,166)" stroke="rgb(204,215,166)" stroke-width="1.51"/><path d="M1918,995L2090,924L1924,784Z" fill="rgb(31,88,92)" stroke="rgb(31,88,92)" stroke-width="1.51"/><path d="M2027,760L2090,924L2057,690Z" fill="rgb(38,93,95)" stroke="rgb(38,93,95)" stroke-width="1.51"/><path d="M1826,1108L1970,1105L1918,995Z" fill="rgb(23,83,89)" stroke="rgb(23,83,89)" stroke-width="1.51"/><path d="M1526,1285L1853,1226L1611,1212Z" fill="rgb(29,87,92)" stroke="rgb(29,87,92)" stroke-width="1.51"/><path d="M-57,1094L-64,1185L58,1241Z" fill="rgb(135,158,134)" stroke="rgb(135,158,134)" stroke-width="1.51"/><path d="M-172,1201L-64,1185L-57,1094Z" fill="rgb(135,158,134)" stroke="rgb(135,158,134)" stroke-width="1.51"/><path d="M-205,808L-192,989L-72,859Z" fill="rgb(142,166,138)" stroke="rgb(142,166,138)" stroke-width="1.51"/><path d="M1926,1200L1970,1105L1826,1108Z" fill="rgb(23,82,89)" stroke="rgb(23,82,89)" stroke-width="1.51"/><path d="M2081,-65L2016,-175L1958,2Z" fill="rgb(135,158,134)" stroke="rgb(135,158,134)" stroke-width="1.51"/><path d="M-43,-169L-200,-169L-207,-44Z" fill="rgb(240,242,181)" stroke="rgb(240,242,181)" stroke-width="1.51"/><path d="M274,-221L-200,-169L-43,-169Z" fill="rgb(239,241,180)" stroke="rgb(239,241,180)" stroke-width="1.51"/><path d="M1853,1226L1926,1200L1826,1108Z" fill="rgb(24,83,90)" stroke="rgb(24,83,90)" stroke-width="1.51"/><path d="M2098,159L2081,-65L1958,2Z" fill="rgb(131,156,133)" stroke="rgb(131,156,133)" stroke-width="1.51"/><path d="M2126,1048L1918,995L1970,1105Z" fill="rgb(24,83,90)" stroke="rgb(24,83,90)" stroke-width="1.51"/><path d="M2126,1048L2090,924L1918,995Z" fill="rgb(27,85,91)" stroke="rgb(27,85,91)" stroke-width="1.51"/><path d="M2057,690L2126,1048L2098,159Z" fill="rgb(62,107,104)" stroke="rgb(62,107,104)" stroke-width="1.51"/><path d="M-192,989L-220,1073L-57,1094Z" fill="rgb(136,159,135)" stroke="rgb(136,159,135)" stroke-width="1.51"/><path d="M-205,808L-220,1073L-192,989Z" fill="rgb(139,163,137)" stroke="rgb(139,163,137)" stroke-width="1.51"/><path d="M-207,-44L-220,1073L-205,808Z" fill="rgb(169,189,151)" stroke="rgb(169,189,151)" stroke-width="1.51"/><path d="M-220,1073L-172,1201L-57,1094Z" fill="rgb(135,158,134)" stroke="rgb(135,158,134)" stroke-width="1.51"/><path d="M-64,1185L-172,1201L58,1241Z" fill="rgb(135,158,134)" stroke="rgb(135,158,134)" stroke-width="1.51"/><path d="M58,1241L-172,1201L196,1294Z" fill="rgb(133,157,134)" stroke="rgb(133,157,134)" stroke-width="1.51"/><path d="M2044,1220L2126,1048L1970,1105Z" fill="rgb(22,82,89)" stroke="rgb(22,82,89)" stroke-width="1.51"/><path d="M2090,924L2126,1048L2057,690Z" fill="rgb(32,88,92)" stroke="rgb(32,88,92)" stroke-width="1.51"/><path d="M1926,1200L2044,1220L1970,1105Z" fill="rgb(22,82,89)" stroke="rgb(22,82,89)" stroke-width="1.51"/><path d="M1853,1226L2044,1220L1926,1200Z" fill="rgb(22,82,89)" stroke="rgb(22,82,89)" stroke-width="1.51"/><path d="M1526,1285L2044,1220L1853,1226Z" fill="rgb(26,84,90)" stroke="rgb(26,84,90)" stroke-width="1.51"/></svg>