<svg xmlns="http://www.w3.org/2000/svg" width="1920" height="1080"><path d="M934,539L972,452L827,478Z" fill="rgb(66,113,195)" stroke="rgb(66,113,195)" stroke-width="1.51"/><path d="M972,452L769,379L827,478Z" fill="rgb(66,119,209)" stroke="rgb(66,119,209)" stroke-width="1.51"/><path d="M827,478L896,643L934,539Z" fill="rgb(66,110,188)" stroke="rgb(66,110,188)" stroke-width="1.51"/><path d="M934,539L1043,628L972,452Z" fill="rgb(65,107,181)" stroke="rgb(65,107,181)" stroke-width="1.51"/><path d="M771,709L896,643L827,478Z" fill="rgb(65,108,184)" stroke="rgb(65,108,184)" stroke-width="1.51"/><path d="M896,643L1043,628L934,539Z" fill="rgb(64,103,174)" stroke="rgb(64,103,174)" stroke-width="1.51"/><path d="M972,452L988,241L769,379Z" fill="rgb(67,122,217)" stroke="rgb(67,122,217)" stroke-width="1.51"/><path d="M1134,355L988,241L972,452Z" fill="rgb(66,117,205)" stroke="rgb(66,117,205)" stroke-width="1.51"/><path d="M643,447L659,535L827,478Z" fill="rgb(66,121,214)" stroke="rgb(66,121,214)" stroke-width="1.51"/><path d="M769,379L643,447L827,478Z" fill="rgb(66,123,219)" stroke="rgb(66,123,219)" stroke-width="1.51"/><path d="M570,360L643,447L769,379Z" fill="rgb(66,129,234)" stroke="rgb(66,129,234)" stroke-width="1.51"/><path d="M988,241L794,235L769,379Z" fill="rgb(66,122,217)" stroke="rgb(66,122,217)" stroke-width="1.51"/><path d="M1169,598L1134,355L972,452Z" fill="rgb(65,108,183)" stroke="rgb(65,108,183)" stroke-width="1.51"/><path d="M659,535L771,709L827,478Z" fill="rgb(66,113,197)" stroke="rgb(66,113,197)" stroke-width="1.51"/><path d="M896,643L971,840L1043,628Z" fill="rgb(63,96,157)" stroke="rgb(63,96,157)" stroke-width="1.51"/><path d="M1043,628L1169,598L972,452Z" fill="rgb(64,102,171)" stroke="rgb(64,102,171)" stroke-width="1.51"/><path d="M1173,744L1169,598L1043,628Z" fill="rgb(62,93,150)" stroke="rgb(62,93,150)" stroke-width="1.51"/><path d="M592,270L570,360L769,379Z" fill="rgb(66,132,240)" stroke="rgb(66,132,240)" stroke-width="1.51"/><path d="M988,241L823,184L794,235Z" fill="rgb(66,120,212)" stroke="rgb(66,120,212)" stroke-width="1.51"/><path d="M1134,355L1103,242L988,241Z" fill="rgb(66,114,197)" stroke="rgb(66,114,197)" stroke-width="1.51"/><path d="M988,241L985,95L823,184Z" fill="rgb(65,116,203)" stroke="rgb(65,116,203)" stroke-width="1.51"/><path d="M659,535L653,654L771,709Z" fill="rgb(65,112,192)" stroke="rgb(65,112,192)" stroke-width="1.51"/><path d="M595,698L653,654L489,553Z" fill="rgb(66,113,195)" stroke="rgb(66,113,195)" stroke-width="1.51"/><path d="M771,709L805,792L896,643Z" fill="rgb(63,101,168)" stroke="rgb(63,101,168)" stroke-width="1.51"/><path d="M687,759L805,792L771,709Z" fill="rgb(64,103,171)" stroke="rgb(64,103,171)" stroke-width="1.51"/><path d="M643,447L489,553L659,535Z" fill="rgb(67,122,215)" stroke="rgb(67,122,215)" stroke-width="1.51"/><path d="M592,270L769,379L794,235Z" fill="rgb(66,128,230)" stroke="rgb(66,128,230)" stroke-width="1.51"/><path d="M653,654L687,759L771,709Z" fill="rgb(65,107,180)" stroke="rgb(65,107,180)" stroke-width="1.51"/><path d="M617,194L592,270L794,235Z" fill="rgb(66,128,231)" stroke="rgb(66,128,231)" stroke-width="1.51"/><path d="M993,908L971,840L796,981Z" fill="rgb(65,91,144)" stroke="rgb(65,91,144)" stroke-width="1.51"/><path d="M805,792L971,840L896,643Z" fill="rgb(63,97,158)" stroke="rgb(63,97,158)" stroke-width="1.51"/><path d="M653,654L595,698L687,759Z" fill="rgb(65,109,186)" stroke="rgb(65,109,186)" stroke-width="1.51"/><path d="M489,553L653,654L659,535Z" fill="rgb(66,117,204)" stroke="rgb(66,117,204)" stroke-width="1.51"/><path d="M1294,487L1258,336L1134,355Z" fill="rgb(64,108,183)" stroke="rgb(64,108,183)" stroke-width="1.51"/><path d="M1134,355L1254,252L1103,242Z" fill="rgb(65,111,189)" stroke="rgb(65,111,189)" stroke-width="1.51"/><path d="M1169,598L1294,487L1134,355Z" fill="rgb(64,103,172)" stroke="rgb(64,103,172)" stroke-width="1.51"/><path d="M1035,837L1173,744L1043,628Z" fill="rgb(61,91,143)" stroke="rgb(61,91,143)" stroke-width="1.51"/><path d="M1081,101L988,241L1103,242Z" fill="rgb(65,112,193)" stroke="rgb(65,112,193)" stroke-width="1.51"/><path d="M1081,101L985,95L988,241Z" fill="rgb(65,113,194)" stroke="rgb(65,113,194)" stroke-width="1.51"/><path d="M823,184L743,116L794,235Z" fill="rgb(66,122,217)" stroke="rgb(66,122,217)" stroke-width="1.51"/><path d="M971,840L1035,837L1043,628Z" fill="rgb(62,92,146)" stroke="rgb(62,92,146)" stroke-width="1.51"/><path d="M907,42L743,116L823,184Z" fill="rgb(65,119,209)" stroke="rgb(65,119,209)" stroke-width="1.51"/><path d="M1353,722L1294,487L1169,598Z" fill="rgb(61,92,146)" stroke="rgb(61,92,146)" stroke-width="1.51"/><path d="M743,116L617,194L794,235Z" fill="rgb(66,125,223)" stroke="rgb(66,125,223)" stroke-width="1.51"/><path d="M1191,109L1081,101L1103,242Z" fill="rgb(64,108,185)" stroke="rgb(64,108,185)" stroke-width="1.51"/><path d="M1258,336L1254,252L1134,355Z" fill="rgb(65,110,186)" stroke="rgb(65,110,186)" stroke-width="1.51"/><path d="M1323,159L1254,252L1420,243Z" fill="rgb(64,103,172)" stroke="rgb(64,103,172)" stroke-width="1.51"/><path d="M570,360L489,553L643,447Z" fill="rgb(66,125,224)" stroke="rgb(66,125,224)" stroke-width="1.51"/><path d="M464,352L489,553L570,360Z" fill="rgb(66,126,227)" stroke="rgb(66,126,227)" stroke-width="1.51"/><path d="M464,352L570,360L592,270Z" fill="rgb(66,130,236)" stroke="rgb(66,130,236)" stroke-width="1.51"/><path d="M1076,46L907,42L985,95Z" fill="rgb(65,111,191)" stroke="rgb(65,111,191)" stroke-width="1.51"/><path d="M985,95L907,42L823,184Z" fill="rgb(65,116,201)" stroke="rgb(65,116,201)" stroke-width="1.51"/><path d="M971,840L993,908L1035,837Z" fill="rgb(63,90,140)" stroke="rgb(63,90,140)" stroke-width="1.51"/><path d="M1035,837L1223,823L1173,744Z" fill="rgb(61,86,133)" stroke="rgb(61,86,133)" stroke-width="1.51"/><path d="M796,981L971,840L805,792Z" fill="rgb(65,95,152)" stroke="rgb(65,95,152)" stroke-width="1.51"/><path d="M422,183L464,352L592,270Z" fill="rgb(66,128,230)" stroke="rgb(66,128,230)" stroke-width="1.51"/><path d="M1294,487L1360,462L1258,336Z" fill="rgb(64,103,171)" stroke="rgb(64,103,171)" stroke-width="1.51"/><path d="M1362,474L1360,462L1294,487Z" fill="rgb(64,99,163)" stroke="rgb(64,99,163)" stroke-width="1.51"/><path d="M1353,722L1362,474L1294,487Z" fill="rgb(62,93,150)" stroke="rgb(62,93,150)" stroke-width="1.51"/><path d="M1081,101L1076,46L985,95Z" fill="rgb(64,109,187)" stroke="rgb(64,109,187)" stroke-width="1.51"/><path d="M1191,109L1076,46L1081,101Z" fill="rgb(64,107,182)" stroke="rgb(64,107,182)" stroke-width="1.51"/><path d="M1254,252L1191,109L1103,242Z" fill="rgb(65,108,182)" stroke="rgb(65,108,182)" stroke-width="1.51"/><path d="M1323,159L1191,109L1254,252Z" fill="rgb(64,104,174)" stroke="rgb(64,104,174)" stroke-width="1.51"/><path d="M1173,744L1353,722L1169,598Z" fill="rgb(60,88,137)" stroke="rgb(60,88,137)" stroke-width="1.51"/><path d="M1149,945L1223,823L1035,837Z" fill="rgb(61,85,129)" stroke="rgb(61,85,129)" stroke-width="1.51"/><path d="M489,553L440,603L595,698Z" fill="rgb(66,113,195)" stroke="rgb(66,113,195)" stroke-width="1.51"/><path d="M595,698L547,852L687,759Z" fill="rgb(66,106,178)" stroke="rgb(66,106,178)" stroke-width="1.51"/><path d="M276,501L440,603L489,553Z" fill="rgb(66,116,202)" stroke="rgb(66,116,202)" stroke-width="1.51"/><path d="M1223,823L1353,722L1173,744Z" fill="rgb(59,83,127)" stroke="rgb(59,83,127)" stroke-width="1.51"/><path d="M400,828L547,852L595,698Z" fill="rgb(66,103,173)" stroke="rgb(66,103,173)" stroke-width="1.51"/><path d="M742,996L796,981L805,792Z" fill="rgb(66,96,154)" stroke="rgb(66,96,154)" stroke-width="1.51"/><path d="M742,996L805,792L687,759Z" fill="rgb(66,100,164)" stroke="rgb(66,100,164)" stroke-width="1.51"/><path d="M993,908L1149,945L1035,837Z" fill="rgb(63,86,133)" stroke="rgb(63,86,133)" stroke-width="1.51"/><path d="M907,42L830,-46L743,116Z" fill="rgb(65,117,204)" stroke="rgb(65,117,204)" stroke-width="1.51"/><path d="M743,116L502,107L617,194Z" fill="rgb(65,126,227)" stroke="rgb(65,126,227)" stroke-width="1.51"/><path d="M617,194L502,107L592,270Z" fill="rgb(66,127,229)" stroke="rgb(66,127,229)" stroke-width="1.51"/><path d="M993,-114L830,-46L907,42Z" fill="rgb(65,113,194)" stroke="rgb(65,113,194)" stroke-width="1.51"/><path d="M1191,109L1244,18L1076,46Z" fill="rgb(63,104,175)" stroke="rgb(63,104,175)" stroke-width="1.51"/><path d="M1420,243L1254,252L1258,336Z" fill="rgb(65,106,177)" stroke="rgb(65,106,177)" stroke-width="1.51"/><path d="M1420,243L1258,336L1360,462Z" fill="rgb(65,106,179)" stroke="rgb(65,106,179)" stroke-width="1.51"/><path d="M1205,1023L1149,945L1073,1139Z" fill="rgb(62,79,115)" stroke="rgb(62,79,115)" stroke-width="1.51"/><path d="M1223,823L1431,793L1353,722Z" fill="rgb(59,81,121)" stroke="rgb(59,81,121)" stroke-width="1.51"/><path d="M547,852L577,906L687,759Z" fill="rgb(67,104,172)" stroke="rgb(67,104,172)" stroke-width="1.51"/><path d="M591,-72L502,107L743,116Z" fill="rgb(65,124,221)" stroke="rgb(65,124,221)" stroke-width="1.51"/><path d="M577,906L742,996L687,759Z" fill="rgb(68,102,167)" stroke="rgb(68,102,167)" stroke-width="1.51"/><path d="M796,981L829,1056L993,908Z" fill="rgb(66,91,142)" stroke="rgb(66,91,142)" stroke-width="1.51"/><path d="M502,107L422,183L592,270Z" fill="rgb(66,126,226)" stroke="rgb(66,126,226)" stroke-width="1.51"/><path d="M464,352L276,501L489,553Z" fill="rgb(66,122,216)" stroke="rgb(66,122,216)" stroke-width="1.51"/><path d="M1502,462L1360,462L1362,474Z" fill="rgb(65,98,161)" stroke="rgb(65,98,161)" stroke-width="1.51"/><path d="M1502,462L1420,243L1360,462Z" fill="rgb(66,103,172)" stroke="rgb(66,103,172)" stroke-width="1.51"/><path d="M1350,33L1244,18L1323,159Z" fill="rgb(63,100,165)" stroke="rgb(63,100,165)" stroke-width="1.51"/><path d="M1323,159L1244,18L1191,109Z" fill="rgb(63,102,170)" stroke="rgb(63,102,170)" stroke-width="1.51"/><path d="M1076,46L993,-114L907,42Z" fill="rgb(64,110,187)" stroke="rgb(64,110,187)" stroke-width="1.51"/><path d="M422,183L347,324L464,352Z" fill="rgb(66,127,229)" stroke="rgb(66,127,229)" stroke-width="1.51"/><path d="M830,-46L707,-75L743,116Z" fill="rgb(65,119,208)" stroke="rgb(65,119,208)" stroke-width="1.51"/><path d="M804,-144L707,-75L830,-46Z" fill="rgb(65,118,206)" stroke="rgb(65,118,206)" stroke-width="1.51"/><path d="M723,1180L829,1056L742,996Z" fill="rgb(68,91,143)" stroke="rgb(68,91,143)" stroke-width="1.51"/><path d="M742,996L829,1056L796,981Z" fill="rgb(67,93,146)" stroke="rgb(67,93,146)" stroke-width="1.51"/><path d="M1133,-229L993,-114L1076,46Z" fill="rgb(63,107,180)" stroke="rgb(63,107,180)" stroke-width="1.51"/><path d="M1524,566L1502,462L1362,474Z" fill="rgb(65,95,153)" stroke="rgb(65,95,153)" stroke-width="1.51"/><path d="M440,603L400,828L595,698Z" fill="rgb(65,106,179)" stroke="rgb(65,106,179)" stroke-width="1.51"/><path d="M547,852L381,1009L577,906Z" fill="rgb(67,99,162)" stroke="rgb(67,99,162)" stroke-width="1.51"/><path d="M276,501L334,680L440,603Z" fill="rgb(65,112,193)" stroke="rgb(65,112,193)" stroke-width="1.51"/><path d="M577,906L666,1031L742,996Z" fill="rgb(69,98,160)" stroke="rgb(69,98,160)" stroke-width="1.51"/><path d="M586,1045L666,1031L577,906Z" fill="rgb(70,98,160)" stroke="rgb(70,98,160)" stroke-width="1.51"/><path d="M334,680L400,828L440,603Z" fill="rgb(64,106,177)" stroke="rgb(64,106,177)" stroke-width="1.51"/><path d="M209,297L207,383L347,324Z" fill="rgb(66,126,227)" stroke="rgb(66,126,227)" stroke-width="1.51"/><path d="M502,107L460,44L422,183Z" fill="rgb(65,124,220)" stroke="rgb(65,124,220)" stroke-width="1.51"/><path d="M591,-72L460,44L502,107Z" fill="rgb(65,122,216)" stroke="rgb(65,122,216)" stroke-width="1.51"/><path d="M1353,722L1524,566L1362,474Z" fill="rgb(62,90,142)" stroke="rgb(62,90,142)" stroke-width="1.51"/><path d="M1430,966L1431,793L1223,823Z" fill="rgb(59,78,113)" stroke="rgb(59,78,113)" stroke-width="1.51"/><path d="M993,-114L804,-144L830,-46Z" fill="rgb(65,114,198)" stroke="rgb(65,114,198)" stroke-width="1.51"/><path d="M707,-75L591,-72L743,116Z" fill="rgb(65,122,215)" stroke="rgb(65,122,215)" stroke-width="1.51"/><path d="M347,324L276,501L464,352Z" fill="rgb(66,126,226)" stroke="rgb(66,126,226)" stroke-width="1.51"/><path d="M673,-156L591,-72L707,-75Z" fill="rgb(65,123,218)" stroke="rgb(65,123,218)" stroke-width="1.51"/><path d="M1189,-219L1133,-229L1076,46Z" fill="rgb(63,104,175)" stroke="rgb(63,104,175)" stroke-width="1.51"/><path d="M1459,152L1350,33L1323,159Z" fill="rgb(64,100,164)" stroke="rgb(64,100,164)" stroke-width="1.51"/><path d="M1459,152L1323,159L1420,243Z" fill="rgb(65,102,167)" stroke="rgb(65,102,167)" stroke-width="1.51"/><path d="M1149,945L1205,1023L1223,823Z" fill="rgb(60,80,119)" stroke="rgb(60,80,119)" stroke-width="1.51"/><path d="M1073,1139L1149,945L993,908Z" fill="rgb(63,83,124)" stroke="rgb(63,83,124)" stroke-width="1.51"/><path d="M1492,745L1524,566L1353,722Z" fill="rgb(60,84,127)" stroke="rgb(60,84,127)" stroke-width="1.51"/><path d="M1593,415L1420,243L1502,462Z" fill="rgb(67,103,171)" stroke="rgb(67,103,171)" stroke-width="1.51"/><path d="M1593,415L1481,215L1420,243Z" fill="rgb(67,102,169)" stroke="rgb(67,102,169)" stroke-width="1.51"/><path d="M1481,215L1459,152L1420,243Z" fill="rgb(65,101,166)" stroke="rgb(65,101,166)" stroke-width="1.51"/><path d="M1431,793L1492,745L1353,722Z" fill="rgb(59,80,119)" stroke="rgb(59,80,119)" stroke-width="1.51"/><path d="M1488,823L1492,745L1431,793Z" fill="rgb(59,78,114)" stroke="rgb(59,78,114)" stroke-width="1.51"/><path d="M276,501L284,687L334,680Z" fill="rgb(64,110,188)" stroke="rgb(64,110,188)" stroke-width="1.51"/><path d="M334,680L286,796L400,828Z" fill="rgb(65,102,170)" stroke="rgb(65,102,170)" stroke-width="1.51"/><path d="M780,1218L949,1144L829,1056Z" fill="rgb(67,88,136)" stroke="rgb(67,88,136)" stroke-width="1.51"/><path d="M381,1009L586,1045L577,906Z" fill="rgb(69,98,158)" stroke="rgb(69,98,158)" stroke-width="1.51"/><path d="M591,-72L494,-134L460,44Z" fill="rgb(65,121,215)" stroke="rgb(65,121,215)" stroke-width="1.51"/><path d="M804,-144L673,-156L707,-75Z" fill="rgb(65,120,211)" stroke="rgb(65,120,211)" stroke-width="1.51"/><path d="M829,1056L949,1144L993,908Z" fill="rgb(65,87,133)" stroke="rgb(65,87,133)" stroke-width="1.51"/><path d="M723,1180L742,996L666,1031Z" fill="rgb(69,94,149)" stroke="rgb(69,94,149)" stroke-width="1.51"/><path d="M1698,498L1593,415L1524,566Z" fill="rgb(66,93,148)" stroke="rgb(66,93,148)" stroke-width="1.51"/><path d="M1430,966L1488,823L1431,793Z" fill="rgb(59,76,109)" stroke="rgb(59,76,109)" stroke-width="1.51"/><path d="M1205,1023L1430,966L1223,823Z" fill="rgb(59,77,111)" stroke="rgb(59,77,111)" stroke-width="1.51"/><path d="M949,1144L1073,1139L993,908Z" fill="rgb(64,83,124)" stroke="rgb(64,83,124)" stroke-width="1.51"/><path d="M1524,566L1593,415L1502,462Z" fill="rgb(65,95,153)" stroke="rgb(65,95,153)" stroke-width="1.51"/><path d="M1718,148L1459,-36L1459,152Z" fill="rgb(65,96,155)" stroke="rgb(65,96,155)" stroke-width="1.51"/><path d="M1698,498L1524,566L1659,737Z" fill="rgb(63,86,130)" stroke="rgb(63,86,130)" stroke-width="1.51"/><path d="M400,828L381,1009L547,852Z" fill="rgb(67,99,162)" stroke="rgb(67,99,162)" stroke-width="1.51"/><path d="M284,687L286,796L334,680Z" fill="rgb(63,103,172)" stroke="rgb(63,103,172)" stroke-width="1.51"/><path d="M154,651L286,796L284,687Z" fill="rgb(63,103,172)" stroke="rgb(63,103,172)" stroke-width="1.51"/><path d="M347,324L207,383L276,501Z" fill="rgb(66,124,222)" stroke="rgb(66,124,222)" stroke-width="1.51"/><path d="M276,501L171,560L284,687Z" fill="rgb(65,111,192)" stroke="rgb(65,111,192)" stroke-width="1.51"/><path d="M209,297L347,324L422,183Z" fill="rgb(66,126,225)" stroke="rgb(66,126,225)" stroke-width="1.51"/><path d="M213,85L209,297L422,183Z" fill="rgb(65,123,218)" stroke="rgb(65,123,218)" stroke-width="1.51"/><path d="M1305,1108L1430,966L1205,1023Z" fill="rgb(59,74,103)" stroke="rgb(59,74,103)" stroke-width="1.51"/><path d="M586,1045L723,1180L666,1031Z" fill="rgb(70,96,153)" stroke="rgb(70,96,153)" stroke-width="1.51"/><path d="M949,1144L1116,1185L1073,1139Z" fill="rgb(63,81,119)" stroke="rgb(63,81,119)" stroke-width="1.51"/><path d="M544,1285L723,1180L586,1045Z" fill="rgb(70,96,153)" stroke="rgb(70,96,153)" stroke-width="1.51"/><path d="M673,-156L494,-134L591,-72Z" fill="rgb(65,122,217)" stroke="rgb(65,122,217)" stroke-width="1.51"/><path d="M460,44L321,-27L422,183Z" fill="rgb(65,121,215)" stroke="rgb(65,121,215)" stroke-width="1.51"/><path d="M147,415L276,501L207,383Z" fill="rgb(65,121,215)" stroke="rgb(65,121,215)" stroke-width="1.51"/><path d="M147,415L171,560L276,501Z" fill="rgb(65,117,205)" stroke="rgb(65,117,205)" stroke-width="1.51"/><path d="M1189,-219L1244,18L1375,-128Z" fill="rgb(62,99,163)" stroke="rgb(62,99,163)" stroke-width="1.51"/><path d="M1189,-219L1076,46L1244,18Z" fill="rgb(63,103,172)" stroke="rgb(63,103,172)" stroke-width="1.51"/><path d="M993,-114L1133,-229L804,-144Z" fill="rgb(64,110,188)" stroke="rgb(64,110,188)" stroke-width="1.51"/><path d="M804,-144L1133,-229L673,-156Z" fill="rgb(65,115,198)" stroke="rgb(65,115,198)" stroke-width="1.51"/><path d="M673,-156L461,-154L494,-134Z" fill="rgb(65,122,216)" stroke="rgb(65,122,216)" stroke-width="1.51"/><path d="M1073,1139L1116,1185L1205,1023Z" fill="rgb(62,78,112)" stroke="rgb(62,78,112)" stroke-width="1.51"/><path d="M900,1244L1116,1185L949,1144Z" fill="rgb(65,83,124)" stroke="rgb(65,83,124)" stroke-width="1.51"/><path d="M326,950L381,1009L400,828Z" fill="rgb(67,97,157)" stroke="rgb(67,97,157)" stroke-width="1.51"/><path d="M326,950L400,828L286,796Z" fill="rgb(66,99,162)" stroke="rgb(66,99,162)" stroke-width="1.51"/><path d="M89,824L326,950L286,796Z" fill="rgb(65,97,158)" stroke="rgb(65,97,158)" stroke-width="1.51"/><path d="M1375,-128L1244,18L1350,33Z" fill="rgb(62,98,160)" stroke="rgb(62,98,160)" stroke-width="1.51"/><path d="M1116,1185L1305,1108L1205,1023Z" fill="rgb(60,75,106)" stroke="rgb(60,75,106)" stroke-width="1.51"/><path d="M723,1180L780,1218L829,1056Z" fill="rgb(68,91,142)" stroke="rgb(68,91,142)" stroke-width="1.51"/><path d="M544,1285L780,1218L723,1180Z" fill="rgb(69,95,150)" stroke="rgb(69,95,150)" stroke-width="1.51"/><path d="M1459,152L1459,-36L1350,33Z" fill="rgb(64,98,158)" stroke="rgb(64,98,158)" stroke-width="1.51"/><path d="M1662,216L1459,152L1481,215Z" fill="rgb(66,99,162)" stroke="rgb(66,99,162)" stroke-width="1.51"/><path d="M209,297L147,415L207,383Z" fill="rgb(65,126,225)" stroke="rgb(65,126,225)" stroke-width="1.51"/><path d="M1459,-36L1375,-128L1350,33Z" fill="rgb(63,97,157)" stroke="rgb(63,97,157)" stroke-width="1.51"/><path d="M461,-154L321,-27L460,44Z" fill="rgb(64,120,211)" stroke="rgb(64,120,211)" stroke-width="1.51"/><path d="M209,297L34,273L147,415Z" fill="rgb(65,124,222)" stroke="rgb(65,124,222)" stroke-width="1.51"/><path d="M494,-134L461,-154L460,44Z" fill="rgb(64,121,213)" stroke="rgb(64,121,213)" stroke-width="1.51"/><path d="M310,-180L461,-154L673,-156Z" fill="rgb(65,121,214)" stroke="rgb(65,121,214)" stroke-width="1.51"/><path d="M171,560L154,651L284,687Z" fill="rgb(64,107,182)" stroke="rgb(64,107,182)" stroke-width="1.51"/><path d="M15,520L154,651L171,560Z" fill="rgb(64,110,188)" stroke="rgb(64,110,188)" stroke-width="1.51"/><path d="M780,1218L900,1244L949,1144Z" fill="rgb(66,87,134)" stroke="rgb(66,87,134)" stroke-width="1.51"/><path d="M321,-27L213,85L422,183Z" fill="rgb(65,120,213)" stroke="rgb(65,120,213)" stroke-width="1.51"/><path d="M1659,737L1492,745L1656,762Z" fill="rgb(59,77,112)" stroke="rgb(59,77,112)" stroke-width="1.51"/><path d="M1659,737L1524,566L1492,745Z" fill="rgb(60,81,121)" stroke="rgb(60,81,121)" stroke-width="1.51"/><path d="M1593,415L1662,216L1481,215Z" fill="rgb(68,101,165)" stroke="rgb(68,101,165)" stroke-width="1.51"/><path d="M1656,762L1488,823L1549,1004Z" fill="rgb(59,74,104)" stroke="rgb(59,74,104)" stroke-width="1.51"/><path d="M1656,762L1492,745L1488,823Z" fill="rgb(59,77,112)" stroke="rgb(59,77,112)" stroke-width="1.51"/><path d="M1788,327L1662,216L1593,415Z" fill="rgb(68,100,163)" stroke="rgb(68,100,163)" stroke-width="1.51"/><path d="M1549,1004L1488,823L1430,966Z" fill="rgb(59,74,103)" stroke="rgb(59,74,103)" stroke-width="1.51"/><path d="M1806,358L1788,327L1698,498Z" fill="rgb(69,97,156)" stroke="rgb(69,97,156)" stroke-width="1.51"/><path d="M1305,1108L1390,1133L1430,966Z" fill="rgb(58,72,98)" stroke="rgb(58,72,98)" stroke-width="1.51"/><path d="M1287,1276L1390,1133L1305,1108Z" fill="rgb(58,72,99)" stroke="rgb(58,72,99)" stroke-width="1.51"/><path d="M1287,1276L1305,1108L1116,1185Z" fill="rgb(59,74,104)" stroke="rgb(59,74,104)" stroke-width="1.51"/><path d="M66,10L136,152L213,85Z" fill="rgb(64,118,207)" stroke="rgb(64,118,207)" stroke-width="1.51"/><path d="M213,85L136,152L209,297Z" fill="rgb(65,121,214)" stroke="rgb(65,121,214)" stroke-width="1.51"/><path d="M-43,681L89,824L154,651Z" fill="rgb(62,100,164)" stroke="rgb(62,100,164)" stroke-width="1.51"/><path d="M1390,1133L1549,1004L1430,966Z" fill="rgb(59,71,97)" stroke="rgb(59,71,97)" stroke-width="1.51"/><path d="M381,1009L353,1152L586,1045Z" fill="rgb(68,94,149)" stroke="rgb(68,94,149)" stroke-width="1.51"/><path d="M780,1218L544,1285L900,1244Z" fill="rgb(68,92,145)" stroke="rgb(68,92,145)" stroke-width="1.51"/><path d="M228,1054L353,1152L381,1009Z" fill="rgb(68,91,144)" stroke="rgb(68,91,144)" stroke-width="1.51"/><path d="M228,1054L381,1009L326,950Z" fill="rgb(67,94,149)" stroke="rgb(67,94,149)" stroke-width="1.51"/><path d="M66,10L64,208L136,152Z" fill="rgb(64,118,207)" stroke="rgb(64,118,207)" stroke-width="1.51"/><path d="M136,152L64,208L209,297Z" fill="rgb(65,121,215)" stroke="rgb(65,121,215)" stroke-width="1.51"/><path d="M1662,216L1718,148L1459,152Z" fill="rgb(67,97,157)" stroke="rgb(67,97,157)" stroke-width="1.51"/><path d="M1459,-36L1574,-209L1375,-128Z" fill="rgb(63,95,153)" stroke="rgb(63,95,153)" stroke-width="1.51"/><path d="M1788,327L1718,148L1662,216Z" fill="rgb(68,97,155)" stroke="rgb(68,97,155)" stroke-width="1.51"/><path d="M321,-27L66,10L213,85Z" fill="rgb(64,117,205)" stroke="rgb(64,117,205)" stroke-width="1.51"/><path d="M461,-154L310,-180L321,-27Z" fill="rgb(64,119,209)" stroke="rgb(64,119,209)" stroke-width="1.51"/><path d="M154,-213L310,-180L673,-156Z" fill="rgb(64,119,210)" stroke="rgb(64,119,210)" stroke-width="1.51"/><path d="M15,520L171,560L147,415Z" fill="rgb(65,115,201)" stroke="rgb(65,115,201)" stroke-width="1.51"/><path d="M154,651L89,824L286,796Z" fill="rgb(63,100,164)" stroke="rgb(63,100,164)" stroke-width="1.51"/><path d="M-75,389L15,520L147,415Z" fill="rgb(65,118,207)" stroke="rgb(65,118,207)" stroke-width="1.51"/><path d="M353,1152L544,1285L586,1045Z" fill="rgb(69,94,149)" stroke="rgb(69,94,149)" stroke-width="1.51"/><path d="M103,1005L228,1054L326,950Z" fill="rgb(66,93,146)" stroke="rgb(66,93,146)" stroke-width="1.51"/><path d="M64,208L34,273L209,297Z" fill="rgb(65,122,216)" stroke="rgb(65,122,216)" stroke-width="1.51"/><path d="M1586,1079L1603,1037L1549,1004Z" fill="rgb(58,69,91)" stroke="rgb(58,69,91)" stroke-width="1.51"/><path d="M900,1244L1287,1276L1116,1185Z" fill="rgb(62,79,115)" stroke="rgb(62,79,115)" stroke-width="1.51"/><path d="M1377,1300L1287,1276L900,1244Z" fill="rgb(61,76,108)" stroke="rgb(61,76,108)" stroke-width="1.51"/><path d="M1806,358L1698,498L1854,601Z" fill="rgb(66,90,141)" stroke="rgb(66,90,141)" stroke-width="1.51"/><path d="M1698,498L1788,327L1593,415Z" fill="rgb(67,97,156)" stroke="rgb(67,97,156)" stroke-width="1.51"/><path d="M1549,1004L1721,971L1656,762Z" fill="rgb(58,71,98)" stroke="rgb(58,71,98)" stroke-width="1.51"/><path d="M1836,653L1698,498L1659,737Z" fill="rgb(62,82,121)" stroke="rgb(62,82,121)" stroke-width="1.51"/><path d="M1586,1079L1549,1004L1390,1133Z" fill="rgb(58,69,91)" stroke="rgb(58,69,91)" stroke-width="1.51"/><path d="M1788,327L1820,159L1718,148Z" fill="rgb(68,95,152)" stroke="rgb(68,95,152)" stroke-width="1.51"/><path d="M1836,653L1659,737L1860,784Z" fill="rgb(58,75,106)" stroke="rgb(58,75,106)" stroke-width="1.51"/><path d="M1512,1186L1586,1079L1390,1133Z" fill="rgb(58,69,91)" stroke="rgb(58,69,91)" stroke-width="1.51"/><path d="M228,1054L322,1200L353,1152Z" fill="rgb(68,91,143)" stroke="rgb(68,91,143)" stroke-width="1.51"/><path d="M353,1152L368,1237L544,1285Z" fill="rgb(68,93,147)" stroke="rgb(68,93,147)" stroke-width="1.51"/><path d="M322,1200L368,1237L353,1152Z" fill="rgb(68,92,144)" stroke="rgb(68,92,144)" stroke-width="1.51"/><path d="M1377,1300L1512,1186L1390,1133Z" fill="rgb(58,70,94)" stroke="rgb(58,70,94)" stroke-width="1.51"/><path d="M1772,-98L1674,-82L1718,148Z" fill="rgb(65,91,142)" stroke="rgb(65,91,142)" stroke-width="1.51"/><path d="M1718,148L1674,-82L1459,-36Z" fill="rgb(65,93,147)" stroke="rgb(65,93,147)" stroke-width="1.51"/><path d="M1375,-128L1574,-209L1189,-219Z" fill="rgb(63,97,157)" stroke="rgb(63,97,157)" stroke-width="1.51"/><path d="M1721,971L1549,1004L1603,1037Z" fill="rgb(58,69,91)" stroke="rgb(58,69,91)" stroke-width="1.51"/><path d="M1860,784L1659,737L1656,762Z" fill="rgb(59,75,106)" stroke="rgb(59,75,106)" stroke-width="1.51"/><path d="M1287,1276L1377,1300L1390,1133Z" fill="rgb(58,71,98)" stroke="rgb(58,71,98)" stroke-width="1.51"/><path d="M544,1285L1377,1300L900,1244Z" fill="rgb(65,85,128)" stroke="rgb(65,85,128)" stroke-width="1.51"/><path d="M154,-213L66,10L321,-27Z" fill="rgb(64,116,203)" stroke="rgb(64,116,203)" stroke-width="1.51"/><path d="M64,208L-46,173L34,273Z" fill="rgb(64,120,211)" stroke="rgb(64,120,211)" stroke-width="1.51"/><path d="M1674,-82L1574,-209L1459,-36Z" fill="rgb(64,94,149)" stroke="rgb(64,94,149)" stroke-width="1.51"/><path d="M1189,-219L1574,-209L1133,-229Z" fill="rgb(62,98,161)" stroke="rgb(62,98,161)" stroke-width="1.51"/><path d="M-36,1027L103,1005L89,824Z" fill="rgb(65,92,145)" stroke="rgb(65,92,145)" stroke-width="1.51"/><path d="M89,824L103,1005L326,950Z" fill="rgb(65,94,151)" stroke="rgb(65,94,151)" stroke-width="1.51"/><path d="M228,1054L157,1247L322,1200Z" fill="rgb(67,90,141)" stroke="rgb(67,90,141)" stroke-width="1.51"/><path d="M1779,998L1721,971L1603,1037Z" fill="rgb(58,68,88)" stroke="rgb(58,68,88)" stroke-width="1.51"/><path d="M1779,998L1603,1037L1586,1079Z" fill="rgb(58,67,88)" stroke="rgb(58,67,88)" stroke-width="1.51"/><path d="M1836,653L1854,601L1698,498Z" fill="rgb(63,84,126)" stroke="rgb(63,84,126)" stroke-width="1.51"/><path d="M15,520L-43,681L154,651Z" fill="rgb(64,106,179)" stroke="rgb(64,106,179)" stroke-width="1.51"/><path d="M-181,529L-43,681L15,520Z" fill="rgb(64,108,184)" stroke="rgb(64,108,184)" stroke-width="1.51"/><path d="M-75,389L147,415L34,273Z" fill="rgb(65,124,220)" stroke="rgb(65,124,220)" stroke-width="1.51"/><path d="M1969,212L1820,159L1788,327Z" fill="rgb(68,94,149)" stroke="rgb(68,94,149)" stroke-width="1.51"/><path d="M1969,212L1788,327L1806,358Z" fill="rgb(69,96,153)" stroke="rgb(69,96,153)" stroke-width="1.51"/><path d="M-182,278L-75,389L34,273Z" fill="rgb(65,122,216)" stroke="rgb(65,122,216)" stroke-width="1.51"/><path d="M66,10L-46,173L64,208Z" fill="rgb(64,118,206)" stroke="rgb(64,118,206)" stroke-width="1.51"/><path d="M1674,-82L1692,-135L1574,-209Z" fill="rgb(64,92,146)" stroke="rgb(64,92,146)" stroke-width="1.51"/><path d="M1772,-98L1692,-135L1674,-82Z" fill="rgb(65,91,142)" stroke="rgb(65,91,142)" stroke-width="1.51"/><path d="M-43,681L-44,816L89,824Z" fill="rgb(63,97,158)" stroke="rgb(63,97,158)" stroke-width="1.51"/><path d="M-131,858L-44,816L-184,714Z" fill="rgb(63,96,156)" stroke="rgb(63,96,156)" stroke-width="1.51"/><path d="M1721,971L1860,784L1656,762Z" fill="rgb(59,72,99)" stroke="rgb(59,72,99)" stroke-width="1.51"/><path d="M1836,653L1971,677L1854,601Z" fill="rgb(61,78,113)" stroke="rgb(61,78,113)" stroke-width="1.51"/><path d="M103,1005L117,1114L228,1054Z" fill="rgb(66,90,139)" stroke="rgb(66,90,139)" stroke-width="1.51"/><path d="M322,1200L157,1247L368,1237Z" fill="rgb(68,91,142)" stroke="rgb(68,91,142)" stroke-width="1.51"/><path d="M45,1102L117,1114L103,1005Z" fill="rgb(66,89,136)" stroke="rgb(66,89,136)" stroke-width="1.51"/><path d="M66,10L-102,-53L-46,173Z" fill="rgb(64,115,199)" stroke="rgb(64,115,199)" stroke-width="1.51"/><path d="M310,-180L154,-213L321,-27Z" fill="rgb(64,118,206)" stroke="rgb(64,118,206)" stroke-width="1.51"/><path d="M1133,-229L154,-213L673,-156Z" fill="rgb(65,123,218)" stroke="rgb(65,123,218)" stroke-width="1.51"/><path d="M1721,971L1779,998L1860,784Z" fill="rgb(58,69,91)" stroke="rgb(58,69,91)" stroke-width="1.51"/><path d="M1835,1075L1779,998L1586,1079Z" fill="rgb(58,66,83)" stroke="rgb(58,66,83)" stroke-width="1.51"/><path d="M1616,1210L1586,1079L1512,1186Z" fill="rgb(58,68,88)" stroke="rgb(58,68,88)" stroke-width="1.51"/><path d="M1377,1300L1616,1210L1512,1186Z" fill="rgb(58,69,91)" stroke="rgb(58,69,91)" stroke-width="1.51"/><path d="M-75,389L-181,529L15,520Z" fill="rgb(65,115,200)" stroke="rgb(65,115,200)" stroke-width="1.51"/><path d="M-182,278L-123,381L-75,389Z" fill="rgb(65,123,219)" stroke="rgb(65,123,219)" stroke-width="1.51"/><path d="M1692,-135L1959,-190L1574,-209Z" fill="rgb(65,90,141)" stroke="rgb(65,90,141)" stroke-width="1.51"/><path d="M1866,-63L1772,-98L1718,148Z" fill="rgb(65,89,139)" stroke="rgb(65,89,139)" stroke-width="1.51"/><path d="M117,1114L157,1247L228,1054Z" fill="rgb(67,90,139)" stroke="rgb(67,90,139)" stroke-width="1.51"/><path d="M-36,1027L45,1102L103,1005Z" fill="rgb(66,89,137)" stroke="rgb(66,89,137)" stroke-width="1.51"/><path d="M1860,784L1935,753L1836,653Z" fill="rgb(59,73,101)" stroke="rgb(59,73,101)" stroke-width="1.51"/><path d="M1854,601L1979,386L1806,358Z" fill="rgb(67,91,142)" stroke="rgb(67,91,142)" stroke-width="1.51"/><path d="M1820,159L1866,-63L1718,148Z" fill="rgb(66,91,143)" stroke="rgb(66,91,143)" stroke-width="1.51"/><path d="M2016,811L1935,753L1860,784Z" fill="rgb(59,71,96)" stroke="rgb(59,71,96)" stroke-width="1.51"/><path d="M-10,-113L-20,-76L66,10Z" fill="rgb(63,114,197)" stroke="rgb(63,114,197)" stroke-width="1.51"/><path d="M-46,173L-182,278L34,273Z" fill="rgb(64,120,212)" stroke="rgb(64,120,212)" stroke-width="1.51"/><path d="M-6,1272L157,1247L117,1114Z" fill="rgb(66,89,136)" stroke="rgb(66,89,136)" stroke-width="1.51"/><path d="M368,1237L157,1247L544,1285Z" fill="rgb(68,92,145)" stroke="rgb(68,92,145)" stroke-width="1.51"/><path d="M1986,589L1979,386L1854,601Z" fill="rgb(65,85,129)" stroke="rgb(65,85,129)" stroke-width="1.51"/><path d="M154,-213L-10,-113L66,10Z" fill="rgb(63,115,199)" stroke="rgb(63,115,199)" stroke-width="1.51"/><path d="M-44,816L-36,1027L89,824Z" fill="rgb(64,93,148)" stroke="rgb(64,93,148)" stroke-width="1.51"/><path d="M-123,381L-181,529L-75,389Z" fill="rgb(65,118,207)" stroke="rgb(65,118,207)" stroke-width="1.51"/><path d="M-182,278L-181,529L-123,381Z" fill="rgb(65,121,213)" stroke="rgb(65,121,213)" stroke-width="1.51"/><path d="M45,1102L-6,1272L117,1114Z" fill="rgb(66,88,135)" stroke="rgb(66,88,135)" stroke-width="1.51"/><path d="M-131,858L-36,1027L-44,816Z" fill="rgb(64,93,147)" stroke="rgb(64,93,147)" stroke-width="1.51"/><path d="M1935,753L1971,677L1836,653Z" fill="rgb(59,74,104)" stroke="rgb(59,74,104)" stroke-width="1.51"/><path d="M1971,677L1986,589L1854,601Z" fill="rgb(62,79,115)" stroke="rgb(62,79,115)" stroke-width="1.51"/><path d="M1979,386L1969,212L1806,358Z" fill="rgb(70,95,152)" stroke="rgb(70,95,152)" stroke-width="1.51"/><path d="M-197,71L-182,278L-46,173Z" fill="rgb(64,118,208)" stroke="rgb(64,118,208)" stroke-width="1.51"/><path d="M-102,-53L66,10L-20,-76Z" fill="rgb(63,114,197)" stroke="rgb(63,114,197)" stroke-width="1.51"/><path d="M-184,714L-44,816L-43,681Z" fill="rgb(62,98,160)" stroke="rgb(62,98,160)" stroke-width="1.51"/><path d="M1772,-98L1959,-190L1692,-135Z" fill="rgb(65,89,138)" stroke="rgb(65,89,138)" stroke-width="1.51"/><path d="M1988,110L1866,-63L1820,159Z" fill="rgb(66,90,138)" stroke="rgb(66,90,138)" stroke-width="1.51"/><path d="M-181,529L-184,714L-43,681Z" fill="rgb(63,104,174)" stroke="rgb(63,104,174)" stroke-width="1.51"/><path d="M-197,71L-184,714L-181,529Z" fill="rgb(65,118,206)" stroke="rgb(65,118,206)" stroke-width="1.51"/><path d="M1779,998L1941,1011L1860,784Z" fill="rgb(58,67,87)" stroke="rgb(58,67,87)" stroke-width="1.51"/><path d="M1935,753L2016,811L1971,677Z" fill="rgb(58,72,99)" stroke="rgb(58,72,99)" stroke-width="1.51"/><path d="M1616,1210L1835,1075L1586,1079Z" fill="rgb(57,66,84)" stroke="rgb(57,66,84)" stroke-width="1.51"/><path d="M-10,-113L-102,-53L-20,-76Z" fill="rgb(63,114,197)" stroke="rgb(63,114,197)" stroke-width="1.51"/><path d="M1928,1184L1875,1066L1835,1075Z" fill="rgb(56,62,75)" stroke="rgb(56,62,75)" stroke-width="1.51"/><path d="M1835,1075L1875,1066L1779,998Z" fill="rgb(57,64,80)" stroke="rgb(57,64,80)" stroke-width="1.51"/><path d="M1969,212L1988,110L1820,159Z" fill="rgb(68,91,142)" stroke="rgb(68,91,142)" stroke-width="1.51"/><path d="M1979,386L2016,212L1969,212Z" fill="rgb(69,94,149)" stroke="rgb(69,94,149)" stroke-width="1.51"/><path d="M2124,403L2016,212L1979,386Z" fill="rgb(70,96,153)" stroke="rgb(70,96,153)" stroke-width="1.51"/><path d="M2016,212L1988,110L1969,212Z" fill="rgb(68,91,143)" stroke="rgb(68,91,143)" stroke-width="1.51"/><path d="M2097,700L1986,589L1971,677Z" fill="rgb(61,77,110)" stroke="rgb(61,77,110)" stroke-width="1.51"/><path d="M2097,700L2049,472L1986,589Z" fill="rgb(64,81,120)" stroke="rgb(64,81,120)" stroke-width="1.51"/><path d="M1986,589L2049,472L1979,386Z" fill="rgb(67,88,135)" stroke="rgb(67,88,135)" stroke-width="1.51"/><path d="M1941,1011L2016,811L1860,784Z" fill="rgb(58,68,89)" stroke="rgb(58,68,89)" stroke-width="1.51"/><path d="M-182,278L-197,71L-181,529Z" fill="rgb(65,121,215)" stroke="rgb(65,121,215)" stroke-width="1.51"/><path d="M-102,-53L-197,71L-46,173Z" fill="rgb(64,115,201)" stroke="rgb(64,115,201)" stroke-width="1.51"/><path d="M1875,1066L1941,1011L1779,998Z" fill="rgb(57,64,80)" stroke="rgb(57,64,80)" stroke-width="1.51"/><path d="M-163,1114L-6,1272L45,1102Z" fill="rgb(65,87,133)" stroke="rgb(65,87,133)" stroke-width="1.51"/><path d="M-131,858L-172,947L-36,1027Z" fill="rgb(64,91,144)" stroke="rgb(64,91,144)" stroke-width="1.51"/><path d="M-184,714L-172,947L-131,858Z" fill="rgb(64,95,152)" stroke="rgb(64,95,152)" stroke-width="1.51"/><path d="M-102,-53L-148,-93L-197,71Z" fill="rgb(63,114,197)" stroke="rgb(63,114,197)" stroke-width="1.51"/><path d="M-10,-113L-148,-93L-102,-53Z" fill="rgb(63,114,197)" stroke="rgb(63,114,197)" stroke-width="1.51"/><path d="M154,-213L-148,-93L-10,-113Z" fill="rgb(63,114,197)" stroke="rgb(63,114,197)" stroke-width="1.51"/><path d="M-163,1114L45,1102L-36,1027Z" fill="rgb(65,87,133)" stroke="rgb(65,87,133)" stroke-width="1.51"/><path d="M157,1247L-6,1272L544,1285Z" fill="rgb(67,90,141)" stroke="rgb(67,90,141)" stroke-width="1.51"/><path d="M1866,-63L1959,-190L1772,-98Z" fill="rgb(66,88,135)" stroke="rgb(66,88,135)" stroke-width="1.51"/><path d="M1988,110L1999,-34L1866,-63Z" fill="rgb(65,87,134)" stroke="rgb(65,87,134)" stroke-width="1.51"/><path d="M2052,68L1999,-34L1988,110Z" fill="rgb(66,89,136)" stroke="rgb(66,89,136)" stroke-width="1.51"/><path d="M2052,68L1988,110L2016,212Z" fill="rgb(67,90,141)" stroke="rgb(67,90,141)" stroke-width="1.51"/><path d="M2016,811L2097,700L1971,677Z" fill="rgb(59,72,100)" stroke="rgb(59,72,100)" stroke-width="1.51"/><path d="M2124,403L2052,68L2016,212Z" fill="rgb(68,93,146)" stroke="rgb(68,93,146)" stroke-width="1.51"/><path d="M2039,983L2097,700L2016,811Z" fill="rgb(58,69,92)" stroke="rgb(58,69,92)" stroke-width="1.51"/><path d="M2124,403L1979,386L2049,472Z" fill="rgb(68,92,145)" stroke="rgb(68,92,145)" stroke-width="1.51"/><path d="M2097,700L2124,403L2049,472Z" fill="rgb(65,85,129)" stroke="rgb(65,85,129)" stroke-width="1.51"/><path d="M1941,1011L2039,983L2016,811Z" fill="rgb(57,66,84)" stroke="rgb(57,66,84)" stroke-width="1.51"/><path d="M2033,1081L2039,983L1941,1011Z" fill="rgb(57,63,78)" stroke="rgb(57,63,78)" stroke-width="1.51"/><path d="M1616,1210L1833,1288L1835,1075Z" fill="rgb(57,64,80)" stroke="rgb(57,64,80)" stroke-width="1.51"/><path d="M1377,1300L1833,1288L1616,1210Z" fill="rgb(58,67,87)" stroke="rgb(58,67,87)" stroke-width="1.51"/><path d="M-172,947L-163,1114L-36,1027Z" fill="rgb(65,89,137)" stroke="rgb(65,89,137)" stroke-width="1.51"/><path d="M2033,1081L1941,1011L1875,1066Z" fill="rgb(57,63,76)" stroke="rgb(57,63,76)" stroke-width="1.51"/><path d="M1999,-34L1959,-190L1866,-63Z" fill="rgb(65,87,133)" stroke="rgb(65,87,133)" stroke-width="1.51"/><path d="M2071,-161L1959,-190L1999,-34Z" fill="rgb(65,87,133)" stroke="rgb(65,87,133)" stroke-width="1.51"/><path d="M1833,1288L1928,1184L1835,1075Z" fill="rgb(57,63,76)" stroke="rgb(57,63,76)" stroke-width="1.51"/><path d="M2090,1175L2033,1081L1928,1184Z" fill="rgb(56,62,74)" stroke="rgb(56,62,74)" stroke-width="1.51"/><path d="M1928,1184L2033,1081L1875,1066Z" fill="rgb(56,62,74)" stroke="rgb(56,62,74)" stroke-width="1.51"/><path d="M2039,983L2090,1175L2097,700Z" fill="rgb(57,66,83)" stroke="rgb(57,66,83)" stroke-width="1.51"/><path d="M-172,947L-183,1207L-163,1114Z" fill="rgb(65,87,133)" stroke="rgb(65,87,133)" stroke-width="1.51"/><path d="M-163,1114L-183,1207L-6,1272Z" fill="rgb(65,87,133)" stroke="rgb(65,87,133)" stroke-width="1.51"/><path d="M-184,714L-183,1207L-172,947Z" fill="rgb(65,91,143)" stroke="rgb(65,91,143)" stroke-width="1.51"/><path d="M-197,71L-183,1207L-184,714Z" fill="rgb(63,102,171)" stroke="rgb(63,102,171)" stroke-width="1.51"/><path d="M2124,403L2130,-34L2052,68Z" fill="rgb(67,91,141)" stroke="rgb(67,91,141)" stroke-width="1.51"/><path d="M2052,68L2130,-34L1999,-34Z" fill="rgb(65,87,133)" stroke="rgb(65,87,133)" stroke-width="1.51"/><path d="M2130,-34L2071,-161L1999,-34Z" fill="rgb(65,87,133)" stroke="rgb(65,87,133)" stroke-width="1.51"/><path d="M1833,1288L2090,1175L1928,1184Z" fill="rgb(56,62,74)" stroke="rgb(56,62,74)" stroke-width="1.51"/><path d="M2033,1081L2090,1175L2039,983Z" fill="rgb(56,62,74)" stroke="rgb(56,62,74)" stroke-width="1.51"/><path d="M2097,700L2090,1175L2124,403Z" fill="rgb(58,72,98)" stroke="rgb(58,72,98)" stroke-width="1.51"/></svg>