<svg xmlns="http://www.w3.org/2000/svg" width="1920" height="1080"><path d="M944,513L1039,474L980,446Z" fill="rgb(255,210,57)" stroke="rgb(255,210,57)" stroke-width="1.51"/><path d="M1039,474L1089,406L980,446Z" fill="rgb(255,212,67)" stroke="rgb(255,212,67)" stroke-width="1.51"/><path d="M944,513L1038,624L1039,474Z" fill="rgb(255,208,39)" stroke="rgb(255,208,39)" stroke-width="1.51"/><path d="M1039,474L1206,533L1089,406Z" fill="rgb(255,213,61)" stroke="rgb(255,213,61)" stroke-width="1.51"/><path d="M944,513L908,690L1038,624Z" fill="rgb(255,210,40)" stroke="rgb(255,210,40)" stroke-width="1.51"/><path d="M792,367L820,539L944,513Z" fill="rgb(255,212,73)" stroke="rgb(255,212,73)" stroke-width="1.51"/><path d="M820,539L908,690L944,513Z" fill="rgb(255,210,51)" stroke="rgb(255,210,51)" stroke-width="1.51"/><path d="M1038,624L1206,533L1039,474Z" fill="rgb(255,210,40)" stroke="rgb(255,210,40)" stroke-width="1.51"/><path d="M1255,413L1054,275L1089,406Z" fill="rgb(255,218,87)" stroke="rgb(255,218,87)" stroke-width="1.51"/><path d="M1089,406L1054,275L980,446Z" fill="rgb(255,216,83)" stroke="rgb(255,216,83)" stroke-width="1.51"/><path d="M980,446L792,367L944,513Z" fill="rgb(255,212,73)" stroke="rgb(255,212,73)" stroke-width="1.51"/><path d="M870,262L792,367L980,446Z" fill="rgb(255,216,95)" stroke="rgb(255,216,95)" stroke-width="1.51"/><path d="M1054,275L1018,258L980,446Z" fill="rgb(255,217,93)" stroke="rgb(255,217,93)" stroke-width="1.51"/><path d="M820,539L826,686L908,690Z" fill="rgb(255,213,60)" stroke="rgb(255,213,60)" stroke-width="1.51"/><path d="M747,634L826,686L820,539Z" fill="rgb(255,214,67)" stroke="rgb(255,214,67)" stroke-width="1.51"/><path d="M1018,258L870,262L980,446Z" fill="rgb(255,216,93)" stroke="rgb(255,216,93)" stroke-width="1.51"/><path d="M1206,533L1255,413L1089,406Z" fill="rgb(255,216,68)" stroke="rgb(255,216,68)" stroke-width="1.51"/><path d="M656,585L747,634L820,539Z" fill="rgb(255,214,74)" stroke="rgb(255,214,74)" stroke-width="1.51"/><path d="M962,844L1156,794L1038,624Z" fill="rgb(255,218,49)" stroke="rgb(255,218,49)" stroke-width="1.51"/><path d="M1038,624L1273,700L1206,533Z" fill="rgb(255,215,46)" stroke="rgb(255,215,46)" stroke-width="1.51"/><path d="M826,686L884,768L908,690Z" fill="rgb(255,216,60)" stroke="rgb(255,216,60)" stroke-width="1.51"/><path d="M678,766L884,768L826,686Z" fill="rgb(255,219,72)" stroke="rgb(255,219,72)" stroke-width="1.51"/><path d="M664,265L658,421L792,367Z" fill="rgb(255,221,116)" stroke="rgb(255,221,116)" stroke-width="1.51"/><path d="M1018,258L928,164L870,262Z" fill="rgb(255,221,115)" stroke="rgb(255,221,115)" stroke-width="1.51"/><path d="M1068,101L928,164L1018,258Z" fill="rgb(255,224,124)" stroke="rgb(255,224,124)" stroke-width="1.51"/><path d="M1068,101L1018,258L1054,275Z" fill="rgb(255,223,117)" stroke="rgb(255,223,117)" stroke-width="1.51"/><path d="M962,844L1038,624L908,690Z" fill="rgb(255,214,45)" stroke="rgb(255,214,45)" stroke-width="1.51"/><path d="M1206,533L1325,423L1255,413Z" fill="rgb(255,217,68)" stroke="rgb(255,217,68)" stroke-width="1.51"/><path d="M1255,413L1278,217L1054,275Z" fill="rgb(255,222,102)" stroke="rgb(255,222,102)" stroke-width="1.51"/><path d="M1345,592L1325,423L1206,533Z" fill="rgb(255,216,53)" stroke="rgb(255,216,53)" stroke-width="1.51"/><path d="M792,367L658,421L820,539Z" fill="rgb(255,216,92)" stroke="rgb(255,216,92)" stroke-width="1.51"/><path d="M664,265L792,367L870,262Z" fill="rgb(255,222,119)" stroke="rgb(255,222,119)" stroke-width="1.51"/><path d="M1156,794L1273,700L1038,624Z" fill="rgb(255,218,50)" stroke="rgb(255,218,50)" stroke-width="1.51"/><path d="M658,421L656,585L820,539Z" fill="rgb(255,214,82)" stroke="rgb(255,214,82)" stroke-width="1.51"/><path d="M747,634L678,766L826,686Z" fill="rgb(255,218,76)" stroke="rgb(255,218,76)" stroke-width="1.51"/><path d="M884,768L962,844L908,690Z" fill="rgb(255,217,54)" stroke="rgb(255,217,54)" stroke-width="1.51"/><path d="M820,981L962,844L884,768Z" fill="rgb(255,221,63)" stroke="rgb(255,221,63)" stroke-width="1.51"/><path d="M1156,794L1214,778L1273,700Z" fill="rgb(255,221,53)" stroke="rgb(255,221,53)" stroke-width="1.51"/><path d="M1273,700L1345,592L1206,533Z" fill="rgb(255,217,48)" stroke="rgb(255,217,48)" stroke-width="1.51"/><path d="M1353,251L1278,217L1255,413Z" fill="rgb(255,225,106)" stroke="rgb(255,225,106)" stroke-width="1.51"/><path d="M766,104L664,265L870,262Z" fill="rgb(255,226,137)" stroke="rgb(255,226,137)" stroke-width="1.51"/><path d="M1278,217L1068,101L1054,275Z" fill="rgb(255,226,121)" stroke="rgb(255,226,121)" stroke-width="1.51"/><path d="M928,164L766,104L870,262Z" fill="rgb(255,225,134)" stroke="rgb(255,225,134)" stroke-width="1.51"/><path d="M656,585L678,766L747,634Z" fill="rgb(255,218,83)" stroke="rgb(255,218,83)" stroke-width="1.51"/><path d="M1278,217L1220,72L1068,101Z" fill="rgb(255,230,135)" stroke="rgb(255,230,135)" stroke-width="1.51"/><path d="M1325,423L1353,251L1255,413Z" fill="rgb(255,222,91)" stroke="rgb(255,222,91)" stroke-width="1.51"/><path d="M1550,401L1353,251L1325,423Z" fill="rgb(255,224,94)" stroke="rgb(255,224,94)" stroke-width="1.51"/><path d="M658,421L530,498L656,585Z" fill="rgb(255,217,96)" stroke="rgb(255,217,96)" stroke-width="1.51"/><path d="M656,585L583,715L678,766Z" fill="rgb(255,220,90)" stroke="rgb(255,220,90)" stroke-width="1.51"/><path d="M664,265L552,407L658,421Z" fill="rgb(255,222,123)" stroke="rgb(255,222,123)" stroke-width="1.51"/><path d="M962,844L996,946L1156,794Z" fill="rgb(255,221,54)" stroke="rgb(255,221,54)" stroke-width="1.51"/><path d="M1277,992L1359,830L1214,778Z" fill="rgb(255,227,59)" stroke="rgb(255,227,59)" stroke-width="1.51"/><path d="M820,981L996,946L962,844Z" fill="rgb(255,223,60)" stroke="rgb(255,223,60)" stroke-width="1.51"/><path d="M800,26L766,104L928,164Z" fill="rgb(255,229,151)" stroke="rgb(255,229,151)" stroke-width="1.51"/><path d="M664,265L553,253L552,407Z" fill="rgb(255,226,137)" stroke="rgb(255,226,137)" stroke-width="1.51"/><path d="M552,407L530,498L658,421Z" fill="rgb(255,220,112)" stroke="rgb(255,220,112)" stroke-width="1.51"/><path d="M678,766L820,981L884,768Z" fill="rgb(255,223,75)" stroke="rgb(255,223,75)" stroke-width="1.51"/><path d="M530,498L583,715L656,585Z" fill="rgb(255,218,93)" stroke="rgb(255,218,93)" stroke-width="1.51"/><path d="M1345,592L1541,505L1325,423Z" fill="rgb(255,218,58)" stroke="rgb(255,218,58)" stroke-width="1.51"/><path d="M1273,700L1433,671L1345,592Z" fill="rgb(255,220,52)" stroke="rgb(255,220,52)" stroke-width="1.51"/><path d="M1359,830L1433,671L1273,700Z" fill="rgb(255,223,56)" stroke="rgb(255,223,56)" stroke-width="1.51"/><path d="M1359,830L1273,700L1214,778Z" fill="rgb(255,223,55)" stroke="rgb(255,223,55)" stroke-width="1.51"/><path d="M1353,251L1344,172L1278,217Z" fill="rgb(255,229,122)" stroke="rgb(255,229,122)" stroke-width="1.51"/><path d="M1536,272L1344,172L1353,251Z" fill="rgb(255,230,120)" stroke="rgb(255,230,120)" stroke-width="1.51"/><path d="M1002,-68L800,26L928,164Z" fill="rgb(255,229,153)" stroke="rgb(255,229,153)" stroke-width="1.51"/><path d="M1344,172L1220,72L1278,217Z" fill="rgb(255,231,132)" stroke="rgb(255,231,132)" stroke-width="1.51"/><path d="M1277,992L1214,778L1156,794Z" fill="rgb(255,225,57)" stroke="rgb(255,225,57)" stroke-width="1.51"/><path d="M1220,72L1163,28L1068,101Z" fill="rgb(255,231,147)" stroke="rgb(255,231,147)" stroke-width="1.51"/><path d="M766,104L616,165L664,265Z" fill="rgb(255,229,152)" stroke="rgb(255,229,152)" stroke-width="1.51"/><path d="M616,165L553,253L664,265Z" fill="rgb(255,229,150)" stroke="rgb(255,229,150)" stroke-width="1.51"/><path d="M552,407L467,426L530,498Z" fill="rgb(255,221,119)" stroke="rgb(255,221,119)" stroke-width="1.51"/><path d="M996,946L1133,981L1156,794Z" fill="rgb(255,225,57)" stroke="rgb(255,225,57)" stroke-width="1.51"/><path d="M766,104L604,37L616,165Z" fill="rgb(255,233,168)" stroke="rgb(255,233,168)" stroke-width="1.51"/><path d="M1002,-68L928,164L1068,101Z" fill="rgb(255,228,144)" stroke="rgb(255,228,144)" stroke-width="1.51"/><path d="M692,972L820,981L678,766Z" fill="rgb(255,227,86)" stroke="rgb(255,227,86)" stroke-width="1.51"/><path d="M996,946L1067,1086L1133,981Z" fill="rgb(255,228,60)" stroke="rgb(255,228,60)" stroke-width="1.51"/><path d="M553,253L467,426L552,407Z" fill="rgb(255,225,134)" stroke="rgb(255,225,134)" stroke-width="1.51"/><path d="M530,498L436,713L583,715Z" fill="rgb(255,221,103)" stroke="rgb(255,221,103)" stroke-width="1.51"/><path d="M1433,671L1541,505L1345,592Z" fill="rgb(255,220,51)" stroke="rgb(255,220,51)" stroke-width="1.51"/><path d="M1534,651L1541,505L1433,671Z" fill="rgb(255,222,54)" stroke="rgb(255,222,54)" stroke-width="1.51"/><path d="M479,833L692,972L678,766Z" fill="rgb(255,227,99)" stroke="rgb(255,227,99)" stroke-width="1.51"/><path d="M1454,887L1534,651L1433,671Z" fill="rgb(255,226,59)" stroke="rgb(255,226,59)" stroke-width="1.51"/><path d="M1163,28L1002,-68L1068,101Z" fill="rgb(255,232,154)" stroke="rgb(255,232,154)" stroke-width="1.51"/><path d="M1614,349L1550,401L1679,494Z" fill="rgb(255,227,86)" stroke="rgb(255,227,86)" stroke-width="1.51"/><path d="M1541,505L1550,401L1325,423Z" fill="rgb(255,222,76)" stroke="rgb(255,222,76)" stroke-width="1.51"/><path d="M1133,981L1277,992L1156,794Z" fill="rgb(255,227,60)" stroke="rgb(255,227,60)" stroke-width="1.51"/><path d="M1359,830L1454,887L1433,671Z" fill="rgb(255,227,60)" stroke="rgb(255,227,60)" stroke-width="1.51"/><path d="M1292,1134L1277,992L1133,981Z" fill="rgb(255,233,66)" stroke="rgb(255,233,66)" stroke-width="1.51"/><path d="M820,981L1011,1084L996,946Z" fill="rgb(255,226,60)" stroke="rgb(255,226,60)" stroke-width="1.51"/><path d="M692,972L797,1037L820,981Z" fill="rgb(255,230,85)" stroke="rgb(255,230,85)" stroke-width="1.51"/><path d="M1346,-81L1286,-72L1220,72Z" fill="rgb(255,237,162)" stroke="rgb(255,237,162)" stroke-width="1.51"/><path d="M1239,-160L1038,-111L1163,28Z" fill="rgb(255,234,159)" stroke="rgb(255,234,159)" stroke-width="1.51"/><path d="M1550,401L1536,272L1353,251Z" fill="rgb(255,228,106)" stroke="rgb(255,228,106)" stroke-width="1.51"/><path d="M797,1037L1011,1084L820,981Z" fill="rgb(255,228,71)" stroke="rgb(255,228,71)" stroke-width="1.51"/><path d="M1011,1084L1067,1086L996,946Z" fill="rgb(255,228,61)" stroke="rgb(255,228,61)" stroke-width="1.51"/><path d="M361,562L436,713L530,498Z" fill="rgb(255,221,109)" stroke="rgb(255,221,109)" stroke-width="1.51"/><path d="M583,715L479,833L678,766Z" fill="rgb(255,225,100)" stroke="rgb(255,225,100)" stroke-width="1.51"/><path d="M553,253L406,202L467,426Z" fill="rgb(255,229,152)" stroke="rgb(255,229,152)" stroke-width="1.51"/><path d="M616,165L517,69L553,253Z" fill="rgb(255,233,167)" stroke="rgb(255,233,167)" stroke-width="1.51"/><path d="M800,26L604,37L766,104Z" fill="rgb(255,234,170)" stroke="rgb(255,234,170)" stroke-width="1.51"/><path d="M638,-49L604,37L800,26Z" fill="rgb(255,237,184)" stroke="rgb(255,237,184)" stroke-width="1.51"/><path d="M1394,1004L1454,887L1359,830Z" fill="rgb(255,231,64)" stroke="rgb(255,231,64)" stroke-width="1.51"/><path d="M1002,-68L881,-141L800,26Z" fill="rgb(255,232,162)" stroke="rgb(255,232,162)" stroke-width="1.51"/><path d="M1163,28L1038,-111L1002,-68Z" fill="rgb(255,233,158)" stroke="rgb(255,233,158)" stroke-width="1.51"/><path d="M1286,-72L1163,28L1220,72Z" fill="rgb(255,236,159)" stroke="rgb(255,236,159)" stroke-width="1.51"/><path d="M436,713L479,833L583,715Z" fill="rgb(255,226,109)" stroke="rgb(255,226,109)" stroke-width="1.51"/><path d="M436,713L369,761L479,833Z" fill="rgb(255,229,117)" stroke="rgb(255,229,117)" stroke-width="1.51"/><path d="M467,426L361,562L530,498Z" fill="rgb(255,221,115)" stroke="rgb(255,221,115)" stroke-width="1.51"/><path d="M322,437L361,562L467,426Z" fill="rgb(255,223,127)" stroke="rgb(255,223,127)" stroke-width="1.51"/><path d="M1550,401L1614,349L1536,272Z" fill="rgb(255,229,101)" stroke="rgb(255,229,101)" stroke-width="1.51"/><path d="M1679,494L1550,401L1541,505Z" fill="rgb(255,224,73)" stroke="rgb(255,224,73)" stroke-width="1.51"/><path d="M604,37L517,69L616,165Z" fill="rgb(255,236,179)" stroke="rgb(255,236,179)" stroke-width="1.51"/><path d="M1346,-81L1220,72L1344,172Z" fill="rgb(255,235,152)" stroke="rgb(255,235,152)" stroke-width="1.51"/><path d="M1524,96L1344,172L1536,272Z" fill="rgb(255,233,131)" stroke="rgb(255,233,131)" stroke-width="1.51"/><path d="M998,-174L881,-141L1002,-68Z" fill="rgb(255,230,156)" stroke="rgb(255,230,156)" stroke-width="1.51"/><path d="M604,37L445,-30L517,69Z" fill="rgb(255,240,197)" stroke="rgb(255,240,197)" stroke-width="1.51"/><path d="M998,-174L1002,-68L1038,-111Z" fill="rgb(255,231,156)" stroke="rgb(255,231,156)" stroke-width="1.51"/><path d="M1292,1134L1394,1004L1277,992Z" fill="rgb(255,235,67)" stroke="rgb(255,235,67)" stroke-width="1.51"/><path d="M1277,992L1394,1004L1359,830Z" fill="rgb(255,231,64)" stroke="rgb(255,231,64)" stroke-width="1.51"/><path d="M667,-172L638,-49L800,26Z" fill="rgb(255,237,182)" stroke="rgb(255,237,182)" stroke-width="1.51"/><path d="M1394,1004L1455,955L1454,887Z" fill="rgb(255,234,66)" stroke="rgb(255,234,66)" stroke-width="1.51"/><path d="M1717,782L1632,659L1534,651Z" fill="rgb(255,228,60)" stroke="rgb(255,228,60)" stroke-width="1.51"/><path d="M1534,651L1632,659L1541,505Z" fill="rgb(255,223,56)" stroke="rgb(255,223,56)" stroke-width="1.51"/><path d="M517,69L406,202L553,253Z" fill="rgb(255,234,172)" stroke="rgb(255,234,172)" stroke-width="1.51"/><path d="M1717,782L1534,651L1454,887Z" fill="rgb(255,230,63)" stroke="rgb(255,230,63)" stroke-width="1.51"/><path d="M1597,163L1524,96L1536,272Z" fill="rgb(255,236,133)" stroke="rgb(255,236,133)" stroke-width="1.51"/><path d="M479,833L589,1028L692,972Z" fill="rgb(255,231,105)" stroke="rgb(255,231,105)" stroke-width="1.51"/><path d="M692,972L685,1103L797,1037Z" fill="rgb(255,232,92)" stroke="rgb(255,232,92)" stroke-width="1.51"/><path d="M797,1037L877,1189L1011,1084Z" fill="rgb(255,230,71)" stroke="rgb(255,230,71)" stroke-width="1.51"/><path d="M1239,-160L998,-174L1038,-111Z" fill="rgb(255,233,158)" stroke="rgb(255,233,158)" stroke-width="1.51"/><path d="M406,202L322,437L467,426Z" fill="rgb(255,228,148)" stroke="rgb(255,228,148)" stroke-width="1.51"/><path d="M1286,-72L1239,-160L1163,28Z" fill="rgb(255,236,161)" stroke="rgb(255,236,161)" stroke-width="1.51"/><path d="M1504,29L1346,-81L1344,172Z" fill="rgb(255,238,156)" stroke="rgb(255,238,156)" stroke-width="1.51"/><path d="M479,833L460,979L589,1028Z" fill="rgb(255,234,114)" stroke="rgb(255,234,114)" stroke-width="1.51"/><path d="M296,621L369,761L436,713Z" fill="rgb(255,227,122)" stroke="rgb(255,227,122)" stroke-width="1.51"/><path d="M296,621L436,713L361,562Z" fill="rgb(255,225,120)" stroke="rgb(255,225,120)" stroke-width="1.51"/><path d="M589,1028L685,1103L692,972Z" fill="rgb(255,234,100)" stroke="rgb(255,234,100)" stroke-width="1.51"/><path d="M1011,1084L1080,1259L1067,1086Z" fill="rgb(255,230,63)" stroke="rgb(255,230,63)" stroke-width="1.51"/><path d="M1654,223L1597,163L1536,272Z" fill="rgb(255,235,126)" stroke="rgb(255,235,126)" stroke-width="1.51"/><path d="M1632,659L1679,494L1541,505Z" fill="rgb(255,222,54)" stroke="rgb(255,222,54)" stroke-width="1.51"/><path d="M1524,96L1504,29L1344,172Z" fill="rgb(255,237,147)" stroke="rgb(255,237,147)" stroke-width="1.51"/><path d="M1654,223L1536,272L1614,349Z" fill="rgb(255,232,113)" stroke="rgb(255,232,113)" stroke-width="1.51"/><path d="M1722,-64L1504,29L1524,96Z" fill="rgb(255,243,163)" stroke="rgb(255,243,163)" stroke-width="1.51"/><path d="M1346,-81L1239,-160L1286,-72Z" fill="rgb(255,237,162)" stroke="rgb(255,237,162)" stroke-width="1.51"/><path d="M1344,-211L1239,-160L1346,-81Z" fill="rgb(255,238,162)" stroke="rgb(255,238,162)" stroke-width="1.51"/><path d="M1067,1086L1292,1134L1133,981Z" fill="rgb(255,232,65)" stroke="rgb(255,232,65)" stroke-width="1.51"/><path d="M685,1103L877,1189L797,1037Z" fill="rgb(255,232,85)" stroke="rgb(255,232,85)" stroke-width="1.51"/><path d="M1080,1259L1292,1134L1067,1086Z" fill="rgb(255,232,65)" stroke="rgb(255,232,65)" stroke-width="1.51"/><path d="M1394,1004L1472,1102L1455,955Z" fill="rgb(255,236,69)" stroke="rgb(255,236,69)" stroke-width="1.51"/><path d="M290,590L296,621L361,562Z" fill="rgb(255,225,124)" stroke="rgb(255,225,124)" stroke-width="1.51"/><path d="M322,437L290,590L361,562Z" fill="rgb(255,223,123)" stroke="rgb(255,223,123)" stroke-width="1.51"/><path d="M1782,334L1654,223L1614,349Z" fill="rgb(255,233,111)" stroke="rgb(255,233,111)" stroke-width="1.51"/><path d="M1722,-64L1490,-123L1504,29Z" fill="rgb(255,244,167)" stroke="rgb(255,244,167)" stroke-width="1.51"/><path d="M589,1028L574,1223L685,1103Z" fill="rgb(255,236,106)" stroke="rgb(255,236,106)" stroke-width="1.51"/><path d="M329,850L460,979L479,833Z" fill="rgb(255,233,122)" stroke="rgb(255,233,122)" stroke-width="1.51"/><path d="M329,850L479,833L369,761Z" fill="rgb(255,231,123)" stroke="rgb(255,231,123)" stroke-width="1.51"/><path d="M406,202L212,232L322,437Z" fill="rgb(255,233,169)" stroke="rgb(255,233,169)" stroke-width="1.51"/><path d="M60,475L162,711L290,590Z" fill="rgb(255,228,139)" stroke="rgb(255,228,139)" stroke-width="1.51"/><path d="M517,69L371,120L406,202Z" fill="rgb(255,238,187)" stroke="rgb(255,238,187)" stroke-width="1.51"/><path d="M445,-30L371,120L517,69Z" fill="rgb(255,241,199)" stroke="rgb(255,241,199)" stroke-width="1.51"/><path d="M877,1189L933,1226L1011,1084Z" fill="rgb(255,229,64)" stroke="rgb(255,229,64)" stroke-width="1.51"/><path d="M683,1221L933,1226L877,1189Z" fill="rgb(255,231,80)" stroke="rgb(255,231,80)" stroke-width="1.51"/><path d="M638,-49L445,-30L604,37Z" fill="rgb(255,240,197)" stroke="rgb(255,240,197)" stroke-width="1.51"/><path d="M881,-141L667,-172L800,26Z" fill="rgb(255,234,174)" stroke="rgb(255,234,174)" stroke-width="1.51"/><path d="M998,-174L667,-172L881,-141Z" fill="rgb(255,233,167)" stroke="rgb(255,233,167)" stroke-width="1.51"/><path d="M162,711L369,761L296,621Z" fill="rgb(255,230,132)" stroke="rgb(255,230,132)" stroke-width="1.51"/><path d="M161,802L329,850L369,761Z" fill="rgb(255,234,134)" stroke="rgb(255,234,134)" stroke-width="1.51"/><path d="M539,-146L445,-30L638,-49Z" fill="rgb(255,241,199)" stroke="rgb(255,241,199)" stroke-width="1.51"/><path d="M1292,1134L1364,1161L1394,1004Z" fill="rgb(255,237,70)" stroke="rgb(255,237,70)" stroke-width="1.51"/><path d="M1713,1002L1717,782L1454,887Z" fill="rgb(255,235,68)" stroke="rgb(255,235,68)" stroke-width="1.51"/><path d="M1273,1295L1364,1161L1292,1134Z" fill="rgb(255,236,69)" stroke="rgb(255,236,69)" stroke-width="1.51"/><path d="M405,1091L495,1080L460,979Z" fill="rgb(255,239,124)" stroke="rgb(255,239,124)" stroke-width="1.51"/><path d="M460,979L495,1080L589,1028Z" fill="rgb(255,236,116)" stroke="rgb(255,236,116)" stroke-width="1.51"/><path d="M685,1103L683,1221L877,1189Z" fill="rgb(255,233,90)" stroke="rgb(255,233,90)" stroke-width="1.51"/><path d="M933,1226L1080,1259L1011,1084Z" fill="rgb(255,229,62)" stroke="rgb(255,229,62)" stroke-width="1.51"/><path d="M1364,1161L1472,1102L1394,1004Z" fill="rgb(255,238,71)" stroke="rgb(255,238,71)" stroke-width="1.51"/><path d="M1632,659L1791,636L1679,494Z" fill="rgb(255,225,58)" stroke="rgb(255,225,58)" stroke-width="1.51"/><path d="M1679,494L1782,334L1614,349Z" fill="rgb(255,229,92)" stroke="rgb(255,229,92)" stroke-width="1.51"/><path d="M1713,1002L1454,887L1455,955Z" fill="rgb(255,236,69)" stroke="rgb(255,236,69)" stroke-width="1.51"/><path d="M667,-172L539,-146L638,-49Z" fill="rgb(255,239,191)" stroke="rgb(255,239,191)" stroke-width="1.51"/><path d="M574,1223L683,1221L685,1103Z" fill="rgb(255,236,103)" stroke="rgb(255,236,103)" stroke-width="1.51"/><path d="M933,1226L437,1289L1080,1259Z" fill="rgb(255,232,82)" stroke="rgb(255,232,82)" stroke-width="1.51"/><path d="M1239,-160L1344,-211L998,-174Z" fill="rgb(255,235,160)" stroke="rgb(255,235,160)" stroke-width="1.51"/><path d="M998,-174L1344,-211L667,-172Z" fill="rgb(255,231,156)" stroke="rgb(255,231,156)" stroke-width="1.51"/><path d="M1490,-123L1344,-211L1346,-81Z" fill="rgb(255,240,164)" stroke="rgb(255,240,164)" stroke-width="1.51"/><path d="M1490,-123L1346,-81L1504,29Z" fill="rgb(255,241,165)" stroke="rgb(255,241,165)" stroke-width="1.51"/><path d="M1722,-64L1524,96L1597,163Z" fill="rgb(255,242,156)" stroke="rgb(255,242,156)" stroke-width="1.51"/><path d="M1842,501L1782,334L1679,494Z" fill="rgb(255,229,82)" stroke="rgb(255,229,82)" stroke-width="1.51"/><path d="M1654,223L1754,162L1597,163Z" fill="rgb(255,238,134)" stroke="rgb(255,238,134)" stroke-width="1.51"/><path d="M1717,782L1791,636L1632,659Z" fill="rgb(255,230,62)" stroke="rgb(255,230,62)" stroke-width="1.51"/><path d="M261,73L212,232L371,120Z" fill="rgb(255,241,200)" stroke="rgb(255,241,200)" stroke-width="1.51"/><path d="M371,120L212,232L406,202Z" fill="rgb(255,238,187)" stroke="rgb(255,238,187)" stroke-width="1.51"/><path d="M290,590L162,711L296,621Z" fill="rgb(255,228,132)" stroke="rgb(255,228,132)" stroke-width="1.51"/><path d="M301,15L371,120L445,-30Z" fill="rgb(255,244,210)" stroke="rgb(255,244,210)" stroke-width="1.51"/><path d="M1782,334L1754,162L1654,223Z" fill="rgb(255,237,125)" stroke="rgb(255,237,125)" stroke-width="1.51"/><path d="M539,-146L441,-130L445,-30Z" fill="rgb(255,242,206)" stroke="rgb(255,242,206)" stroke-width="1.51"/><path d="M206,-136L441,-130L119,-214Z" fill="rgb(255,248,228)" stroke="rgb(255,248,228)" stroke-width="1.51"/><path d="M495,1080L574,1223L589,1028Z" fill="rgb(255,238,114)" stroke="rgb(255,238,114)" stroke-width="1.51"/><path d="M326,1037L405,1091L460,979Z" fill="rgb(255,240,130)" stroke="rgb(255,240,130)" stroke-width="1.51"/><path d="M683,1221L437,1289L933,1226Z" fill="rgb(255,235,98)" stroke="rgb(255,235,98)" stroke-width="1.51"/><path d="M437,1289L574,1223L495,1080Z" fill="rgb(255,239,119)" stroke="rgb(255,239,119)" stroke-width="1.51"/><path d="M441,-130L301,15L445,-30Z" fill="rgb(255,244,214)" stroke="rgb(255,244,214)" stroke-width="1.51"/><path d="M301,15L261,73L371,120Z" fill="rgb(255,243,210)" stroke="rgb(255,243,210)" stroke-width="1.51"/><path d="M1364,1161L1416,1237L1472,1102Z" fill="rgb(255,238,71)" stroke="rgb(255,238,71)" stroke-width="1.51"/><path d="M1080,1259L1273,1295L1292,1134Z" fill="rgb(255,234,67)" stroke="rgb(255,234,67)" stroke-width="1.51"/><path d="M437,1289L1273,1295L1080,1259Z" fill="rgb(255,229,66)" stroke="rgb(255,229,66)" stroke-width="1.51"/><path d="M1791,636L1842,501L1679,494Z" fill="rgb(255,225,58)" stroke="rgb(255,225,58)" stroke-width="1.51"/><path d="M1782,334L1831,203L1754,162Z" fill="rgb(255,238,126)" stroke="rgb(255,238,126)" stroke-width="1.51"/><path d="M1273,1295L1416,1237L1364,1161Z" fill="rgb(255,237,70)" stroke="rgb(255,237,70)" stroke-width="1.51"/><path d="M1472,1102L1713,1002L1455,955Z" fill="rgb(255,238,72)" stroke="rgb(255,238,72)" stroke-width="1.51"/><path d="M60,475L290,590L322,437Z" fill="rgb(255,226,140)" stroke="rgb(255,226,140)" stroke-width="1.51"/><path d="M329,850L326,1037L460,979Z" fill="rgb(255,237,130)" stroke="rgb(255,237,130)" stroke-width="1.51"/><path d="M405,1091L437,1289L495,1080Z" fill="rgb(255,240,126)" stroke="rgb(255,240,126)" stroke-width="1.51"/><path d="M263,1014L326,1037L329,850Z" fill="rgb(255,239,137)" stroke="rgb(255,239,137)" stroke-width="1.51"/><path d="M1748,1037L1713,1002L1722,1109Z" fill="rgb(255,244,77)" stroke="rgb(255,244,77)" stroke-width="1.51"/><path d="M1717,782L1834,843L1791,636Z" fill="rgb(255,234,66)" stroke="rgb(255,234,66)" stroke-width="1.51"/><path d="M1791,636L1894,505L1842,501Z" fill="rgb(255,227,60)" stroke="rgb(255,227,60)" stroke-width="1.51"/><path d="M212,232L119,369L322,437Z" fill="rgb(255,234,169)" stroke="rgb(255,234,169)" stroke-width="1.51"/><path d="M62,291L119,369L212,232Z" fill="rgb(255,238,187)" stroke="rgb(255,238,187)" stroke-width="1.51"/><path d="M162,711L161,802L369,761Z" fill="rgb(255,233,138)" stroke="rgb(255,233,138)" stroke-width="1.51"/><path d="M40,881L161,802L162,711Z" fill="rgb(255,238,152)" stroke="rgb(255,238,152)" stroke-width="1.51"/><path d="M1884,177L1831,203L1989,270Z" fill="rgb(255,241,132)" stroke="rgb(255,241,132)" stroke-width="1.51"/><path d="M1754,162L1722,-64L1597,163Z" fill="rgb(255,243,153)" stroke="rgb(255,243,153)" stroke-width="1.51"/><path d="M317,1262L437,1289L405,1091Z" fill="rgb(255,242,132)" stroke="rgb(255,242,132)" stroke-width="1.51"/><path d="M159,992L263,1014L329,850Z" fill="rgb(255,240,143)" stroke="rgb(255,240,143)" stroke-width="1.51"/><path d="M1842,501L1981,362L1782,334Z" fill="rgb(255,233,94)" stroke="rgb(255,233,94)" stroke-width="1.51"/><path d="M1968,650L1894,505L1791,636Z" fill="rgb(255,229,62)" stroke="rgb(255,229,62)" stroke-width="1.51"/><path d="M1416,1237L1468,1266L1472,1102Z" fill="rgb(255,239,72)" stroke="rgb(255,239,72)" stroke-width="1.51"/><path d="M1273,1295L1468,1266L1416,1237Z" fill="rgb(255,237,70)" stroke="rgb(255,237,70)" stroke-width="1.51"/><path d="M1713,1002L1834,843L1717,782Z" fill="rgb(255,238,71)" stroke="rgb(255,238,71)" stroke-width="1.51"/><path d="M1848,-18L1722,-64L1754,162Z" fill="rgb(255,247,166)" stroke="rgb(255,247,166)" stroke-width="1.51"/><path d="M1490,-123L1713,-187L1344,-211Z" fill="rgb(255,242,166)" stroke="rgb(255,242,166)" stroke-width="1.51"/><path d="M1713,1002L1860,911L1834,843Z" fill="rgb(255,240,74)" stroke="rgb(255,240,74)" stroke-width="1.51"/><path d="M1722,1109L1713,1002L1472,1102Z" fill="rgb(255,242,76)" stroke="rgb(255,242,76)" stroke-width="1.51"/><path d="M119,369L60,475L322,437Z" fill="rgb(255,231,159)" stroke="rgb(255,231,159)" stroke-width="1.51"/><path d="M29,400L60,475L119,369Z" fill="rgb(255,234,172)" stroke="rgb(255,234,172)" stroke-width="1.51"/><path d="M1831,203L1884,177L1754,162Z" fill="rgb(255,241,138)" stroke="rgb(255,241,138)" stroke-width="1.51"/><path d="M1989,270L1831,203L1782,334Z" fill="rgb(255,238,121)" stroke="rgb(255,238,121)" stroke-width="1.51"/><path d="M261,73L95,182L212,232Z" fill="rgb(255,242,205)" stroke="rgb(255,242,205)" stroke-width="1.51"/><path d="M301,15L171,25L261,73Z" fill="rgb(255,246,222)" stroke="rgb(255,246,222)" stroke-width="1.51"/><path d="M206,-136L171,25L301,15Z" fill="rgb(255,249,231)" stroke="rgb(255,249,231)" stroke-width="1.51"/><path d="M1860,911L1877,838L1834,843Z" fill="rgb(255,239,72)" stroke="rgb(255,239,72)" stroke-width="1.51"/><path d="M1834,843L1877,838L1791,636Z" fill="rgb(255,235,68)" stroke="rgb(255,235,68)" stroke-width="1.51"/><path d="M171,25L95,182L261,73Z" fill="rgb(255,246,220)" stroke="rgb(255,246,220)" stroke-width="1.51"/><path d="M95,182L62,291L212,232Z" fill="rgb(255,240,199)" stroke="rgb(255,240,199)" stroke-width="1.51"/><path d="M1748,1037L1860,911L1713,1002Z" fill="rgb(255,242,75)" stroke="rgb(255,242,75)" stroke-width="1.51"/><path d="M1674,1290L1722,1109L1472,1102Z" fill="rgb(255,242,76)" stroke="rgb(255,242,76)" stroke-width="1.51"/><path d="M1980,934L1860,911L1949,1082Z" fill="rgb(255,245,78)" stroke="rgb(255,245,78)" stroke-width="1.51"/><path d="M62,291L29,400L119,369Z" fill="rgb(255,237,182)" stroke="rgb(255,237,182)" stroke-width="1.51"/><path d="M40,881L159,992L161,802Z" fill="rgb(255,241,154)" stroke="rgb(255,241,154)" stroke-width="1.51"/><path d="M574,1223L437,1289L683,1221Z" fill="rgb(255,238,112)" stroke="rgb(255,238,112)" stroke-width="1.51"/><path d="M317,1262L405,1091L326,1037Z" fill="rgb(255,243,137)" stroke="rgb(255,243,137)" stroke-width="1.51"/><path d="M263,1014L317,1262L326,1037Z" fill="rgb(255,244,141)" stroke="rgb(255,244,141)" stroke-width="1.51"/><path d="M161,802L159,992L329,850Z" fill="rgb(255,239,144)" stroke="rgb(255,239,144)" stroke-width="1.51"/><path d="M40,881L162,711L-68,652Z" fill="rgb(255,237,158)" stroke="rgb(255,237,158)" stroke-width="1.51"/><path d="M1877,838L1968,650L1791,636Z" fill="rgb(255,234,66)" stroke="rgb(255,234,66)" stroke-width="1.51"/><path d="M1894,505L1981,362L1842,501Z" fill="rgb(255,231,82)" stroke="rgb(255,231,82)" stroke-width="1.51"/><path d="M2044,792L1968,650L1877,838Z" fill="rgb(255,237,70)" stroke="rgb(255,237,70)" stroke-width="1.51"/><path d="M1722,-64L1713,-187L1490,-123Z" fill="rgb(255,246,168)" stroke="rgb(255,246,168)" stroke-width="1.51"/><path d="M1822,-96L1713,-187L1722,-64Z" fill="rgb(255,248,171)" stroke="rgb(255,248,171)" stroke-width="1.51"/><path d="M1884,177L1848,-18L1754,162Z" fill="rgb(255,245,152)" stroke="rgb(255,245,152)" stroke-width="1.51"/><path d="M2014,370L1981,362L1894,505Z" fill="rgb(255,234,92)" stroke="rgb(255,234,92)" stroke-width="1.51"/><path d="M1950,28L1848,-18L1884,177Z" fill="rgb(255,248,162)" stroke="rgb(255,248,162)" stroke-width="1.51"/><path d="M-91,333L-55,316L-185,213Z" fill="rgb(255,242,202)" stroke="rgb(255,242,202)" stroke-width="1.51"/><path d="M441,-130L206,-136L301,15Z" fill="rgb(255,246,222)" stroke="rgb(255,246,222)" stroke-width="1.51"/><path d="M119,-214L441,-130L539,-146Z" fill="rgb(255,245,217)" stroke="rgb(255,245,217)" stroke-width="1.51"/><path d="M1848,-18L1822,-96L1722,-64Z" fill="rgb(255,249,172)" stroke="rgb(255,249,172)" stroke-width="1.51"/><path d="M1873,-102L1822,-96L1848,-18Z" fill="rgb(255,250,172)" stroke="rgb(255,250,172)" stroke-width="1.51"/><path d="M137,1071L317,1262L263,1014Z" fill="rgb(255,245,148)" stroke="rgb(255,245,148)" stroke-width="1.51"/><path d="M1981,362L1989,270L1782,334Z" fill="rgb(255,238,111)" stroke="rgb(255,238,111)" stroke-width="1.51"/><path d="M2014,370L1989,270L1981,362Z" fill="rgb(255,237,109)" stroke="rgb(255,237,109)" stroke-width="1.51"/><path d="M159,992L137,1071L263,1014Z" fill="rgb(255,245,152)" stroke="rgb(255,245,152)" stroke-width="1.51"/><path d="M-68,652L162,711L60,475Z" fill="rgb(255,232,152)" stroke="rgb(255,232,152)" stroke-width="1.51"/><path d="M2081,596L2014,370L1894,505Z" fill="rgb(255,230,74)" stroke="rgb(255,230,74)" stroke-width="1.51"/><path d="M-38,1086L137,1071L159,992Z" fill="rgb(255,248,164)" stroke="rgb(255,248,164)" stroke-width="1.51"/><path d="M1860,911L1980,934L1877,838Z" fill="rgb(255,241,75)" stroke="rgb(255,241,75)" stroke-width="1.51"/><path d="M1722,1109L1769,1196L1748,1037Z" fill="rgb(255,245,79)" stroke="rgb(255,245,79)" stroke-width="1.51"/><path d="M1674,1290L1769,1196L1722,1109Z" fill="rgb(255,244,78)" stroke="rgb(255,244,78)" stroke-width="1.51"/><path d="M1273,1295L1674,1290L1468,1266Z" fill="rgb(255,239,72)" stroke="rgb(255,239,72)" stroke-width="1.51"/><path d="M1468,1266L1674,1290L1472,1102Z" fill="rgb(255,240,74)" stroke="rgb(255,240,74)" stroke-width="1.51"/><path d="M29,400L-77,545L60,475Z" fill="rgb(255,233,167)" stroke="rgb(255,233,167)" stroke-width="1.51"/><path d="M62,291L-55,316L29,400Z" fill="rgb(255,239,192)" stroke="rgb(255,239,192)" stroke-width="1.51"/><path d="M-41,123L-55,316L62,291Z" fill="rgb(255,244,210)" stroke="rgb(255,244,210)" stroke-width="1.51"/><path d="M62,291L95,182L-41,123Z" fill="rgb(255,245,214)" stroke="rgb(255,245,214)" stroke-width="1.51"/><path d="M1822,-96L1873,-102L1713,-187Z" fill="rgb(255,249,172)" stroke="rgb(255,249,172)" stroke-width="1.51"/><path d="M1950,28L1873,-102L1848,-18Z" fill="rgb(255,251,173)" stroke="rgb(255,251,173)" stroke-width="1.51"/><path d="M2050,71L1884,177L1989,270Z" fill="rgb(255,244,141)" stroke="rgb(255,244,141)" stroke-width="1.51"/><path d="M2050,71L1950,28L1884,177Z" fill="rgb(255,247,156)" stroke="rgb(255,247,156)" stroke-width="1.51"/><path d="M-91,333L-77,545L29,400Z" fill="rgb(255,235,177)" stroke="rgb(255,235,177)" stroke-width="1.51"/><path d="M-77,545L-68,652L60,475Z" fill="rgb(255,231,156)" stroke="rgb(255,231,156)" stroke-width="1.51"/><path d="M1949,1082L1860,911L1748,1037Z" fill="rgb(255,245,78)" stroke="rgb(255,245,78)" stroke-width="1.51"/><path d="M1968,650L2081,596L1894,505Z" fill="rgb(255,230,62)" stroke="rgb(255,230,62)" stroke-width="1.51"/><path d="M1980,934L2044,792L1877,838Z" fill="rgb(255,240,73)" stroke="rgb(255,240,73)" stroke-width="1.51"/><path d="M-77,545L-95,600L-68,652Z" fill="rgb(255,233,158)" stroke="rgb(255,233,158)" stroke-width="1.51"/><path d="M-140,883L-57,941L40,881Z" fill="rgb(255,244,168)" stroke="rgb(255,244,168)" stroke-width="1.51"/><path d="M-139,640L-95,600L-77,545Z" fill="rgb(255,232,157)" stroke="rgb(255,232,157)" stroke-width="1.51"/><path d="M2112,617L2081,596L1968,650Z" fill="rgb(255,231,64)" stroke="rgb(255,231,64)" stroke-width="1.51"/><path d="M2097,193L2050,71L1989,270Z" fill="rgb(255,243,140)" stroke="rgb(255,243,140)" stroke-width="1.51"/><path d="M-55,316L-91,333L29,400Z" fill="rgb(255,239,191)" stroke="rgb(255,239,191)" stroke-width="1.51"/><path d="M-41,123L95,182L171,25Z" fill="rgb(255,248,226)" stroke="rgb(255,248,226)" stroke-width="1.51"/><path d="M-62,-64L-41,123L171,25Z" fill="rgb(255,253,247)" stroke="rgb(255,253,247)" stroke-width="1.51"/><path d="M1980,934L2082,1017L2044,792Z" fill="rgb(255,242,76)" stroke="rgb(255,242,76)" stroke-width="1.51"/><path d="M1769,1196L1949,1082L1748,1037Z" fill="rgb(255,247,80)" stroke="rgb(255,247,80)" stroke-width="1.51"/><path d="M1889,1275L1949,1082L1769,1196Z" fill="rgb(255,248,81)" stroke="rgb(255,248,81)" stroke-width="1.51"/><path d="M206,-136L35,-119L171,25Z" fill="rgb(255,251,241)" stroke="rgb(255,251,241)" stroke-width="1.51"/><path d="M667,-172L119,-214L539,-146Z" fill="rgb(255,243,209)" stroke="rgb(255,243,209)" stroke-width="1.51"/><path d="M1344,-211L119,-214L667,-172Z" fill="rgb(255,237,181)" stroke="rgb(255,237,181)" stroke-width="1.51"/><path d="M2044,792L2112,617L1968,650Z" fill="rgb(255,234,67)" stroke="rgb(255,234,67)" stroke-width="1.51"/><path d="M2081,596L2112,617L2014,370Z" fill="rgb(255,229,64)" stroke="rgb(255,229,64)" stroke-width="1.51"/><path d="M2082,1017L2112,617L2044,792Z" fill="rgb(255,238,72)" stroke="rgb(255,238,72)" stroke-width="1.51"/><path d="M119,-214L35,-119L206,-136Z" fill="rgb(255,252,242)" stroke="rgb(255,252,242)" stroke-width="1.51"/><path d="M1950,28L2107,8L1873,-102Z" fill="rgb(255,252,174)" stroke="rgb(255,252,174)" stroke-width="1.51"/><path d="M2097,193L1989,270L2014,370Z" fill="rgb(255,239,121)" stroke="rgb(255,239,121)" stroke-width="1.51"/><path d="M40,881L-57,941L159,992Z" fill="rgb(255,245,164)" stroke="rgb(255,245,164)" stroke-width="1.51"/><path d="M137,1071L69,1217L317,1262Z" fill="rgb(255,247,155)" stroke="rgb(255,247,155)" stroke-width="1.51"/><path d="M-140,883L40,881L-68,652Z" fill="rgb(255,241,164)" stroke="rgb(255,241,164)" stroke-width="1.51"/><path d="M-95,600L-139,640L-68,652Z" fill="rgb(255,234,159)" stroke="rgb(255,234,159)" stroke-width="1.51"/><path d="M-91,333L-139,640L-77,545Z" fill="rgb(255,232,162)" stroke="rgb(255,232,162)" stroke-width="1.51"/><path d="M2112,617L2097,193L2014,370Z" fill="rgb(255,234,96)" stroke="rgb(255,234,96)" stroke-width="1.51"/><path d="M-91,333L-185,213L-139,640Z" fill="rgb(255,237,182)" stroke="rgb(255,237,182)" stroke-width="1.51"/><path d="M-41,123L-185,213L-55,316Z" fill="rgb(255,245,215)" stroke="rgb(255,245,215)" stroke-width="1.51"/><path d="M-62,-64L-99,101L-41,123Z" fill="rgb(255,252,245)" stroke="rgb(255,252,245)" stroke-width="1.51"/><path d="M-38,1086L69,1217L137,1071Z" fill="rgb(255,250,168)" stroke="rgb(255,250,168)" stroke-width="1.51"/><path d="M317,1262L-30,1284L437,1289Z" fill="rgb(255,245,148)" stroke="rgb(255,245,148)" stroke-width="1.51"/><path d="M-57,941L-38,1086L159,992Z" fill="rgb(255,248,169)" stroke="rgb(255,248,169)" stroke-width="1.51"/><path d="M-127,1023L-38,1086L-57,941Z" fill="rgb(255,249,172)" stroke="rgb(255,249,172)" stroke-width="1.51"/><path d="M1949,1082L2082,1017L1980,934Z" fill="rgb(255,246,80)" stroke="rgb(255,246,80)" stroke-width="1.51"/><path d="M1674,1290L1889,1275L1769,1196Z" fill="rgb(255,246,79)" stroke="rgb(255,246,79)" stroke-width="1.51"/><path d="M35,-119L-62,-64L171,25Z" fill="rgb(255,253,250)" stroke="rgb(255,253,250)" stroke-width="1.51"/><path d="M-162,-205L-62,-64L35,-119Z" fill="rgb(255,255,255)" stroke="rgb(255,255,255)" stroke-width="1.51"/><path d="M-139,640L-140,883L-68,652Z" fill="rgb(255,237,162)" stroke="rgb(255,237,162)" stroke-width="1.51"/><path d="M2047,1098L2082,1017L1949,1082Z" fill="rgb(255,249,82)" stroke="rgb(255,249,82)" stroke-width="1.51"/><path d="M-99,101L-185,213L-41,123Z" fill="rgb(255,248,228)" stroke="rgb(255,248,228)" stroke-width="1.51"/><path d="M-139,640L-173,1084L-140,883Z" fill="rgb(255,243,167)" stroke="rgb(255,243,167)" stroke-width="1.51"/><path d="M-122,-31L-185,213L-99,101Z" fill="rgb(255,250,237)" stroke="rgb(255,250,237)" stroke-width="1.51"/><path d="M1889,1275L2047,1098L1949,1082Z" fill="rgb(255,249,82)" stroke="rgb(255,249,82)" stroke-width="1.51"/><path d="M2050,71L2107,8L1950,28Z" fill="rgb(255,250,167)" stroke="rgb(255,250,167)" stroke-width="1.51"/><path d="M1873,-102L2129,-189L1713,-187Z" fill="rgb(255,251,173)" stroke="rgb(255,251,173)" stroke-width="1.51"/><path d="M2097,193L2107,8L2050,71Z" fill="rgb(255,247,157)" stroke="rgb(255,247,157)" stroke-width="1.51"/><path d="M2129,-189L2107,8L2097,193Z" fill="rgb(255,252,173)" stroke="rgb(255,252,173)" stroke-width="1.51"/><path d="M-62,-64L-122,-31L-99,101Z" fill="rgb(255,255,254)" stroke="rgb(255,255,254)" stroke-width="1.51"/><path d="M-162,-205L-122,-31L-62,-64Z" fill="rgb(255,255,255)" stroke="rgb(255,255,255)" stroke-width="1.51"/><path d="M-38,1086L-30,1284L69,1217Z" fill="rgb(255,252,174)" stroke="rgb(255,252,174)" stroke-width="1.51"/><path d="M-140,883L-127,1023L-57,941Z" fill="rgb(255,247,169)" stroke="rgb(255,247,169)" stroke-width="1.51"/><path d="M-173,1084L-30,1284L-38,1086Z" fill="rgb(255,252,174)" stroke="rgb(255,252,174)" stroke-width="1.51"/><path d="M69,1217L-30,1284L317,1262Z" fill="rgb(255,249,161)" stroke="rgb(255,249,161)" stroke-width="1.51"/><path d="M-127,1023L-173,1084L-38,1086Z" fill="rgb(255,251,173)" stroke="rgb(255,251,173)" stroke-width="1.51"/><path d="M-140,883L-173,1084L-127,1023Z" fill="rgb(255,249,171)" stroke="rgb(255,249,171)" stroke-width="1.51"/><path d="M-212,1257L-173,1084L-139,640Z" fill="rgb(255,248,171)" stroke="rgb(255,248,171)" stroke-width="1.51"/><path d="M2107,8L2129,-189L1873,-102Z" fill="rgb(255,252,174)" stroke="rgb(255,252,174)" stroke-width="1.51"/><path d="M1713,-187L2129,-189L1344,-211Z" fill="rgb(255,248,170)" stroke="rgb(255,248,170)" stroke-width="1.51"/><path d="M2112,617L2129,-189L2097,193Z" fill="rgb(255,242,134)" stroke="rgb(255,242,134)" stroke-width="1.51"/><path d="M119,-214L-162,-205L35,-119Z" fill="rgb(255,255,255)" stroke="rgb(255,255,255)" stroke-width="1.51"/><path d="M-122,-31L-162,-205L-185,213Z" fill="rgb(255,255,255)" stroke="rgb(255,255,255)" stroke-width="1.51"/><path d="M1889,1275L2138,1241L2047,1098Z" fill="rgb(255,249,82)" stroke="rgb(255,249,82)" stroke-width="1.51"/><path d="M2047,1098L2138,1241L2082,1017Z" fill="rgb(255,249,82)" stroke="rgb(255,249,82)" stroke-width="1.51"/><path d="M2082,1017L2138,1241L2112,617Z" fill="rgb(255,244,78)" stroke="rgb(255,244,78)" stroke-width="1.51"/><path d="M2112,617L2138,1241L2129,-189Z" fill="rgb(255,229,62)" stroke="rgb(255,229,62)" stroke-width="1.51"/><path d="M-173,1084L-212,1257L-30,1284Z" fill="rgb(255,252,174)" stroke="rgb(255,252,174)" stroke-width="1.51"/><path d="M-185,213L-212,1257L-139,640Z" fill="rgb(255,237,161)" stroke="rgb(255,237,161)" stroke-width="1.51"/></svg>