<svg xmlns="http://www.w3.org/2000/svg" width="1920" height="1080"><path d="M985,500L971,661L1079,568Z" fill="rgb(217,217,217)" stroke="rgb(217,217,217)" stroke-width="1.51"/><path d="M971,661L1040,678L1079,568Z" fill="rgb(214,214,214)" stroke="rgb(214,214,214)" stroke-width="1.51"/><path d="M985,500L863,627L971,661Z" fill="rgb(217,217,217)" stroke="rgb(217,217,217)" stroke-width="1.51"/><path d="M985,500L848,604L863,627Z" fill="rgb(219,219,219)" stroke="rgb(219,219,219)" stroke-width="1.51"/><path d="M1040,678L1177,662L1079,568Z" fill="rgb(213,213,213)" stroke="rgb(213,213,213)" stroke-width="1.51"/><path d="M985,500L759,385L848,604Z" fill="rgb(222,222,222)" stroke="rgb(222,222,222)" stroke-width="1.51"/><path d="M998,327L946,351L985,500Z" fill="rgb(223,223,223)" stroke="rgb(223,223,223)" stroke-width="1.51"/><path d="M998,327L985,500L1101,349Z" fill="rgb(222,222,222)" stroke="rgb(222,222,222)" stroke-width="1.51"/><path d="M1101,349L985,500L1079,568Z" fill="rgb(219,219,219)" stroke="rgb(219,219,219)" stroke-width="1.51"/><path d="M1306,484L1101,349L1079,568Z" fill="rgb(218,218,218)" stroke="rgb(218,218,218)" stroke-width="1.51"/><path d="M971,661L894,831L1040,678Z" fill="rgb(213,213,213)" stroke="rgb(213,213,213)" stroke-width="1.51"/><path d="M1040,678L1076,873L1177,662Z" fill="rgb(210,210,210)" stroke="rgb(210,210,210)" stroke-width="1.51"/><path d="M863,627L894,831L971,661Z" fill="rgb(214,214,214)" stroke="rgb(214,214,214)" stroke-width="1.51"/><path d="M877,845L894,831L679,752Z" fill="rgb(212,212,212)" stroke="rgb(212,212,212)" stroke-width="1.51"/><path d="M894,831L1076,873L1040,678Z" fill="rgb(209,209,209)" stroke="rgb(209,209,209)" stroke-width="1.51"/><path d="M679,752L894,831L863,627Z" fill="rgb(215,215,215)" stroke="rgb(215,215,215)" stroke-width="1.51"/><path d="M1008,939L1076,873L894,831Z" fill="rgb(207,207,207)" stroke="rgb(207,207,207)" stroke-width="1.51"/><path d="M759,385L696,541L848,604Z" fill="rgb(223,223,223)" stroke="rgb(223,223,223)" stroke-width="1.51"/><path d="M848,604L676,657L863,627Z" fill="rgb(219,219,219)" stroke="rgb(219,219,219)" stroke-width="1.51"/><path d="M946,351L759,385L985,500Z" fill="rgb(224,224,224)" stroke="rgb(224,224,224)" stroke-width="1.51"/><path d="M819,316L759,385L946,351Z" fill="rgb(227,227,227)" stroke="rgb(227,227,227)" stroke-width="1.51"/><path d="M938,148L819,316L946,351Z" fill="rgb(229,229,229)" stroke="rgb(229,229,229)" stroke-width="1.51"/><path d="M1177,662L1306,484L1079,568Z" fill="rgb(214,214,214)" stroke="rgb(214,214,214)" stroke-width="1.51"/><path d="M1323,546L1306,484L1177,662Z" fill="rgb(212,212,212)" stroke="rgb(212,212,212)" stroke-width="1.51"/><path d="M1339,737L1323,546L1177,662Z" fill="rgb(209,209,209)" stroke="rgb(209,209,209)" stroke-width="1.51"/><path d="M1306,484L1212,332L1101,349Z" fill="rgb(219,219,219)" stroke="rgb(219,219,219)" stroke-width="1.51"/><path d="M1101,349L1069,207L998,327Z" fill="rgb(225,225,225)" stroke="rgb(225,225,225)" stroke-width="1.51"/><path d="M998,327L938,148L946,351Z" fill="rgb(227,227,227)" stroke="rgb(227,227,227)" stroke-width="1.51"/><path d="M696,541L676,657L848,604Z" fill="rgb(221,221,221)" stroke="rgb(221,221,221)" stroke-width="1.51"/><path d="M877,845L1008,939L894,831Z" fill="rgb(208,208,208)" stroke="rgb(208,208,208)" stroke-width="1.51"/><path d="M1076,873L1266,822L1177,662Z" fill="rgb(207,207,207)" stroke="rgb(207,207,207)" stroke-width="1.51"/><path d="M1167,966L1266,822L1076,873Z" fill="rgb(203,203,203)" stroke="rgb(203,203,203)" stroke-width="1.51"/><path d="M676,657L679,752L863,627Z" fill="rgb(218,218,218)" stroke="rgb(218,218,218)" stroke-width="1.51"/><path d="M877,845L801,916L1008,939Z" fill="rgb(208,208,208)" stroke="rgb(208,208,208)" stroke-width="1.51"/><path d="M1266,822L1339,737L1177,662Z" fill="rgb(207,207,207)" stroke="rgb(207,207,207)" stroke-width="1.51"/><path d="M1212,332L1069,207L1101,349Z" fill="rgb(224,224,224)" stroke="rgb(224,224,224)" stroke-width="1.51"/><path d="M679,752L801,916L877,845Z" fill="rgb(212,212,212)" stroke="rgb(212,212,212)" stroke-width="1.51"/><path d="M1212,332L1238,153L1069,207Z" fill="rgb(225,225,225)" stroke="rgb(225,225,225)" stroke-width="1.51"/><path d="M1306,484L1268,299L1212,332Z" fill="rgb(219,219,219)" stroke="rgb(219,219,219)" stroke-width="1.51"/><path d="M1404,307L1268,299L1306,484Z" fill="rgb(218,218,218)" stroke="rgb(218,218,218)" stroke-width="1.51"/><path d="M676,657L598,695L679,752Z" fill="rgb(219,219,219)" stroke="rgb(219,219,219)" stroke-width="1.51"/><path d="M696,541L588,595L676,657Z" fill="rgb(222,222,222)" stroke="rgb(222,222,222)" stroke-width="1.51"/><path d="M514,444L588,595L696,541Z" fill="rgb(226,226,226)" stroke="rgb(226,226,226)" stroke-width="1.51"/><path d="M588,595L598,695L676,657Z" fill="rgb(222,222,222)" stroke="rgb(222,222,222)" stroke-width="1.51"/><path d="M679,752L716,917L801,916Z" fill="rgb(212,212,212)" stroke="rgb(212,212,212)" stroke-width="1.51"/><path d="M1008,939L1167,966L1076,873Z" fill="rgb(204,204,204)" stroke="rgb(204,204,204)" stroke-width="1.51"/><path d="M1382,937L1444,754L1339,737Z" fill="rgb(202,202,202)" stroke="rgb(202,202,202)" stroke-width="1.51"/><path d="M1167,1069L1167,966L1008,939Z" fill="rgb(201,201,201)" stroke="rgb(201,201,201)" stroke-width="1.51"/><path d="M759,385L643,348L696,541Z" fill="rgb(228,228,228)" stroke="rgb(228,228,228)" stroke-width="1.51"/><path d="M698,268L643,348L759,385Z" fill="rgb(231,231,231)" stroke="rgb(231,231,231)" stroke-width="1.51"/><path d="M698,268L759,385L819,316Z" fill="rgb(229,229,229)" stroke="rgb(229,229,229)" stroke-width="1.51"/><path d="M783,72L698,268L819,316Z" fill="rgb(233,233,233)" stroke="rgb(233,233,233)" stroke-width="1.51"/><path d="M571,860L716,917L679,752Z" fill="rgb(214,214,214)" stroke="rgb(214,214,214)" stroke-width="1.51"/><path d="M801,916L969,1052L1008,939Z" fill="rgb(205,205,205)" stroke="rgb(205,205,205)" stroke-width="1.51"/><path d="M1069,207L938,148L998,327Z" fill="rgb(228,228,228)" stroke="rgb(228,228,228)" stroke-width="1.51"/><path d="M1167,966L1222,969L1266,822Z" fill="rgb(201,201,201)" stroke="rgb(201,201,201)" stroke-width="1.51"/><path d="M816,1059L969,1052L801,916Z" fill="rgb(206,206,206)" stroke="rgb(206,206,206)" stroke-width="1.51"/><path d="M1167,966L1188,1040L1222,969Z" fill="rgb(200,200,200)" stroke="rgb(200,200,200)" stroke-width="1.51"/><path d="M1382,937L1339,737L1266,822Z" fill="rgb(202,202,202)" stroke="rgb(202,202,202)" stroke-width="1.51"/><path d="M1339,737L1504,598L1323,546Z" fill="rgb(208,208,208)" stroke="rgb(208,208,208)" stroke-width="1.51"/><path d="M1442,336L1404,307L1306,484Z" fill="rgb(216,216,216)" stroke="rgb(216,216,216)" stroke-width="1.51"/><path d="M1238,153L1073,104L1069,207Z" fill="rgb(229,229,229)" stroke="rgb(229,229,229)" stroke-width="1.51"/><path d="M1069,207L1073,104L938,148Z" fill="rgb(230,230,230)" stroke="rgb(230,230,230)" stroke-width="1.51"/><path d="M1268,299L1238,153L1212,332Z" fill="rgb(223,223,223)" stroke="rgb(223,223,223)" stroke-width="1.51"/><path d="M1504,598L1306,484L1323,546Z" fill="rgb(211,211,211)" stroke="rgb(211,211,211)" stroke-width="1.51"/><path d="M1406,142L1238,153L1268,299Z" fill="rgb(224,224,224)" stroke="rgb(224,224,224)" stroke-width="1.51"/><path d="M1222,969L1382,937L1266,822Z" fill="rgb(201,201,201)" stroke="rgb(201,201,201)" stroke-width="1.51"/><path d="M1167,1069L1188,1040L1167,966Z" fill="rgb(199,199,199)" stroke="rgb(199,199,199)" stroke-width="1.51"/><path d="M535,257L514,444L643,348Z" fill="rgb(233,233,233)" stroke="rgb(233,233,233)" stroke-width="1.51"/><path d="M643,348L514,444L696,541Z" fill="rgb(228,228,228)" stroke="rgb(228,228,228)" stroke-width="1.51"/><path d="M588,595L441,629L598,695Z" fill="rgb(223,223,223)" stroke="rgb(223,223,223)" stroke-width="1.51"/><path d="M1444,754L1504,598L1339,737Z" fill="rgb(205,205,205)" stroke="rgb(205,205,205)" stroke-width="1.51"/><path d="M1404,307L1406,142L1268,299Z" fill="rgb(221,221,221)" stroke="rgb(221,221,221)" stroke-width="1.51"/><path d="M1504,598L1442,336L1306,484Z" fill="rgb(212,212,212)" stroke="rgb(212,212,212)" stroke-width="1.51"/><path d="M716,917L816,1059L801,916Z" fill="rgb(208,208,208)" stroke="rgb(208,208,208)" stroke-width="1.51"/><path d="M598,695L571,860L679,752Z" fill="rgb(218,218,218)" stroke="rgb(218,218,218)" stroke-width="1.51"/><path d="M457,796L571,860L598,695Z" fill="rgb(219,219,219)" stroke="rgb(219,219,219)" stroke-width="1.51"/><path d="M732,1121L816,1059L716,917Z" fill="rgb(207,207,207)" stroke="rgb(207,207,207)" stroke-width="1.51"/><path d="M1408,1074L1382,937L1222,969Z" fill="rgb(197,197,197)" stroke="rgb(197,197,197)" stroke-width="1.51"/><path d="M969,1052L1167,1069L1008,939Z" fill="rgb(202,202,202)" stroke="rgb(202,202,202)" stroke-width="1.51"/><path d="M1060,1215L1167,1069L969,1052Z" fill="rgb(199,199,199)" stroke="rgb(199,199,199)" stroke-width="1.51"/><path d="M1408,1074L1222,969L1188,1040Z" fill="rgb(197,197,197)" stroke="rgb(197,197,197)" stroke-width="1.51"/><path d="M1444,754L1550,730L1504,598Z" fill="rgb(204,204,204)" stroke="rgb(204,204,204)" stroke-width="1.51"/><path d="M698,268L535,257L643,348Z" fill="rgb(233,233,233)" stroke="rgb(233,233,233)" stroke-width="1.51"/><path d="M783,72L668,145L698,268Z" fill="rgb(236,236,236)" stroke="rgb(236,236,236)" stroke-width="1.51"/><path d="M783,72L819,316L938,148Z" fill="rgb(233,233,233)" stroke="rgb(233,233,233)" stroke-width="1.51"/><path d="M932,24L783,72L938,148Z" fill="rgb(236,236,236)" stroke="rgb(236,236,236)" stroke-width="1.51"/><path d="M410,570L441,629L588,595Z" fill="rgb(226,226,226)" stroke="rgb(226,226,226)" stroke-width="1.51"/><path d="M1073,104L932,24L938,148Z" fill="rgb(233,233,233)" stroke="rgb(233,233,233)" stroke-width="1.51"/><path d="M1035,-5L932,24L1073,104Z" fill="rgb(234,234,234)" stroke="rgb(234,234,234)" stroke-width="1.51"/><path d="M668,145L535,257L698,268Z" fill="rgb(235,235,235)" stroke="rgb(235,235,235)" stroke-width="1.51"/><path d="M514,444L410,570L588,595Z" fill="rgb(227,227,227)" stroke="rgb(227,227,227)" stroke-width="1.51"/><path d="M1504,598L1556,347L1442,336Z" fill="rgb(212,212,212)" stroke="rgb(212,212,212)" stroke-width="1.51"/><path d="M1561,831L1550,730L1444,754Z" fill="rgb(201,201,201)" stroke="rgb(201,201,201)" stroke-width="1.51"/><path d="M1382,937L1450,937L1444,754Z" fill="rgb(199,199,199)" stroke="rgb(199,199,199)" stroke-width="1.51"/><path d="M1408,1074L1450,937L1382,937Z" fill="rgb(196,196,196)" stroke="rgb(196,196,196)" stroke-width="1.51"/><path d="M441,629L457,796L598,695Z" fill="rgb(222,222,222)" stroke="rgb(222,222,222)" stroke-width="1.51"/><path d="M571,860L601,1120L716,917Z" fill="rgb(211,211,211)" stroke="rgb(211,211,211)" stroke-width="1.51"/><path d="M371,449L410,570L514,444Z" fill="rgb(230,230,230)" stroke="rgb(230,230,230)" stroke-width="1.51"/><path d="M311,842L388,923L457,796Z" fill="rgb(219,219,219)" stroke="rgb(219,219,219)" stroke-width="1.51"/><path d="M1298,-41L1035,-5L1073,104Z" fill="rgb(233,233,233)" stroke="rgb(233,233,233)" stroke-width="1.51"/><path d="M457,796L499,907L571,860Z" fill="rgb(217,217,217)" stroke="rgb(217,217,217)" stroke-width="1.51"/><path d="M866,1258L1060,1215L969,1052Z" fill="rgb(201,201,201)" stroke="rgb(201,201,201)" stroke-width="1.51"/><path d="M601,1120L732,1121L716,917Z" fill="rgb(207,207,207)" stroke="rgb(207,207,207)" stroke-width="1.51"/><path d="M1490,142L1406,142L1404,307Z" fill="rgb(222,222,222)" stroke="rgb(222,222,222)" stroke-width="1.51"/><path d="M1238,153L1298,-41L1073,104Z" fill="rgb(230,230,230)" stroke="rgb(230,230,230)" stroke-width="1.51"/><path d="M1554,252L1404,307L1442,336Z" fill="rgb(217,217,217)" stroke="rgb(217,217,217)" stroke-width="1.51"/><path d="M1610,343L1556,347L1660,539Z" fill="rgb(211,211,211)" stroke="rgb(211,211,211)" stroke-width="1.51"/><path d="M1450,937L1561,831L1444,754Z" fill="rgb(199,199,199)" stroke="rgb(199,199,199)" stroke-width="1.51"/><path d="M1660,539L1556,347L1504,598Z" fill="rgb(209,209,209)" stroke="rgb(209,209,209)" stroke-width="1.51"/><path d="M535,257L445,270L514,444Z" fill="rgb(234,234,234)" stroke="rgb(234,234,234)" stroke-width="1.51"/><path d="M516,65L445,270L535,257Z" fill="rgb(239,239,239)" stroke="rgb(239,239,239)" stroke-width="1.51"/><path d="M516,65L535,257L668,145Z" fill="rgb(239,239,239)" stroke="rgb(239,239,239)" stroke-width="1.51"/><path d="M866,1258L969,1052L816,1059Z" fill="rgb(203,203,203)" stroke="rgb(203,203,203)" stroke-width="1.51"/><path d="M1167,1069L1408,1074L1188,1040Z" fill="rgb(196,196,196)" stroke="rgb(196,196,196)" stroke-width="1.51"/><path d="M311,842L457,796L441,629Z" fill="rgb(222,222,222)" stroke="rgb(222,222,222)" stroke-width="1.51"/><path d="M445,270L371,449L514,444Z" fill="rgb(233,233,233)" stroke="rgb(233,233,233)" stroke-width="1.51"/><path d="M1450,937L1698,891L1561,831Z" fill="rgb(196,196,196)" stroke="rgb(196,196,196)" stroke-width="1.51"/><path d="M1366,1249L1408,1074L1167,1069Z" fill="rgb(195,195,195)" stroke="rgb(195,195,195)" stroke-width="1.51"/><path d="M783,72L680,-29L668,145Z" fill="rgb(239,239,239)" stroke="rgb(239,239,239)" stroke-width="1.51"/><path d="M932,24L774,-21L783,72Z" fill="rgb(238,238,238)" stroke="rgb(238,238,238)" stroke-width="1.51"/><path d="M968,-104L774,-21L932,24Z" fill="rgb(238,238,238)" stroke="rgb(238,238,238)" stroke-width="1.51"/><path d="M1556,347L1554,252L1442,336Z" fill="rgb(216,216,216)" stroke="rgb(216,216,216)" stroke-width="1.51"/><path d="M1660,539L1504,598L1676,665Z" fill="rgb(205,205,205)" stroke="rgb(205,205,205)" stroke-width="1.51"/><path d="M1556,347L1610,343L1554,252Z" fill="rgb(215,215,215)" stroke="rgb(215,215,215)" stroke-width="1.51"/><path d="M1697,110L1490,142L1554,252Z" fill="rgb(220,220,220)" stroke="rgb(220,220,220)" stroke-width="1.51"/><path d="M1554,252L1490,142L1404,307Z" fill="rgb(219,219,219)" stroke="rgb(219,219,219)" stroke-width="1.51"/><path d="M1406,142L1323,-11L1238,153Z" fill="rgb(227,227,227)" stroke="rgb(227,227,227)" stroke-width="1.51"/><path d="M1676,665L1504,598L1550,730Z" fill="rgb(203,203,203)" stroke="rgb(203,203,203)" stroke-width="1.51"/><path d="M732,1121L866,1258L816,1059Z" fill="rgb(204,204,204)" stroke="rgb(204,204,204)" stroke-width="1.51"/><path d="M499,907L601,1120L571,860Z" fill="rgb(213,213,213)" stroke="rgb(213,213,213)" stroke-width="1.51"/><path d="M1490,142L1323,-11L1406,142Z" fill="rgb(226,226,226)" stroke="rgb(226,226,226)" stroke-width="1.51"/><path d="M1035,-5L968,-104L932,24Z" fill="rgb(236,236,236)" stroke="rgb(236,236,236)" stroke-width="1.51"/><path d="M1561,831L1676,665L1550,730Z" fill="rgb(201,201,201)" stroke="rgb(201,201,201)" stroke-width="1.51"/><path d="M1708,886L1676,665L1561,831Z" fill="rgb(198,198,198)" stroke="rgb(198,198,198)" stroke-width="1.51"/><path d="M1152,-206L968,-104L1035,-5Z" fill="rgb(235,235,235)" stroke="rgb(235,235,235)" stroke-width="1.51"/><path d="M672,1222L866,1258L732,1121Z" fill="rgb(205,205,205)" stroke="rgb(205,205,205)" stroke-width="1.51"/><path d="M774,-21L680,-29L783,72Z" fill="rgb(241,241,241)" stroke="rgb(241,241,241)" stroke-width="1.51"/><path d="M674,-214L680,-29L774,-21Z" fill="rgb(241,241,241)" stroke="rgb(241,241,241)" stroke-width="1.51"/><path d="M1323,-11L1298,-41L1238,153Z" fill="rgb(230,230,230)" stroke="rgb(230,230,230)" stroke-width="1.51"/><path d="M1351,-145L1298,-41L1323,-11Z" fill="rgb(230,230,230)" stroke="rgb(230,230,230)" stroke-width="1.51"/><path d="M499,907L346,1142L601,1120Z" fill="rgb(211,211,211)" stroke="rgb(211,211,211)" stroke-width="1.51"/><path d="M457,796L388,923L499,907Z" fill="rgb(217,217,217)" stroke="rgb(217,217,217)" stroke-width="1.51"/><path d="M311,842L441,629L210,729Z" fill="rgb(224,224,224)" stroke="rgb(224,224,224)" stroke-width="1.51"/><path d="M1490,142L1582,38L1323,-11Z" fill="rgb(225,225,225)" stroke="rgb(225,225,225)" stroke-width="1.51"/><path d="M1610,343L1623,259L1554,252Z" fill="rgb(216,216,216)" stroke="rgb(216,216,216)" stroke-width="1.51"/><path d="M1796,246L1623,259L1610,343Z" fill="rgb(214,214,214)" stroke="rgb(214,214,214)" stroke-width="1.51"/><path d="M262,330L235,471L371,449Z" fill="rgb(235,235,235)" stroke="rgb(235,235,235)" stroke-width="1.51"/><path d="M680,-29L516,65L668,145Z" fill="rgb(241,241,241)" stroke="rgb(241,241,241)" stroke-width="1.51"/><path d="M1060,1215L1173,1269L1167,1069Z" fill="rgb(198,198,198)" stroke="rgb(198,198,198)" stroke-width="1.51"/><path d="M933,1301L1173,1269L1060,1215Z" fill="rgb(199,199,199)" stroke="rgb(199,199,199)" stroke-width="1.51"/><path d="M472,1254L672,1222L601,1120Z" fill="rgb(208,208,208)" stroke="rgb(208,208,208)" stroke-width="1.51"/><path d="M601,1120L672,1222L732,1121Z" fill="rgb(207,207,207)" stroke="rgb(207,207,207)" stroke-width="1.51"/><path d="M672,1222L933,1301L866,1258Z" fill="rgb(204,204,204)" stroke="rgb(204,204,204)" stroke-width="1.51"/><path d="M866,1258L933,1301L1060,1215Z" fill="rgb(201,201,201)" stroke="rgb(201,201,201)" stroke-width="1.51"/><path d="M210,729L441,629L410,570Z" fill="rgb(227,227,227)" stroke="rgb(227,227,227)" stroke-width="1.51"/><path d="M346,1142L472,1254L601,1120Z" fill="rgb(210,210,210)" stroke="rgb(210,210,210)" stroke-width="1.51"/><path d="M1408,1074L1527,1123L1450,937Z" fill="rgb(193,193,193)" stroke="rgb(193,193,193)" stroke-width="1.51"/><path d="M1366,1249L1527,1123L1408,1074Z" fill="rgb(193,193,193)" stroke="rgb(193,193,193)" stroke-width="1.51"/><path d="M1173,1269L1366,1249L1167,1069Z" fill="rgb(196,196,196)" stroke="rgb(196,196,196)" stroke-width="1.51"/><path d="M1587,1238L1366,1249L1649,1250Z" fill="rgb(191,191,191)" stroke="rgb(191,191,191)" stroke-width="1.51"/><path d="M1527,1123L1698,891L1450,937Z" fill="rgb(193,193,193)" stroke="rgb(193,193,193)" stroke-width="1.51"/><path d="M371,449L235,471L410,570Z" fill="rgb(232,232,232)" stroke="rgb(232,232,232)" stroke-width="1.51"/><path d="M262,330L371,449L445,270Z" fill="rgb(236,236,236)" stroke="rgb(236,236,236)" stroke-width="1.51"/><path d="M1771,937L1708,886L1698,891Z" fill="rgb(193,193,193)" stroke="rgb(193,193,193)" stroke-width="1.51"/><path d="M1698,891L1708,886L1561,831Z" fill="rgb(196,196,196)" stroke="rgb(196,196,196)" stroke-width="1.51"/><path d="M1858,564L1807,382L1660,539Z" fill="rgb(205,205,205)" stroke="rgb(205,205,205)" stroke-width="1.51"/><path d="M1660,539L1807,382L1610,343Z" fill="rgb(209,209,209)" stroke="rgb(209,209,209)" stroke-width="1.51"/><path d="M230,228L262,330L445,270Z" fill="rgb(239,239,239)" stroke="rgb(239,239,239)" stroke-width="1.51"/><path d="M516,65L374,113L445,270Z" fill="rgb(241,241,241)" stroke="rgb(241,241,241)" stroke-width="1.51"/><path d="M372,-38L374,113L516,65Z" fill="rgb(245,245,245)" stroke="rgb(245,245,245)" stroke-width="1.51"/><path d="M1697,110L1582,38L1490,142Z" fill="rgb(222,222,222)" stroke="rgb(222,222,222)" stroke-width="1.51"/><path d="M235,471L210,729L410,570Z" fill="rgb(230,230,230)" stroke="rgb(230,230,230)" stroke-width="1.51"/><path d="M968,-104L875,-211L774,-21Z" fill="rgb(238,238,238)" stroke="rgb(238,238,238)" stroke-width="1.51"/><path d="M680,-29L504,-74L516,65Z" fill="rgb(244,244,244)" stroke="rgb(244,244,244)" stroke-width="1.51"/><path d="M1152,-206L875,-211L968,-104Z" fill="rgb(236,236,236)" stroke="rgb(236,236,236)" stroke-width="1.51"/><path d="M1152,-206L1035,-5L1298,-41Z" fill="rgb(233,233,233)" stroke="rgb(233,233,233)" stroke-width="1.51"/><path d="M1306,-224L1152,-206L1298,-41Z" fill="rgb(231,231,231)" stroke="rgb(231,231,231)" stroke-width="1.51"/><path d="M1582,38L1351,-145L1323,-11Z" fill="rgb(228,228,228)" stroke="rgb(228,228,228)" stroke-width="1.51"/><path d="M674,-214L504,-74L680,-29Z" fill="rgb(243,243,243)" stroke="rgb(243,243,243)" stroke-width="1.51"/><path d="M122,876L240,927L311,842Z" fill="rgb(221,221,221)" stroke="rgb(221,221,221)" stroke-width="1.51"/><path d="M311,842L240,927L388,923Z" fill="rgb(219,219,219)" stroke="rgb(219,219,219)" stroke-width="1.51"/><path d="M1858,564L1660,539L1676,665Z" fill="rgb(203,203,203)" stroke="rgb(203,203,203)" stroke-width="1.51"/><path d="M1623,259L1697,110L1554,252Z" fill="rgb(218,218,218)" stroke="rgb(218,218,218)" stroke-width="1.51"/><path d="M1840,776L1825,701L1676,665Z" fill="rgb(198,198,198)" stroke="rgb(198,198,198)" stroke-width="1.51"/><path d="M1571,-219L1306,-224L1351,-145Z" fill="rgb(228,228,228)" stroke="rgb(228,228,228)" stroke-width="1.51"/><path d="M1796,246L1697,110L1623,259Z" fill="rgb(216,216,216)" stroke="rgb(216,216,216)" stroke-width="1.51"/><path d="M191,88L230,228L374,113Z" fill="rgb(245,245,245)" stroke="rgb(245,245,245)" stroke-width="1.51"/><path d="M374,113L230,228L445,270Z" fill="rgb(241,241,241)" stroke="rgb(241,241,241)" stroke-width="1.51"/><path d="M113,379L109,480L235,471Z" fill="rgb(237,237,237)" stroke="rgb(237,237,237)" stroke-width="1.51"/><path d="M235,471L109,480L210,729Z" fill="rgb(233,233,233)" stroke="rgb(233,233,233)" stroke-width="1.51"/><path d="M1708,886L1840,776L1676,665Z" fill="rgb(197,197,197)" stroke="rgb(197,197,197)" stroke-width="1.51"/><path d="M1631,1161L1771,937L1698,891Z" fill="rgb(190,190,190)" stroke="rgb(190,190,190)" stroke-width="1.51"/><path d="M1631,1161L1698,891L1527,1123Z" fill="rgb(190,190,190)" stroke="rgb(190,190,190)" stroke-width="1.51"/><path d="M346,1142L499,907L388,923Z" fill="rgb(214,214,214)" stroke="rgb(214,214,214)" stroke-width="1.51"/><path d="M672,1222L449,1309L933,1301Z" fill="rgb(206,206,206)" stroke="rgb(206,206,206)" stroke-width="1.51"/><path d="M1587,1238L1631,1161L1527,1123Z" fill="rgb(190,190,190)" stroke="rgb(190,190,190)" stroke-width="1.51"/><path d="M240,927L346,1142L388,923Z" fill="rgb(216,216,216)" stroke="rgb(216,216,216)" stroke-width="1.51"/><path d="M875,-211L674,-214L774,-21Z" fill="rgb(240,240,240)" stroke="rgb(240,240,240)" stroke-width="1.51"/><path d="M1989,744L1858,564L1825,701Z" fill="rgb(197,197,197)" stroke="rgb(197,197,197)" stroke-width="1.51"/><path d="M1825,701L1858,564L1676,665Z" fill="rgb(200,200,200)" stroke="rgb(200,200,200)" stroke-width="1.51"/><path d="M1351,-145L1306,-224L1298,-41Z" fill="rgb(230,230,230)" stroke="rgb(230,230,230)" stroke-width="1.51"/><path d="M1152,-206L1306,-224L875,-211Z" fill="rgb(234,234,234)" stroke="rgb(234,234,234)" stroke-width="1.51"/><path d="M875,-211L1306,-224L674,-214Z" fill="rgb(237,237,237)" stroke="rgb(237,237,237)" stroke-width="1.51"/><path d="M1607,-111L1351,-145L1582,38Z" fill="rgb(227,227,227)" stroke="rgb(227,227,227)" stroke-width="1.51"/><path d="M1771,937L1840,776L1708,886Z" fill="rgb(193,193,193)" stroke="rgb(193,193,193)" stroke-width="1.51"/><path d="M1875,189L1796,246L1968,261Z" fill="rgb(212,212,212)" stroke="rgb(212,212,212)" stroke-width="1.51"/><path d="M1807,382L1796,246L1610,343Z" fill="rgb(212,212,212)" stroke="rgb(212,212,212)" stroke-width="1.51"/><path d="M504,-74L372,-38L516,65Z" fill="rgb(246,246,246)" stroke="rgb(246,246,246)" stroke-width="1.51"/><path d="M472,-127L372,-38L504,-74Z" fill="rgb(246,246,246)" stroke="rgb(246,246,246)" stroke-width="1.51"/><path d="M1649,1250L1366,1249L1173,1269Z" fill="rgb(193,193,193)" stroke="rgb(193,193,193)" stroke-width="1.51"/><path d="M1366,1249L1587,1238L1527,1123Z" fill="rgb(191,191,191)" stroke="rgb(191,191,191)" stroke-width="1.51"/><path d="M1631,1161L1812,1081L1771,937Z" fill="rgb(188,188,188)" stroke="rgb(188,188,188)" stroke-width="1.51"/><path d="M674,-214L472,-127L504,-74Z" fill="rgb(244,244,244)" stroke="rgb(244,244,244)" stroke-width="1.51"/><path d="M1796,246L1746,102L1697,110Z" fill="rgb(217,217,217)" stroke="rgb(217,217,217)" stroke-width="1.51"/><path d="M1697,110L1719,9L1582,38Z" fill="rgb(222,222,222)" stroke="rgb(222,222,222)" stroke-width="1.51"/><path d="M113,379L235,471L262,330Z" fill="rgb(238,238,238)" stroke="rgb(238,238,238)" stroke-width="1.51"/><path d="M210,729L122,876L311,842Z" fill="rgb(224,224,224)" stroke="rgb(224,224,224)" stroke-width="1.51"/><path d="M109,480L115,737L210,729Z" fill="rgb(231,231,231)" stroke="rgb(231,231,231)" stroke-width="1.51"/><path d="M199,1091L309,1215L346,1142Z" fill="rgb(214,214,214)" stroke="rgb(214,214,214)" stroke-width="1.51"/><path d="M1858,564L1890,494L1807,382Z" fill="rgb(204,204,204)" stroke="rgb(204,204,204)" stroke-width="1.51"/><path d="M1853,-14L1719,9L1746,102Z" fill="rgb(221,221,221)" stroke="rgb(221,221,221)" stroke-width="1.51"/><path d="M2087,587L1890,494L1858,564Z" fill="rgb(201,201,201)" stroke="rgb(201,201,201)" stroke-width="1.51"/><path d="M87,207L113,379L230,228Z" fill="rgb(243,243,243)" stroke="rgb(243,243,243)" stroke-width="1.51"/><path d="M230,228L113,379L262,330Z" fill="rgb(240,240,240)" stroke="rgb(240,240,240)" stroke-width="1.51"/><path d="M309,1215L449,1309L472,1254Z" fill="rgb(211,211,211)" stroke="rgb(211,211,211)" stroke-width="1.51"/><path d="M472,1254L449,1309L672,1222Z" fill="rgb(209,209,209)" stroke="rgb(209,209,209)" stroke-width="1.51"/><path d="M1875,189L1746,102L1796,246Z" fill="rgb(215,215,215)" stroke="rgb(215,215,215)" stroke-width="1.51"/><path d="M1746,102L1719,9L1697,110Z" fill="rgb(220,220,220)" stroke="rgb(220,220,220)" stroke-width="1.51"/><path d="M115,737L122,876L210,729Z" fill="rgb(226,226,226)" stroke="rgb(226,226,226)" stroke-width="1.51"/><path d="M346,1142L309,1215L472,1254Z" fill="rgb(212,212,212)" stroke="rgb(212,212,212)" stroke-width="1.51"/><path d="M1719,9L1607,-111L1582,38Z" fill="rgb(224,224,224)" stroke="rgb(224,224,224)" stroke-width="1.51"/><path d="M1587,1238L1649,1250L1631,1161Z" fill="rgb(189,189,189)" stroke="rgb(189,189,189)" stroke-width="1.51"/><path d="M1771,937L1889,866L1840,776Z" fill="rgb(192,192,192)" stroke="rgb(192,192,192)" stroke-width="1.51"/><path d="M933,1301L1649,1250L1173,1269Z" fill="rgb(196,196,196)" stroke="rgb(196,196,196)" stroke-width="1.51"/><path d="M199,1091L346,1142L240,927Z" fill="rgb(215,215,215)" stroke="rgb(215,215,215)" stroke-width="1.51"/><path d="M1840,776L1989,744L1825,701Z" fill="rgb(195,195,195)" stroke="rgb(195,195,195)" stroke-width="1.51"/><path d="M1956,1074L1889,866L1771,937Z" fill="rgb(189,189,189)" stroke="rgb(189,189,189)" stroke-width="1.51"/><path d="M196,3L191,88L374,113Z" fill="rgb(247,247,247)" stroke="rgb(247,247,247)" stroke-width="1.51"/><path d="M196,3L374,113L372,-38Z" fill="rgb(248,248,248)" stroke="rgb(248,248,248)" stroke-width="1.51"/><path d="M94,916L199,1091L240,927Z" fill="rgb(219,219,219)" stroke="rgb(219,219,219)" stroke-width="1.51"/><path d="M1763,1182L1812,1081L1631,1161Z" fill="rgb(187,187,187)" stroke="rgb(187,187,187)" stroke-width="1.51"/><path d="M191,88L166,107L230,228Z" fill="rgb(246,246,246)" stroke="rgb(246,246,246)" stroke-width="1.51"/><path d="M114,47L166,107L191,88Z" fill="rgb(249,249,249)" stroke="rgb(249,249,249)" stroke-width="1.51"/><path d="M1968,261L1796,246L1807,382Z" fill="rgb(210,210,210)" stroke="rgb(210,210,210)" stroke-width="1.51"/><path d="M122,876L94,916L240,927Z" fill="rgb(222,222,222)" stroke="rgb(222,222,222)" stroke-width="1.51"/><path d="M8,752L94,916L122,876Z" fill="rgb(225,225,225)" stroke="rgb(225,225,225)" stroke-width="1.51"/><path d="M8,752L122,876L115,737Z" fill="rgb(227,227,227)" stroke="rgb(227,227,227)" stroke-width="1.51"/><path d="M1649,1250L1763,1182L1631,1161Z" fill="rgb(188,188,188)" stroke="rgb(188,188,188)" stroke-width="1.51"/><path d="M166,107L87,207L230,228Z" fill="rgb(246,246,246)" stroke="rgb(246,246,246)" stroke-width="1.51"/><path d="M-54,557L115,737L109,480Z" fill="rgb(234,234,234)" stroke="rgb(234,234,234)" stroke-width="1.51"/><path d="M-54,557L8,752L115,737Z" fill="rgb(232,232,232)" stroke="rgb(232,232,232)" stroke-width="1.51"/><path d="M1779,-180L1607,-111L1719,9Z" fill="rgb(223,223,223)" stroke="rgb(223,223,223)" stroke-width="1.51"/><path d="M1779,-180L1571,-219L1607,-111Z" fill="rgb(224,224,224)" stroke="rgb(224,224,224)" stroke-width="1.51"/><path d="M1607,-111L1571,-219L1351,-145Z" fill="rgb(227,227,227)" stroke="rgb(227,227,227)" stroke-width="1.51"/><path d="M166,107L114,47L87,207Z" fill="rgb(248,248,248)" stroke="rgb(248,248,248)" stroke-width="1.51"/><path d="M291,-142L196,3L372,-38Z" fill="rgb(249,249,249)" stroke="rgb(249,249,249)" stroke-width="1.51"/><path d="M-54,557L109,480L-59,389Z" fill="rgb(239,239,239)" stroke="rgb(239,239,239)" stroke-width="1.51"/><path d="M1889,866L1989,744L1840,776Z" fill="rgb(193,193,193)" stroke="rgb(193,193,193)" stroke-width="1.51"/><path d="M1890,494L2003,433L1807,382Z" fill="rgb(205,205,205)" stroke="rgb(205,205,205)" stroke-width="1.51"/><path d="M2005,941L1989,744L1889,866Z" fill="rgb(191,191,191)" stroke="rgb(191,191,191)" stroke-width="1.51"/><path d="M2063,664L1989,744L2085,757Z" fill="rgb(195,195,195)" stroke="rgb(195,195,195)" stroke-width="1.51"/><path d="M340,-221L291,-142L472,-127Z" fill="rgb(248,248,248)" stroke="rgb(248,248,248)" stroke-width="1.51"/><path d="M472,-127L291,-142L372,-38Z" fill="rgb(248,248,248)" stroke="rgb(248,248,248)" stroke-width="1.51"/><path d="M2087,587L2003,433L1890,494Z" fill="rgb(202,202,202)" stroke="rgb(202,202,202)" stroke-width="1.51"/><path d="M2003,433L1968,261L1807,382Z" fill="rgb(207,207,207)" stroke="rgb(207,207,207)" stroke-width="1.51"/><path d="M1875,189L1853,-14L1746,102Z" fill="rgb(218,218,218)" stroke="rgb(218,218,218)" stroke-width="1.51"/><path d="M33,57L114,47L-5,-39Z" fill="rgb(253,253,253)" stroke="rgb(253,253,253)" stroke-width="1.51"/><path d="M196,3L114,47L191,88Z" fill="rgb(250,250,250)" stroke="rgb(250,250,250)" stroke-width="1.51"/><path d="M199,1091L158,1185L309,1215Z" fill="rgb(215,215,215)" stroke="rgb(215,215,215)" stroke-width="1.51"/><path d="M309,1215L-23,1261L449,1309Z" fill="rgb(215,215,215)" stroke="rgb(215,215,215)" stroke-width="1.51"/><path d="M84,1164L158,1185L199,1091Z" fill="rgb(216,216,216)" stroke="rgb(216,216,216)" stroke-width="1.51"/><path d="M84,1164L199,1091L49,1156Z" fill="rgb(217,217,217)" stroke="rgb(217,217,217)" stroke-width="1.51"/><path d="M120,-169L114,47L196,3Z" fill="rgb(252,252,252)" stroke="rgb(252,252,252)" stroke-width="1.51"/><path d="M674,-214L340,-221L472,-127Z" fill="rgb(245,245,245)" stroke="rgb(245,245,245)" stroke-width="1.51"/><path d="M1306,-224L340,-221L674,-214Z" fill="rgb(240,240,240)" stroke="rgb(240,240,240)" stroke-width="1.51"/><path d="M1969,44L1853,-14L1875,189Z" fill="rgb(217,217,217)" stroke="rgb(217,217,217)" stroke-width="1.51"/><path d="M-59,389L113,379L87,207Z" fill="rgb(243,243,243)" stroke="rgb(243,243,243)" stroke-width="1.51"/><path d="M-59,389L109,480L113,379Z" fill="rgb(240,240,240)" stroke="rgb(240,240,240)" stroke-width="1.51"/><path d="M1989,744L2063,664L1858,564Z" fill="rgb(197,197,197)" stroke="rgb(197,197,197)" stroke-width="1.51"/><path d="M2003,433L2111,386L1968,261Z" fill="rgb(207,207,207)" stroke="rgb(207,207,207)" stroke-width="1.51"/><path d="M2005,941L1889,866L1956,1074Z" fill="rgb(188,188,188)" stroke="rgb(188,188,188)" stroke-width="1.51"/><path d="M1956,1074L1771,937L1812,1081Z" fill="rgb(187,187,187)" stroke="rgb(187,187,187)" stroke-width="1.51"/><path d="M-102,395L-59,389L-70,225Z" fill="rgb(243,243,243)" stroke="rgb(243,243,243)" stroke-width="1.51"/><path d="M1979,1220L1956,1074L1812,1081Z" fill="rgb(184,184,184)" stroke="rgb(184,184,184)" stroke-width="1.51"/><path d="M2029,1068L1956,1074L1979,1220Z" fill="rgb(184,184,184)" stroke="rgb(184,184,184)" stroke-width="1.51"/><path d="M158,1185L-23,1261L309,1215Z" fill="rgb(216,216,216)" stroke="rgb(216,216,216)" stroke-width="1.51"/><path d="M49,1156L199,1091L94,916Z" fill="rgb(218,218,218)" stroke="rgb(218,218,218)" stroke-width="1.51"/><path d="M-74,941L94,916L8,752Z" fill="rgb(226,226,226)" stroke="rgb(226,226,226)" stroke-width="1.51"/><path d="M2085,757L2087,587L2063,664Z" fill="rgb(197,197,197)" stroke="rgb(197,197,197)" stroke-width="1.51"/><path d="M2063,664L2087,587L1858,564Z" fill="rgb(199,199,199)" stroke="rgb(199,199,199)" stroke-width="1.51"/><path d="M1853,-14L1779,-180L1719,9Z" fill="rgb(222,222,222)" stroke="rgb(222,222,222)" stroke-width="1.51"/><path d="M-54,557L-84,736L8,752Z" fill="rgb(232,232,232)" stroke="rgb(232,232,232)" stroke-width="1.51"/><path d="M-216,645L-84,736L-54,557Z" fill="rgb(233,233,233)" stroke="rgb(233,233,233)" stroke-width="1.51"/><path d="M114,47L33,57L87,207Z" fill="rgb(250,250,250)" stroke="rgb(250,250,250)" stroke-width="1.51"/><path d="M120,-169L196,3L291,-142Z" fill="rgb(251,251,251)" stroke="rgb(251,251,251)" stroke-width="1.51"/><path d="M2005,941L2085,757L1989,744Z" fill="rgb(192,192,192)" stroke="rgb(192,192,192)" stroke-width="1.51"/><path d="M2039,1004L2085,757L2005,941Z" fill="rgb(189,189,189)" stroke="rgb(189,189,189)" stroke-width="1.51"/><path d="M84,1164L-23,1261L158,1185Z" fill="rgb(217,217,217)" stroke="rgb(217,217,217)" stroke-width="1.51"/><path d="M-74,941L49,1156L94,916Z" fill="rgb(221,221,221)" stroke="rgb(221,221,221)" stroke-width="1.51"/><path d="M1853,-14L1979,-99L1779,-180Z" fill="rgb(220,220,220)" stroke="rgb(220,220,220)" stroke-width="1.51"/><path d="M1968,261L1969,44L1875,189Z" fill="rgb(214,214,214)" stroke="rgb(214,214,214)" stroke-width="1.51"/><path d="M2023,46L1969,44L2075,87Z" fill="rgb(217,217,217)" stroke="rgb(217,217,217)" stroke-width="1.51"/><path d="M-59,389L-102,395L-54,557Z" fill="rgb(240,240,240)" stroke="rgb(240,240,240)" stroke-width="1.51"/><path d="M-70,225L-59,389L87,207Z" fill="rgb(246,246,246)" stroke="rgb(246,246,246)" stroke-width="1.51"/><path d="M1956,1074L2039,1004L2005,941Z" fill="rgb(186,186,186)" stroke="rgb(186,186,186)" stroke-width="1.51"/><path d="M33,57L-70,225L87,207Z" fill="rgb(249,249,249)" stroke="rgb(249,249,249)" stroke-width="1.51"/><path d="M-84,736L-74,941L8,752Z" fill="rgb(228,228,228)" stroke="rgb(228,228,228)" stroke-width="1.51"/><path d="M-161,819L-74,941L-84,736Z" fill="rgb(227,227,227)" stroke="rgb(227,227,227)" stroke-width="1.51"/><path d="M2087,587L2111,386L2003,433Z" fill="rgb(204,204,204)" stroke="rgb(204,204,204)" stroke-width="1.51"/><path d="M2085,757L2111,386L2087,587Z" fill="rgb(200,200,200)" stroke="rgb(200,200,200)" stroke-width="1.51"/><path d="M1956,1074L2029,1068L2039,1004Z" fill="rgb(185,185,185)" stroke="rgb(185,185,185)" stroke-width="1.51"/><path d="M2039,1004L2021,1257L2085,757Z" fill="rgb(186,186,186)" stroke="rgb(186,186,186)" stroke-width="1.51"/><path d="M1979,1220L1812,1081L1763,1182Z" fill="rgb(185,185,185)" stroke="rgb(185,185,185)" stroke-width="1.51"/><path d="M-157,64L-179,200L-70,225Z" fill="rgb(249,249,249)" stroke="rgb(249,249,249)" stroke-width="1.51"/><path d="M340,-221L120,-169L291,-142Z" fill="rgb(250,250,250)" stroke="rgb(250,250,250)" stroke-width="1.51"/><path d="M1969,44L1979,-99L1853,-14Z" fill="rgb(219,219,219)" stroke="rgb(219,219,219)" stroke-width="1.51"/><path d="M2075,87L1969,44L1968,261Z" fill="rgb(215,215,215)" stroke="rgb(215,215,215)" stroke-width="1.51"/><path d="M1649,1250L1979,1220L1763,1182Z" fill="rgb(186,186,186)" stroke="rgb(186,186,186)" stroke-width="1.51"/><path d="M-102,395L-175,520L-54,557Z" fill="rgb(238,238,238)" stroke="rgb(238,238,238)" stroke-width="1.51"/><path d="M-179,200L-175,520L-102,395Z" fill="rgb(242,242,242)" stroke="rgb(242,242,242)" stroke-width="1.51"/><path d="M120,-169L-5,-39L114,47Z" fill="rgb(253,253,253)" stroke="rgb(253,253,253)" stroke-width="1.51"/><path d="M-70,225L-179,200L-102,395Z" fill="rgb(246,246,246)" stroke="rgb(246,246,246)" stroke-width="1.51"/><path d="M2111,386L2125,236L1968,261Z" fill="rgb(209,209,209)" stroke="rgb(209,209,209)" stroke-width="1.51"/><path d="M2085,757L2125,236L2111,386Z" fill="rgb(204,204,204)" stroke="rgb(204,204,204)" stroke-width="1.51"/><path d="M-74,941L-121,1007L49,1156Z" fill="rgb(221,221,221)" stroke="rgb(221,221,221)" stroke-width="1.51"/><path d="M-216,645L-161,819L-84,736Z" fill="rgb(230,230,230)" stroke="rgb(230,230,230)" stroke-width="1.51"/><path d="M2023,46L1979,-99L1969,44Z" fill="rgb(219,219,219)" stroke="rgb(219,219,219)" stroke-width="1.51"/><path d="M2125,236L2075,87L1968,261Z" fill="rgb(213,213,213)" stroke="rgb(213,213,213)" stroke-width="1.51"/><path d="M2140,-218L1979,-99L2023,46Z" fill="rgb(219,219,219)" stroke="rgb(219,219,219)" stroke-width="1.51"/><path d="M-161,819L-121,1007L-74,941Z" fill="rgb(224,224,224)" stroke="rgb(224,224,224)" stroke-width="1.51"/><path d="M-180,1189L-111,1102L-121,1007Z" fill="rgb(219,219,219)" stroke="rgb(219,219,219)" stroke-width="1.51"/><path d="M-175,520L-216,645L-54,557Z" fill="rgb(236,236,236)" stroke="rgb(236,236,236)" stroke-width="1.51"/><path d="M-179,200L-216,645L-175,520Z" fill="rgb(240,240,240)" stroke="rgb(240,240,240)" stroke-width="1.51"/><path d="M49,1156L-23,1261L84,1164Z" fill="rgb(218,218,218)" stroke="rgb(218,218,218)" stroke-width="1.51"/><path d="M-121,1007L-111,1102L49,1156Z" fill="rgb(219,219,219)" stroke="rgb(219,219,219)" stroke-width="1.51"/><path d="M-180,1189L-121,1007L-161,819Z" fill="rgb(222,222,222)" stroke="rgb(222,222,222)" stroke-width="1.51"/><path d="M-111,1102L-23,1261L49,1156Z" fill="rgb(219,219,219)" stroke="rgb(219,219,219)" stroke-width="1.51"/><path d="M1649,1250L2021,1257L1979,1220Z" fill="rgb(184,184,184)" stroke="rgb(184,184,184)" stroke-width="1.51"/><path d="M1979,1220L2021,1257L2029,1068Z" fill="rgb(184,184,184)" stroke="rgb(184,184,184)" stroke-width="1.51"/><path d="M2029,1068L2021,1257L2039,1004Z" fill="rgb(184,184,184)" stroke="rgb(184,184,184)" stroke-width="1.51"/><path d="M933,1301L2021,1257L1649,1250Z" fill="rgb(191,191,191)" stroke="rgb(191,191,191)" stroke-width="1.51"/><path d="M-157,64L-70,225L33,57Z" fill="rgb(251,251,251)" stroke="rgb(251,251,251)" stroke-width="1.51"/><path d="M-5,-39L-94,-2L33,57Z" fill="rgb(255,255,255)" stroke="rgb(255,255,255)" stroke-width="1.51"/><path d="M-41,-197L-94,-2L-5,-39Z" fill="rgb(255,255,255)" stroke="rgb(255,255,255)" stroke-width="1.51"/><path d="M-94,-2L-157,64L33,57Z" fill="rgb(253,253,253)" stroke="rgb(253,253,253)" stroke-width="1.51"/><path d="M-94,-2L-183,-197L-157,64Z" fill="rgb(255,255,255)" stroke="rgb(255,255,255)" stroke-width="1.51"/><path d="M120,-169L-41,-197L-5,-39Z" fill="rgb(254,254,254)" stroke="rgb(254,254,254)" stroke-width="1.51"/><path d="M340,-221L-41,-197L120,-169Z" fill="rgb(252,252,252)" stroke="rgb(252,252,252)" stroke-width="1.51"/><path d="M-111,1102L-180,1189L-23,1261Z" fill="rgb(219,219,219)" stroke="rgb(219,219,219)" stroke-width="1.51"/><path d="M-216,645L-180,1189L-161,819Z" fill="rgb(226,226,226)" stroke="rgb(226,226,226)" stroke-width="1.51"/><path d="M2075,87L2140,-218L2023,46Z" fill="rgb(219,219,219)" stroke="rgb(219,219,219)" stroke-width="1.51"/><path d="M1979,-99L2140,-218L1779,-180Z" fill="rgb(219,219,219)" stroke="rgb(219,219,219)" stroke-width="1.51"/><path d="M1779,-180L2140,-218L1571,-219Z" fill="rgb(221,221,221)" stroke="rgb(221,221,221)" stroke-width="1.51"/><path d="M1571,-219L2140,-218L1306,-224Z" fill="rgb(224,224,224)" stroke="rgb(224,224,224)" stroke-width="1.51"/><path d="M2125,236L2140,-218L2075,87Z" fill="rgb(218,218,218)" stroke="rgb(218,218,218)" stroke-width="1.51"/><path d="M340,-221L-183,-197L-41,-197Z" fill="rgb(254,254,254)" stroke="rgb(254,254,254)" stroke-width="1.51"/><path d="M-41,-197L-183,-197L-94,-2Z" fill="rgb(255,255,255)" stroke="rgb(255,255,255)" stroke-width="1.51"/><path d="M-157,64L-183,-197L-179,200Z" fill="rgb(254,254,254)" stroke="rgb(254,254,254)" stroke-width="1.51"/><path d="M-179,200L-183,-197L-216,645Z" fill="rgb(247,247,247)" stroke="rgb(247,247,247)" stroke-width="1.51"/></svg>