<?xml version="1.0" encoding="iso-8859-1"?>
<!-- Generator: Adobe Illustrator 19.0.0, SVG Export Plug-In . SVG Version: 6.00 Build 0)  -->
<svg version="1.1" id="Layer_1" xmlns="http://www.w3.org/2000/svg" xmlns:xlink="http://www.w3.org/1999/xlink" x="0px" y="0px"
	 viewBox="0 0 512 512" style="enable-background:new 0 0 512 512;" xml:space="preserve">
<g>
	<g>
		<path d="M509.534,169.72c-8.653-23.195-35.356-42.812-79.363-58.305c-20.38-7.175-39.633-11.785-50.482-14.112
			c-10.031-21.838-25.6-40.566-45.457-54.535C311.245,26.596,284.193,18.049,256,18.049c-28.194,0-55.247,8.547-78.233,24.719
			c-19.857,13.97-35.426,32.697-45.457,54.537c-10.849,2.326-30.102,6.936-50.481,14.111c-44.008,15.493-70.71,35.11-79.363,58.305
			c-3.294,8.831-4.928,22.66,5.997,38.396c19.478,28.056,69.65,46.342,97.824,54.744c46.87,13.98,100.041,21.678,149.715,21.678
			s102.845-7.698,149.715-21.678c28.173-8.403,78.346-26.687,97.824-54.744C514.463,192.381,512.83,178.552,509.534,169.72z
			 M256,51.439c39.521,0,75.712,23.104,92.653,58.312c-8.807,9.164-33.92,27.725-92.653,27.725
			c-41.329,0-65.639-9.225-78.755-16.965c-6.649-3.923-11.083-7.794-13.898-10.761C180.287,74.541,216.479,51.439,256,51.439z
			 M476.112,189.076c-11.587,16.689-48.891,32.53-79.94,41.79c-43.224,12.89-94.314,20.285-140.173,20.285
			c-99.692,0-200.183-33.368-220.112-62.073c-3.256-4.692-2.474-6.789-2.14-7.684c4.797-12.857,26.222-26.833,58.78-38.345
			c17.386-6.147,34.238-10.315,44.523-12.593c4.309,4.924,10.649,10.846,19.72,16.656c24.605,15.762,57.99,23.754,99.228,23.754
			s74.623-7.992,99.228-23.755c9.072-5.811,15.411-11.733,19.72-16.656c10.287,2.278,27.137,6.446,44.523,12.593
			c32.559,11.512,53.985,25.489,58.781,38.345C478.587,182.287,479.369,184.383,476.112,189.076z"/>
	</g>
</g>
<g>
	<g>
		<circle cx="129.146" cy="186.532" r="16.262"/>
	</g>
</g>
<g>
	<g>
		<circle cx="382.853" cy="186.532" r="16.262"/>
	</g>
</g>
<g>
	<g>
		<circle cx="256" cy="212.553" r="16.262"/>
	</g>
</g>
<g>
	<g>
		<rect x="239.305" y="329.179" width="33.388" height="108.045"/>
	</g>
</g>
<g>
	<g>
		<rect x="322.966" y="329.179" width="33.388" height="164.772"/>
	</g>
</g>
<g>
	<g>
		<rect x="155.645" y="329.179" width="33.388" height="164.772"/>
	</g>
</g>
<g>
</g>
<g>
</g>
<g>
</g>
<g>
</g>
<g>
</g>
<g>
</g>
<g>
</g>
<g>
</g>
<g>
</g>
<g>
</g>
<g>
</g>
<g>
</g>
<g>
</g>
<g>
</g>
<g>
</g>
</svg>
