<?xml version="1.0" standalone="no"?>
<svg xmlns:xlink="http://www.w3.org/1999/xlink" id="wave" style="transform:rotate(180deg); transition: 0.3s" viewBox="0 0 1440 210" version="1.1" xmlns="http://www.w3.org/2000/svg"><defs><linearGradient id="sw-gradient-0" x1="0" x2="0" y1="1" y2="0"><stop stop-color="rgba(255, 255, 255, 1)" offset="0%"/><stop stop-color="rgba(250.767, 250.767, 250.767, 1)" offset="100%"/></linearGradient></defs><path style="transform:translate(0, 0px); opacity:1" fill="url(#sw-gradient-0)" d="M0,84L120,77C240,70,480,56,720,66.5C960,77,1200,112,1440,115.5C1680,119,1920,91,2160,77C2400,63,2640,63,2880,84C3120,105,3360,147,3600,140C3840,133,4080,77,4320,49C4560,21,4800,21,5040,21C5280,21,5520,21,5760,31.5C6000,42,6240,63,6480,63C6720,63,6960,42,7200,45.5C7440,49,7680,77,7920,98C8160,119,8400,133,8640,129.5C8880,126,9120,105,9360,91C9600,77,9840,70,10080,59.5C10320,49,10560,35,10800,42C11040,49,11280,77,11520,91C11760,105,12000,105,12240,87.5C12480,70,12720,35,12960,17.5C13200,0,13440,0,13680,31.5C13920,63,14160,126,14400,129.5C14640,133,14880,77,15120,70C15360,63,15600,105,15840,129.5C16080,154,16320,161,16560,161C16800,161,17040,154,17160,150.5L17280,147L17280,210L17160,210C17040,210,16800,210,16560,210C16320,210,16080,210,15840,210C15600,210,15360,210,15120,210C14880,210,14640,210,14400,210C14160,210,13920,210,13680,210C13440,210,13200,210,12960,210C12720,210,12480,210,12240,210C12000,210,11760,210,11520,210C11280,210,11040,210,10800,210C10560,210,10320,210,10080,210C9840,210,9600,210,9360,210C9120,210,8880,210,8640,210C8400,210,8160,210,7920,210C7680,210,7440,210,7200,210C6960,210,6720,210,6480,210C6240,210,6000,210,5760,210C5520,210,5280,210,5040,210C4800,210,4560,210,4320,210C4080,210,3840,210,3600,210C3360,210,3120,210,2880,210C2640,210,2400,210,2160,210C1920,210,1680,210,1440,210C1200,210,960,210,720,210C480,210,240,210,120,210L0,210Z"/></svg>